G04 #@! TF.GenerationSoftware,KiCad,Pcbnew,(5.0.2)-1*
G04 #@! TF.CreationDate,2019-06-22T00:22:24-07:00*
G04 #@! TF.ProjectId,pic_beeper,7069635f-6265-4657-9065-722e6b696361,rev?*
G04 #@! TF.SameCoordinates,Original*
G04 #@! TF.FileFunction,Paste,Top*
G04 #@! TF.FilePolarity,Positive*
%FSLAX46Y46*%
G04 Gerber Fmt 4.6, Leading zero omitted, Abs format (unit mm)*
G04 Created by KiCad (PCBNEW (5.0.2)-1) date 6/22/2019 12:22:24 AM*
%MOMM*%
%LPD*%
G01*
G04 APERTURE LIST*
%ADD10R,2.000000X2.000000*%
%ADD11C,0.100000*%
%ADD12C,0.875000*%
%ADD13R,0.350000X0.650000*%
%ADD14R,1.000000X0.600000*%
%ADD15R,0.900000X1.250000*%
%ADD16R,0.800000X0.900000*%
G04 APERTURE END LIST*
D10*
G04 #@! TO.C,BZ1*
X18000000Y-1500000D03*
X18000000Y-8500000D03*
X11000000Y-8500000D03*
X11000000Y-1500000D03*
G04 #@! TD*
D11*
G04 #@! TO.C,C1*
G36*
X21867691Y-5583553D02*
X21888926Y-5586703D01*
X21909750Y-5591919D01*
X21929962Y-5599151D01*
X21949368Y-5608330D01*
X21967781Y-5619366D01*
X21985024Y-5632154D01*
X22000930Y-5646570D01*
X22015346Y-5662476D01*
X22028134Y-5679719D01*
X22039170Y-5698132D01*
X22048349Y-5717538D01*
X22055581Y-5737750D01*
X22060797Y-5758574D01*
X22063947Y-5779809D01*
X22065000Y-5801250D01*
X22065000Y-6238750D01*
X22063947Y-6260191D01*
X22060797Y-6281426D01*
X22055581Y-6302250D01*
X22048349Y-6322462D01*
X22039170Y-6341868D01*
X22028134Y-6360281D01*
X22015346Y-6377524D01*
X22000930Y-6393430D01*
X21985024Y-6407846D01*
X21967781Y-6420634D01*
X21949368Y-6431670D01*
X21929962Y-6440849D01*
X21909750Y-6448081D01*
X21888926Y-6453297D01*
X21867691Y-6456447D01*
X21846250Y-6457500D01*
X21333750Y-6457500D01*
X21312309Y-6456447D01*
X21291074Y-6453297D01*
X21270250Y-6448081D01*
X21250038Y-6440849D01*
X21230632Y-6431670D01*
X21212219Y-6420634D01*
X21194976Y-6407846D01*
X21179070Y-6393430D01*
X21164654Y-6377524D01*
X21151866Y-6360281D01*
X21140830Y-6341868D01*
X21131651Y-6322462D01*
X21124419Y-6302250D01*
X21119203Y-6281426D01*
X21116053Y-6260191D01*
X21115000Y-6238750D01*
X21115000Y-5801250D01*
X21116053Y-5779809D01*
X21119203Y-5758574D01*
X21124419Y-5737750D01*
X21131651Y-5717538D01*
X21140830Y-5698132D01*
X21151866Y-5679719D01*
X21164654Y-5662476D01*
X21179070Y-5646570D01*
X21194976Y-5632154D01*
X21212219Y-5619366D01*
X21230632Y-5608330D01*
X21250038Y-5599151D01*
X21270250Y-5591919D01*
X21291074Y-5586703D01*
X21312309Y-5583553D01*
X21333750Y-5582500D01*
X21846250Y-5582500D01*
X21867691Y-5583553D01*
X21867691Y-5583553D01*
G37*
D12*
X21590000Y-6020000D03*
D11*
G36*
X21867691Y-4008553D02*
X21888926Y-4011703D01*
X21909750Y-4016919D01*
X21929962Y-4024151D01*
X21949368Y-4033330D01*
X21967781Y-4044366D01*
X21985024Y-4057154D01*
X22000930Y-4071570D01*
X22015346Y-4087476D01*
X22028134Y-4104719D01*
X22039170Y-4123132D01*
X22048349Y-4142538D01*
X22055581Y-4162750D01*
X22060797Y-4183574D01*
X22063947Y-4204809D01*
X22065000Y-4226250D01*
X22065000Y-4663750D01*
X22063947Y-4685191D01*
X22060797Y-4706426D01*
X22055581Y-4727250D01*
X22048349Y-4747462D01*
X22039170Y-4766868D01*
X22028134Y-4785281D01*
X22015346Y-4802524D01*
X22000930Y-4818430D01*
X21985024Y-4832846D01*
X21967781Y-4845634D01*
X21949368Y-4856670D01*
X21929962Y-4865849D01*
X21909750Y-4873081D01*
X21888926Y-4878297D01*
X21867691Y-4881447D01*
X21846250Y-4882500D01*
X21333750Y-4882500D01*
X21312309Y-4881447D01*
X21291074Y-4878297D01*
X21270250Y-4873081D01*
X21250038Y-4865849D01*
X21230632Y-4856670D01*
X21212219Y-4845634D01*
X21194976Y-4832846D01*
X21179070Y-4818430D01*
X21164654Y-4802524D01*
X21151866Y-4785281D01*
X21140830Y-4766868D01*
X21131651Y-4747462D01*
X21124419Y-4727250D01*
X21119203Y-4706426D01*
X21116053Y-4685191D01*
X21115000Y-4663750D01*
X21115000Y-4226250D01*
X21116053Y-4204809D01*
X21119203Y-4183574D01*
X21124419Y-4162750D01*
X21131651Y-4142538D01*
X21140830Y-4123132D01*
X21151866Y-4104719D01*
X21164654Y-4087476D01*
X21179070Y-4071570D01*
X21194976Y-4057154D01*
X21212219Y-4044366D01*
X21230632Y-4033330D01*
X21250038Y-4024151D01*
X21270250Y-4016919D01*
X21291074Y-4011703D01*
X21312309Y-4008553D01*
X21333750Y-4007500D01*
X21846250Y-4007500D01*
X21867691Y-4008553D01*
X21867691Y-4008553D01*
G37*
D12*
X21590000Y-4445000D03*
G04 #@! TD*
D11*
G04 #@! TO.C,D2*
G36*
X27545191Y-9686053D02*
X27566426Y-9689203D01*
X27587250Y-9694419D01*
X27607462Y-9701651D01*
X27626868Y-9710830D01*
X27645281Y-9721866D01*
X27662524Y-9734654D01*
X27678430Y-9749070D01*
X27692846Y-9764976D01*
X27705634Y-9782219D01*
X27716670Y-9800632D01*
X27725849Y-9820038D01*
X27733081Y-9840250D01*
X27738297Y-9861074D01*
X27741447Y-9882309D01*
X27742500Y-9903750D01*
X27742500Y-10416250D01*
X27741447Y-10437691D01*
X27738297Y-10458926D01*
X27733081Y-10479750D01*
X27725849Y-10499962D01*
X27716670Y-10519368D01*
X27705634Y-10537781D01*
X27692846Y-10555024D01*
X27678430Y-10570930D01*
X27662524Y-10585346D01*
X27645281Y-10598134D01*
X27626868Y-10609170D01*
X27607462Y-10618349D01*
X27587250Y-10625581D01*
X27566426Y-10630797D01*
X27545191Y-10633947D01*
X27523750Y-10635000D01*
X27086250Y-10635000D01*
X27064809Y-10633947D01*
X27043574Y-10630797D01*
X27022750Y-10625581D01*
X27002538Y-10618349D01*
X26983132Y-10609170D01*
X26964719Y-10598134D01*
X26947476Y-10585346D01*
X26931570Y-10570930D01*
X26917154Y-10555024D01*
X26904366Y-10537781D01*
X26893330Y-10519368D01*
X26884151Y-10499962D01*
X26876919Y-10479750D01*
X26871703Y-10458926D01*
X26868553Y-10437691D01*
X26867500Y-10416250D01*
X26867500Y-9903750D01*
X26868553Y-9882309D01*
X26871703Y-9861074D01*
X26876919Y-9840250D01*
X26884151Y-9820038D01*
X26893330Y-9800632D01*
X26904366Y-9782219D01*
X26917154Y-9764976D01*
X26931570Y-9749070D01*
X26947476Y-9734654D01*
X26964719Y-9721866D01*
X26983132Y-9710830D01*
X27002538Y-9701651D01*
X27022750Y-9694419D01*
X27043574Y-9689203D01*
X27064809Y-9686053D01*
X27086250Y-9685000D01*
X27523750Y-9685000D01*
X27545191Y-9686053D01*
X27545191Y-9686053D01*
G37*
D12*
X27305000Y-10160000D03*
D11*
G36*
X25970191Y-9686053D02*
X25991426Y-9689203D01*
X26012250Y-9694419D01*
X26032462Y-9701651D01*
X26051868Y-9710830D01*
X26070281Y-9721866D01*
X26087524Y-9734654D01*
X26103430Y-9749070D01*
X26117846Y-9764976D01*
X26130634Y-9782219D01*
X26141670Y-9800632D01*
X26150849Y-9820038D01*
X26158081Y-9840250D01*
X26163297Y-9861074D01*
X26166447Y-9882309D01*
X26167500Y-9903750D01*
X26167500Y-10416250D01*
X26166447Y-10437691D01*
X26163297Y-10458926D01*
X26158081Y-10479750D01*
X26150849Y-10499962D01*
X26141670Y-10519368D01*
X26130634Y-10537781D01*
X26117846Y-10555024D01*
X26103430Y-10570930D01*
X26087524Y-10585346D01*
X26070281Y-10598134D01*
X26051868Y-10609170D01*
X26032462Y-10618349D01*
X26012250Y-10625581D01*
X25991426Y-10630797D01*
X25970191Y-10633947D01*
X25948750Y-10635000D01*
X25511250Y-10635000D01*
X25489809Y-10633947D01*
X25468574Y-10630797D01*
X25447750Y-10625581D01*
X25427538Y-10618349D01*
X25408132Y-10609170D01*
X25389719Y-10598134D01*
X25372476Y-10585346D01*
X25356570Y-10570930D01*
X25342154Y-10555024D01*
X25329366Y-10537781D01*
X25318330Y-10519368D01*
X25309151Y-10499962D01*
X25301919Y-10479750D01*
X25296703Y-10458926D01*
X25293553Y-10437691D01*
X25292500Y-10416250D01*
X25292500Y-9903750D01*
X25293553Y-9882309D01*
X25296703Y-9861074D01*
X25301919Y-9840250D01*
X25309151Y-9820038D01*
X25318330Y-9800632D01*
X25329366Y-9782219D01*
X25342154Y-9764976D01*
X25356570Y-9749070D01*
X25372476Y-9734654D01*
X25389719Y-9721866D01*
X25408132Y-9710830D01*
X25427538Y-9701651D01*
X25447750Y-9694419D01*
X25468574Y-9689203D01*
X25489809Y-9686053D01*
X25511250Y-9685000D01*
X25948750Y-9685000D01*
X25970191Y-9686053D01*
X25970191Y-9686053D01*
G37*
D12*
X25730000Y-10160000D03*
G04 #@! TD*
D11*
G04 #@! TO.C,R1*
G36*
X30757691Y-9723553D02*
X30778926Y-9726703D01*
X30799750Y-9731919D01*
X30819962Y-9739151D01*
X30839368Y-9748330D01*
X30857781Y-9759366D01*
X30875024Y-9772154D01*
X30890930Y-9786570D01*
X30905346Y-9802476D01*
X30918134Y-9819719D01*
X30929170Y-9838132D01*
X30938349Y-9857538D01*
X30945581Y-9877750D01*
X30950797Y-9898574D01*
X30953947Y-9919809D01*
X30955000Y-9941250D01*
X30955000Y-10378750D01*
X30953947Y-10400191D01*
X30950797Y-10421426D01*
X30945581Y-10442250D01*
X30938349Y-10462462D01*
X30929170Y-10481868D01*
X30918134Y-10500281D01*
X30905346Y-10517524D01*
X30890930Y-10533430D01*
X30875024Y-10547846D01*
X30857781Y-10560634D01*
X30839368Y-10571670D01*
X30819962Y-10580849D01*
X30799750Y-10588081D01*
X30778926Y-10593297D01*
X30757691Y-10596447D01*
X30736250Y-10597500D01*
X30223750Y-10597500D01*
X30202309Y-10596447D01*
X30181074Y-10593297D01*
X30160250Y-10588081D01*
X30140038Y-10580849D01*
X30120632Y-10571670D01*
X30102219Y-10560634D01*
X30084976Y-10547846D01*
X30069070Y-10533430D01*
X30054654Y-10517524D01*
X30041866Y-10500281D01*
X30030830Y-10481868D01*
X30021651Y-10462462D01*
X30014419Y-10442250D01*
X30009203Y-10421426D01*
X30006053Y-10400191D01*
X30005000Y-10378750D01*
X30005000Y-9941250D01*
X30006053Y-9919809D01*
X30009203Y-9898574D01*
X30014419Y-9877750D01*
X30021651Y-9857538D01*
X30030830Y-9838132D01*
X30041866Y-9819719D01*
X30054654Y-9802476D01*
X30069070Y-9786570D01*
X30084976Y-9772154D01*
X30102219Y-9759366D01*
X30120632Y-9748330D01*
X30140038Y-9739151D01*
X30160250Y-9731919D01*
X30181074Y-9726703D01*
X30202309Y-9723553D01*
X30223750Y-9722500D01*
X30736250Y-9722500D01*
X30757691Y-9723553D01*
X30757691Y-9723553D01*
G37*
D12*
X30480000Y-10160000D03*
D11*
G36*
X30757691Y-8148553D02*
X30778926Y-8151703D01*
X30799750Y-8156919D01*
X30819962Y-8164151D01*
X30839368Y-8173330D01*
X30857781Y-8184366D01*
X30875024Y-8197154D01*
X30890930Y-8211570D01*
X30905346Y-8227476D01*
X30918134Y-8244719D01*
X30929170Y-8263132D01*
X30938349Y-8282538D01*
X30945581Y-8302750D01*
X30950797Y-8323574D01*
X30953947Y-8344809D01*
X30955000Y-8366250D01*
X30955000Y-8803750D01*
X30953947Y-8825191D01*
X30950797Y-8846426D01*
X30945581Y-8867250D01*
X30938349Y-8887462D01*
X30929170Y-8906868D01*
X30918134Y-8925281D01*
X30905346Y-8942524D01*
X30890930Y-8958430D01*
X30875024Y-8972846D01*
X30857781Y-8985634D01*
X30839368Y-8996670D01*
X30819962Y-9005849D01*
X30799750Y-9013081D01*
X30778926Y-9018297D01*
X30757691Y-9021447D01*
X30736250Y-9022500D01*
X30223750Y-9022500D01*
X30202309Y-9021447D01*
X30181074Y-9018297D01*
X30160250Y-9013081D01*
X30140038Y-9005849D01*
X30120632Y-8996670D01*
X30102219Y-8985634D01*
X30084976Y-8972846D01*
X30069070Y-8958430D01*
X30054654Y-8942524D01*
X30041866Y-8925281D01*
X30030830Y-8906868D01*
X30021651Y-8887462D01*
X30014419Y-8867250D01*
X30009203Y-8846426D01*
X30006053Y-8825191D01*
X30005000Y-8803750D01*
X30005000Y-8366250D01*
X30006053Y-8344809D01*
X30009203Y-8323574D01*
X30014419Y-8302750D01*
X30021651Y-8282538D01*
X30030830Y-8263132D01*
X30041866Y-8244719D01*
X30054654Y-8227476D01*
X30069070Y-8211570D01*
X30084976Y-8197154D01*
X30102219Y-8184366D01*
X30120632Y-8173330D01*
X30140038Y-8164151D01*
X30160250Y-8156919D01*
X30181074Y-8151703D01*
X30202309Y-8148553D01*
X30223750Y-8147500D01*
X30736250Y-8147500D01*
X30757691Y-8148553D01*
X30757691Y-8148553D01*
G37*
D12*
X30480000Y-8585000D03*
G04 #@! TD*
D13*
G04 #@! TO.C,U1*
X25060000Y-6630000D03*
X25710000Y-6630000D03*
X26360000Y-6630000D03*
X27010000Y-6630000D03*
X27010000Y-3530000D03*
X26360000Y-3530000D03*
X25710000Y-3530000D03*
X25060000Y-3530000D03*
D14*
X26635000Y-5467500D03*
X26635000Y-4692500D03*
X25435000Y-4692500D03*
X25435000Y-5467500D03*
G04 #@! TD*
D10*
G04 #@! TO.C,BZ2*
X8500000Y-1500000D03*
X8500000Y-8500000D03*
X1500000Y-8500000D03*
X1500000Y-1500000D03*
G04 #@! TD*
G04 #@! TO.C,BZ3*
X5065000Y-11000000D03*
X5065000Y-18000000D03*
X12065000Y-18000000D03*
X12065000Y-11000000D03*
G04 #@! TD*
G04 #@! TO.C,BZ4*
X21590000Y-11000000D03*
X21590000Y-18000000D03*
X14590000Y-18000000D03*
X14590000Y-11000000D03*
G04 #@! TD*
D15*
G04 #@! TO.C,SW1*
X30250000Y-15375000D03*
X28750000Y-15375000D03*
X25750000Y-15375000D03*
D16*
X24200000Y-18600000D03*
X31800000Y-18600000D03*
X24200000Y-16400000D03*
X31800000Y-16400000D03*
G04 #@! TD*
M02*
