G04 #@! TF.GenerationSoftware,KiCad,Pcbnew,(5.1.4-0)*
G04 #@! TF.CreationDate,2019-09-04T21:36:44-07:00*
G04 #@! TF.ProjectId,pic_beeper,7069635f-6265-4657-9065-722e6b696361,rev?*
G04 #@! TF.SameCoordinates,Original*
G04 #@! TF.FileFunction,Paste,Top*
G04 #@! TF.FilePolarity,Positive*
%FSLAX46Y46*%
G04 Gerber Fmt 4.6, Leading zero omitted, Abs format (unit mm)*
G04 Created by KiCad (PCBNEW (5.1.4-0)) date 2019-09-04 21:36:44*
%MOMM*%
%LPD*%
G04 APERTURE LIST*
%ADD10R,2.000000X2.000000*%
%ADD11C,0.100000*%
%ADD12C,0.875000*%
%ADD13R,2.500000X1.800000*%
%ADD14R,0.800000X0.900000*%
%ADD15R,0.900000X1.250000*%
%ADD16R,0.350000X0.650000*%
%ADD17R,1.000000X0.600000*%
G04 APERTURE END LIST*
D10*
X17785001Y-12705001D03*
X24785001Y-12705001D03*
X24785001Y-19705001D03*
X17785001Y-19705001D03*
D11*
G36*
X27875191Y-19211053D02*
G01*
X27896426Y-19214203D01*
X27917250Y-19219419D01*
X27937462Y-19226651D01*
X27956868Y-19235830D01*
X27975281Y-19246866D01*
X27992524Y-19259654D01*
X28008430Y-19274070D01*
X28022846Y-19289976D01*
X28035634Y-19307219D01*
X28046670Y-19325632D01*
X28055849Y-19345038D01*
X28063081Y-19365250D01*
X28068297Y-19386074D01*
X28071447Y-19407309D01*
X28072500Y-19428750D01*
X28072500Y-19941250D01*
X28071447Y-19962691D01*
X28068297Y-19983926D01*
X28063081Y-20004750D01*
X28055849Y-20024962D01*
X28046670Y-20044368D01*
X28035634Y-20062781D01*
X28022846Y-20080024D01*
X28008430Y-20095930D01*
X27992524Y-20110346D01*
X27975281Y-20123134D01*
X27956868Y-20134170D01*
X27937462Y-20143349D01*
X27917250Y-20150581D01*
X27896426Y-20155797D01*
X27875191Y-20158947D01*
X27853750Y-20160000D01*
X27416250Y-20160000D01*
X27394809Y-20158947D01*
X27373574Y-20155797D01*
X27352750Y-20150581D01*
X27332538Y-20143349D01*
X27313132Y-20134170D01*
X27294719Y-20123134D01*
X27277476Y-20110346D01*
X27261570Y-20095930D01*
X27247154Y-20080024D01*
X27234366Y-20062781D01*
X27223330Y-20044368D01*
X27214151Y-20024962D01*
X27206919Y-20004750D01*
X27201703Y-19983926D01*
X27198553Y-19962691D01*
X27197500Y-19941250D01*
X27197500Y-19428750D01*
X27198553Y-19407309D01*
X27201703Y-19386074D01*
X27206919Y-19365250D01*
X27214151Y-19345038D01*
X27223330Y-19325632D01*
X27234366Y-19307219D01*
X27247154Y-19289976D01*
X27261570Y-19274070D01*
X27277476Y-19259654D01*
X27294719Y-19246866D01*
X27313132Y-19235830D01*
X27332538Y-19226651D01*
X27352750Y-19219419D01*
X27373574Y-19214203D01*
X27394809Y-19211053D01*
X27416250Y-19210000D01*
X27853750Y-19210000D01*
X27875191Y-19211053D01*
X27875191Y-19211053D01*
G37*
D12*
X27635000Y-19685000D03*
D11*
G36*
X29450191Y-19211053D02*
G01*
X29471426Y-19214203D01*
X29492250Y-19219419D01*
X29512462Y-19226651D01*
X29531868Y-19235830D01*
X29550281Y-19246866D01*
X29567524Y-19259654D01*
X29583430Y-19274070D01*
X29597846Y-19289976D01*
X29610634Y-19307219D01*
X29621670Y-19325632D01*
X29630849Y-19345038D01*
X29638081Y-19365250D01*
X29643297Y-19386074D01*
X29646447Y-19407309D01*
X29647500Y-19428750D01*
X29647500Y-19941250D01*
X29646447Y-19962691D01*
X29643297Y-19983926D01*
X29638081Y-20004750D01*
X29630849Y-20024962D01*
X29621670Y-20044368D01*
X29610634Y-20062781D01*
X29597846Y-20080024D01*
X29583430Y-20095930D01*
X29567524Y-20110346D01*
X29550281Y-20123134D01*
X29531868Y-20134170D01*
X29512462Y-20143349D01*
X29492250Y-20150581D01*
X29471426Y-20155797D01*
X29450191Y-20158947D01*
X29428750Y-20160000D01*
X28991250Y-20160000D01*
X28969809Y-20158947D01*
X28948574Y-20155797D01*
X28927750Y-20150581D01*
X28907538Y-20143349D01*
X28888132Y-20134170D01*
X28869719Y-20123134D01*
X28852476Y-20110346D01*
X28836570Y-20095930D01*
X28822154Y-20080024D01*
X28809366Y-20062781D01*
X28798330Y-20044368D01*
X28789151Y-20024962D01*
X28781919Y-20004750D01*
X28776703Y-19983926D01*
X28773553Y-19962691D01*
X28772500Y-19941250D01*
X28772500Y-19428750D01*
X28773553Y-19407309D01*
X28776703Y-19386074D01*
X28781919Y-19365250D01*
X28789151Y-19345038D01*
X28798330Y-19325632D01*
X28809366Y-19307219D01*
X28822154Y-19289976D01*
X28836570Y-19274070D01*
X28852476Y-19259654D01*
X28869719Y-19246866D01*
X28888132Y-19235830D01*
X28907538Y-19226651D01*
X28927750Y-19219419D01*
X28948574Y-19214203D01*
X28969809Y-19211053D01*
X28991250Y-19210000D01*
X29428750Y-19210000D01*
X29450191Y-19211053D01*
X29450191Y-19211053D01*
G37*
D12*
X29210000Y-19685000D03*
D13*
X18415000Y-22860000D03*
X22415000Y-22860000D03*
D11*
G36*
X31025191Y-11591053D02*
G01*
X31046426Y-11594203D01*
X31067250Y-11599419D01*
X31087462Y-11606651D01*
X31106868Y-11615830D01*
X31125281Y-11626866D01*
X31142524Y-11639654D01*
X31158430Y-11654070D01*
X31172846Y-11669976D01*
X31185634Y-11687219D01*
X31196670Y-11705632D01*
X31205849Y-11725038D01*
X31213081Y-11745250D01*
X31218297Y-11766074D01*
X31221447Y-11787309D01*
X31222500Y-11808750D01*
X31222500Y-12321250D01*
X31221447Y-12342691D01*
X31218297Y-12363926D01*
X31213081Y-12384750D01*
X31205849Y-12404962D01*
X31196670Y-12424368D01*
X31185634Y-12442781D01*
X31172846Y-12460024D01*
X31158430Y-12475930D01*
X31142524Y-12490346D01*
X31125281Y-12503134D01*
X31106868Y-12514170D01*
X31087462Y-12523349D01*
X31067250Y-12530581D01*
X31046426Y-12535797D01*
X31025191Y-12538947D01*
X31003750Y-12540000D01*
X30566250Y-12540000D01*
X30544809Y-12538947D01*
X30523574Y-12535797D01*
X30502750Y-12530581D01*
X30482538Y-12523349D01*
X30463132Y-12514170D01*
X30444719Y-12503134D01*
X30427476Y-12490346D01*
X30411570Y-12475930D01*
X30397154Y-12460024D01*
X30384366Y-12442781D01*
X30373330Y-12424368D01*
X30364151Y-12404962D01*
X30356919Y-12384750D01*
X30351703Y-12363926D01*
X30348553Y-12342691D01*
X30347500Y-12321250D01*
X30347500Y-11808750D01*
X30348553Y-11787309D01*
X30351703Y-11766074D01*
X30356919Y-11745250D01*
X30364151Y-11725038D01*
X30373330Y-11705632D01*
X30384366Y-11687219D01*
X30397154Y-11669976D01*
X30411570Y-11654070D01*
X30427476Y-11639654D01*
X30444719Y-11626866D01*
X30463132Y-11615830D01*
X30482538Y-11606651D01*
X30502750Y-11599419D01*
X30523574Y-11594203D01*
X30544809Y-11591053D01*
X30566250Y-11590000D01*
X31003750Y-11590000D01*
X31025191Y-11591053D01*
X31025191Y-11591053D01*
G37*
D12*
X30785000Y-12065000D03*
D11*
G36*
X29450191Y-11591053D02*
G01*
X29471426Y-11594203D01*
X29492250Y-11599419D01*
X29512462Y-11606651D01*
X29531868Y-11615830D01*
X29550281Y-11626866D01*
X29567524Y-11639654D01*
X29583430Y-11654070D01*
X29597846Y-11669976D01*
X29610634Y-11687219D01*
X29621670Y-11705632D01*
X29630849Y-11725038D01*
X29638081Y-11745250D01*
X29643297Y-11766074D01*
X29646447Y-11787309D01*
X29647500Y-11808750D01*
X29647500Y-12321250D01*
X29646447Y-12342691D01*
X29643297Y-12363926D01*
X29638081Y-12384750D01*
X29630849Y-12404962D01*
X29621670Y-12424368D01*
X29610634Y-12442781D01*
X29597846Y-12460024D01*
X29583430Y-12475930D01*
X29567524Y-12490346D01*
X29550281Y-12503134D01*
X29531868Y-12514170D01*
X29512462Y-12523349D01*
X29492250Y-12530581D01*
X29471426Y-12535797D01*
X29450191Y-12538947D01*
X29428750Y-12540000D01*
X28991250Y-12540000D01*
X28969809Y-12538947D01*
X28948574Y-12535797D01*
X28927750Y-12530581D01*
X28907538Y-12523349D01*
X28888132Y-12514170D01*
X28869719Y-12503134D01*
X28852476Y-12490346D01*
X28836570Y-12475930D01*
X28822154Y-12460024D01*
X28809366Y-12442781D01*
X28798330Y-12424368D01*
X28789151Y-12404962D01*
X28781919Y-12384750D01*
X28776703Y-12363926D01*
X28773553Y-12342691D01*
X28772500Y-12321250D01*
X28772500Y-11808750D01*
X28773553Y-11787309D01*
X28776703Y-11766074D01*
X28781919Y-11745250D01*
X28789151Y-11725038D01*
X28798330Y-11705632D01*
X28809366Y-11687219D01*
X28822154Y-11669976D01*
X28836570Y-11654070D01*
X28852476Y-11639654D01*
X28869719Y-11626866D01*
X28888132Y-11615830D01*
X28907538Y-11606651D01*
X28927750Y-11599419D01*
X28948574Y-11594203D01*
X28969809Y-11591053D01*
X28991250Y-11590000D01*
X29428750Y-11590000D01*
X29450191Y-11591053D01*
X29450191Y-11591053D01*
G37*
D12*
X29210000Y-12065000D03*
D14*
X25085000Y-23860000D03*
X26985000Y-23860000D03*
X26035000Y-21860000D03*
D11*
G36*
X32662691Y-14651053D02*
G01*
X32683926Y-14654203D01*
X32704750Y-14659419D01*
X32724962Y-14666651D01*
X32744368Y-14675830D01*
X32762781Y-14686866D01*
X32780024Y-14699654D01*
X32795930Y-14714070D01*
X32810346Y-14729976D01*
X32823134Y-14747219D01*
X32834170Y-14765632D01*
X32843349Y-14785038D01*
X32850581Y-14805250D01*
X32855797Y-14826074D01*
X32858947Y-14847309D01*
X32860000Y-14868750D01*
X32860000Y-15306250D01*
X32858947Y-15327691D01*
X32855797Y-15348926D01*
X32850581Y-15369750D01*
X32843349Y-15389962D01*
X32834170Y-15409368D01*
X32823134Y-15427781D01*
X32810346Y-15445024D01*
X32795930Y-15460930D01*
X32780024Y-15475346D01*
X32762781Y-15488134D01*
X32744368Y-15499170D01*
X32724962Y-15508349D01*
X32704750Y-15515581D01*
X32683926Y-15520797D01*
X32662691Y-15523947D01*
X32641250Y-15525000D01*
X32128750Y-15525000D01*
X32107309Y-15523947D01*
X32086074Y-15520797D01*
X32065250Y-15515581D01*
X32045038Y-15508349D01*
X32025632Y-15499170D01*
X32007219Y-15488134D01*
X31989976Y-15475346D01*
X31974070Y-15460930D01*
X31959654Y-15445024D01*
X31946866Y-15427781D01*
X31935830Y-15409368D01*
X31926651Y-15389962D01*
X31919419Y-15369750D01*
X31914203Y-15348926D01*
X31911053Y-15327691D01*
X31910000Y-15306250D01*
X31910000Y-14868750D01*
X31911053Y-14847309D01*
X31914203Y-14826074D01*
X31919419Y-14805250D01*
X31926651Y-14785038D01*
X31935830Y-14765632D01*
X31946866Y-14747219D01*
X31959654Y-14729976D01*
X31974070Y-14714070D01*
X31989976Y-14699654D01*
X32007219Y-14686866D01*
X32025632Y-14675830D01*
X32045038Y-14666651D01*
X32065250Y-14659419D01*
X32086074Y-14654203D01*
X32107309Y-14651053D01*
X32128750Y-14650000D01*
X32641250Y-14650000D01*
X32662691Y-14651053D01*
X32662691Y-14651053D01*
G37*
D12*
X32385000Y-15087500D03*
D11*
G36*
X32662691Y-16226053D02*
G01*
X32683926Y-16229203D01*
X32704750Y-16234419D01*
X32724962Y-16241651D01*
X32744368Y-16250830D01*
X32762781Y-16261866D01*
X32780024Y-16274654D01*
X32795930Y-16289070D01*
X32810346Y-16304976D01*
X32823134Y-16322219D01*
X32834170Y-16340632D01*
X32843349Y-16360038D01*
X32850581Y-16380250D01*
X32855797Y-16401074D01*
X32858947Y-16422309D01*
X32860000Y-16443750D01*
X32860000Y-16881250D01*
X32858947Y-16902691D01*
X32855797Y-16923926D01*
X32850581Y-16944750D01*
X32843349Y-16964962D01*
X32834170Y-16984368D01*
X32823134Y-17002781D01*
X32810346Y-17020024D01*
X32795930Y-17035930D01*
X32780024Y-17050346D01*
X32762781Y-17063134D01*
X32744368Y-17074170D01*
X32724962Y-17083349D01*
X32704750Y-17090581D01*
X32683926Y-17095797D01*
X32662691Y-17098947D01*
X32641250Y-17100000D01*
X32128750Y-17100000D01*
X32107309Y-17098947D01*
X32086074Y-17095797D01*
X32065250Y-17090581D01*
X32045038Y-17083349D01*
X32025632Y-17074170D01*
X32007219Y-17063134D01*
X31989976Y-17050346D01*
X31974070Y-17035930D01*
X31959654Y-17020024D01*
X31946866Y-17002781D01*
X31935830Y-16984368D01*
X31926651Y-16964962D01*
X31919419Y-16944750D01*
X31914203Y-16923926D01*
X31911053Y-16902691D01*
X31910000Y-16881250D01*
X31910000Y-16443750D01*
X31911053Y-16422309D01*
X31914203Y-16401074D01*
X31919419Y-16380250D01*
X31926651Y-16360038D01*
X31935830Y-16340632D01*
X31946866Y-16322219D01*
X31959654Y-16304976D01*
X31974070Y-16289070D01*
X31989976Y-16274654D01*
X32007219Y-16261866D01*
X32025632Y-16250830D01*
X32045038Y-16241651D01*
X32065250Y-16234419D01*
X32086074Y-16229203D01*
X32107309Y-16226053D01*
X32128750Y-16225000D01*
X32641250Y-16225000D01*
X32662691Y-16226053D01*
X32662691Y-16226053D01*
G37*
D12*
X32385000Y-16662500D03*
D11*
G36*
X35837691Y-13838553D02*
G01*
X35858926Y-13841703D01*
X35879750Y-13846919D01*
X35899962Y-13854151D01*
X35919368Y-13863330D01*
X35937781Y-13874366D01*
X35955024Y-13887154D01*
X35970930Y-13901570D01*
X35985346Y-13917476D01*
X35998134Y-13934719D01*
X36009170Y-13953132D01*
X36018349Y-13972538D01*
X36025581Y-13992750D01*
X36030797Y-14013574D01*
X36033947Y-14034809D01*
X36035000Y-14056250D01*
X36035000Y-14493750D01*
X36033947Y-14515191D01*
X36030797Y-14536426D01*
X36025581Y-14557250D01*
X36018349Y-14577462D01*
X36009170Y-14596868D01*
X35998134Y-14615281D01*
X35985346Y-14632524D01*
X35970930Y-14648430D01*
X35955024Y-14662846D01*
X35937781Y-14675634D01*
X35919368Y-14686670D01*
X35899962Y-14695849D01*
X35879750Y-14703081D01*
X35858926Y-14708297D01*
X35837691Y-14711447D01*
X35816250Y-14712500D01*
X35303750Y-14712500D01*
X35282309Y-14711447D01*
X35261074Y-14708297D01*
X35240250Y-14703081D01*
X35220038Y-14695849D01*
X35200632Y-14686670D01*
X35182219Y-14675634D01*
X35164976Y-14662846D01*
X35149070Y-14648430D01*
X35134654Y-14632524D01*
X35121866Y-14615281D01*
X35110830Y-14596868D01*
X35101651Y-14577462D01*
X35094419Y-14557250D01*
X35089203Y-14536426D01*
X35086053Y-14515191D01*
X35085000Y-14493750D01*
X35085000Y-14056250D01*
X35086053Y-14034809D01*
X35089203Y-14013574D01*
X35094419Y-13992750D01*
X35101651Y-13972538D01*
X35110830Y-13953132D01*
X35121866Y-13934719D01*
X35134654Y-13917476D01*
X35149070Y-13901570D01*
X35164976Y-13887154D01*
X35182219Y-13874366D01*
X35200632Y-13863330D01*
X35220038Y-13854151D01*
X35240250Y-13846919D01*
X35261074Y-13841703D01*
X35282309Y-13838553D01*
X35303750Y-13837500D01*
X35816250Y-13837500D01*
X35837691Y-13838553D01*
X35837691Y-13838553D01*
G37*
D12*
X35560000Y-14275000D03*
D11*
G36*
X35837691Y-12263553D02*
G01*
X35858926Y-12266703D01*
X35879750Y-12271919D01*
X35899962Y-12279151D01*
X35919368Y-12288330D01*
X35937781Y-12299366D01*
X35955024Y-12312154D01*
X35970930Y-12326570D01*
X35985346Y-12342476D01*
X35998134Y-12359719D01*
X36009170Y-12378132D01*
X36018349Y-12397538D01*
X36025581Y-12417750D01*
X36030797Y-12438574D01*
X36033947Y-12459809D01*
X36035000Y-12481250D01*
X36035000Y-12918750D01*
X36033947Y-12940191D01*
X36030797Y-12961426D01*
X36025581Y-12982250D01*
X36018349Y-13002462D01*
X36009170Y-13021868D01*
X35998134Y-13040281D01*
X35985346Y-13057524D01*
X35970930Y-13073430D01*
X35955024Y-13087846D01*
X35937781Y-13100634D01*
X35919368Y-13111670D01*
X35899962Y-13120849D01*
X35879750Y-13128081D01*
X35858926Y-13133297D01*
X35837691Y-13136447D01*
X35816250Y-13137500D01*
X35303750Y-13137500D01*
X35282309Y-13136447D01*
X35261074Y-13133297D01*
X35240250Y-13128081D01*
X35220038Y-13120849D01*
X35200632Y-13111670D01*
X35182219Y-13100634D01*
X35164976Y-13087846D01*
X35149070Y-13073430D01*
X35134654Y-13057524D01*
X35121866Y-13040281D01*
X35110830Y-13021868D01*
X35101651Y-13002462D01*
X35094419Y-12982250D01*
X35089203Y-12961426D01*
X35086053Y-12940191D01*
X35085000Y-12918750D01*
X35085000Y-12481250D01*
X35086053Y-12459809D01*
X35089203Y-12438574D01*
X35094419Y-12417750D01*
X35101651Y-12397538D01*
X35110830Y-12378132D01*
X35121866Y-12359719D01*
X35134654Y-12342476D01*
X35149070Y-12326570D01*
X35164976Y-12312154D01*
X35182219Y-12299366D01*
X35200632Y-12288330D01*
X35220038Y-12279151D01*
X35240250Y-12271919D01*
X35261074Y-12266703D01*
X35282309Y-12263553D01*
X35303750Y-12262500D01*
X35816250Y-12262500D01*
X35837691Y-12263553D01*
X35837691Y-12263553D01*
G37*
D12*
X35560000Y-12700000D03*
D11*
G36*
X35837691Y-15438553D02*
G01*
X35858926Y-15441703D01*
X35879750Y-15446919D01*
X35899962Y-15454151D01*
X35919368Y-15463330D01*
X35937781Y-15474366D01*
X35955024Y-15487154D01*
X35970930Y-15501570D01*
X35985346Y-15517476D01*
X35998134Y-15534719D01*
X36009170Y-15553132D01*
X36018349Y-15572538D01*
X36025581Y-15592750D01*
X36030797Y-15613574D01*
X36033947Y-15634809D01*
X36035000Y-15656250D01*
X36035000Y-16093750D01*
X36033947Y-16115191D01*
X36030797Y-16136426D01*
X36025581Y-16157250D01*
X36018349Y-16177462D01*
X36009170Y-16196868D01*
X35998134Y-16215281D01*
X35985346Y-16232524D01*
X35970930Y-16248430D01*
X35955024Y-16262846D01*
X35937781Y-16275634D01*
X35919368Y-16286670D01*
X35899962Y-16295849D01*
X35879750Y-16303081D01*
X35858926Y-16308297D01*
X35837691Y-16311447D01*
X35816250Y-16312500D01*
X35303750Y-16312500D01*
X35282309Y-16311447D01*
X35261074Y-16308297D01*
X35240250Y-16303081D01*
X35220038Y-16295849D01*
X35200632Y-16286670D01*
X35182219Y-16275634D01*
X35164976Y-16262846D01*
X35149070Y-16248430D01*
X35134654Y-16232524D01*
X35121866Y-16215281D01*
X35110830Y-16196868D01*
X35101651Y-16177462D01*
X35094419Y-16157250D01*
X35089203Y-16136426D01*
X35086053Y-16115191D01*
X35085000Y-16093750D01*
X35085000Y-15656250D01*
X35086053Y-15634809D01*
X35089203Y-15613574D01*
X35094419Y-15592750D01*
X35101651Y-15572538D01*
X35110830Y-15553132D01*
X35121866Y-15534719D01*
X35134654Y-15517476D01*
X35149070Y-15501570D01*
X35164976Y-15487154D01*
X35182219Y-15474366D01*
X35200632Y-15463330D01*
X35220038Y-15454151D01*
X35240250Y-15446919D01*
X35261074Y-15441703D01*
X35282309Y-15438553D01*
X35303750Y-15437500D01*
X35816250Y-15437500D01*
X35837691Y-15438553D01*
X35837691Y-15438553D01*
G37*
D12*
X35560000Y-15875000D03*
D11*
G36*
X35837691Y-17013553D02*
G01*
X35858926Y-17016703D01*
X35879750Y-17021919D01*
X35899962Y-17029151D01*
X35919368Y-17038330D01*
X35937781Y-17049366D01*
X35955024Y-17062154D01*
X35970930Y-17076570D01*
X35985346Y-17092476D01*
X35998134Y-17109719D01*
X36009170Y-17128132D01*
X36018349Y-17147538D01*
X36025581Y-17167750D01*
X36030797Y-17188574D01*
X36033947Y-17209809D01*
X36035000Y-17231250D01*
X36035000Y-17668750D01*
X36033947Y-17690191D01*
X36030797Y-17711426D01*
X36025581Y-17732250D01*
X36018349Y-17752462D01*
X36009170Y-17771868D01*
X35998134Y-17790281D01*
X35985346Y-17807524D01*
X35970930Y-17823430D01*
X35955024Y-17837846D01*
X35937781Y-17850634D01*
X35919368Y-17861670D01*
X35899962Y-17870849D01*
X35879750Y-17878081D01*
X35858926Y-17883297D01*
X35837691Y-17886447D01*
X35816250Y-17887500D01*
X35303750Y-17887500D01*
X35282309Y-17886447D01*
X35261074Y-17883297D01*
X35240250Y-17878081D01*
X35220038Y-17870849D01*
X35200632Y-17861670D01*
X35182219Y-17850634D01*
X35164976Y-17837846D01*
X35149070Y-17823430D01*
X35134654Y-17807524D01*
X35121866Y-17790281D01*
X35110830Y-17771868D01*
X35101651Y-17752462D01*
X35094419Y-17732250D01*
X35089203Y-17711426D01*
X35086053Y-17690191D01*
X35085000Y-17668750D01*
X35085000Y-17231250D01*
X35086053Y-17209809D01*
X35089203Y-17188574D01*
X35094419Y-17167750D01*
X35101651Y-17147538D01*
X35110830Y-17128132D01*
X35121866Y-17109719D01*
X35134654Y-17092476D01*
X35149070Y-17076570D01*
X35164976Y-17062154D01*
X35182219Y-17049366D01*
X35200632Y-17038330D01*
X35220038Y-17029151D01*
X35240250Y-17021919D01*
X35261074Y-17016703D01*
X35282309Y-17013553D01*
X35303750Y-17012500D01*
X35816250Y-17012500D01*
X35837691Y-17013553D01*
X35837691Y-17013553D01*
G37*
D12*
X35560000Y-17450000D03*
D15*
X41874000Y-21751000D03*
X40374000Y-21751000D03*
X37374000Y-21751000D03*
D14*
X35824000Y-24976000D03*
X43424000Y-24976000D03*
X35824000Y-22776000D03*
X43424000Y-22776000D03*
D16*
X30185000Y-14325000D03*
X29535000Y-14325000D03*
X28885000Y-14325000D03*
X28235000Y-14325000D03*
X28235000Y-17425000D03*
X28885000Y-17425000D03*
X29535000Y-17425000D03*
X30185000Y-17425000D03*
D17*
X28610000Y-15487500D03*
X28610000Y-16262500D03*
X29810000Y-16262500D03*
X29810000Y-15487500D03*
M02*
