G04 #@! TF.GenerationSoftware,KiCad,Pcbnew,(5.0.2)-1*
G04 #@! TF.CreationDate,2019-05-05T23:25:35-07:00*
G04 #@! TF.ProjectId,pic_beeper,7069635f-6265-4657-9065-722e6b696361,rev?*
G04 #@! TF.SameCoordinates,Original*
G04 #@! TF.FileFunction,Copper,L1,Top*
G04 #@! TF.FilePolarity,Positive*
%FSLAX46Y46*%
G04 Gerber Fmt 4.6, Leading zero omitted, Abs format (unit mm)*
G04 Created by KiCad (PCBNEW (5.0.2)-1) date 5/5/2019 11:25:35 PM*
%MOMM*%
%LPD*%
G01*
G04 APERTURE LIST*
G04 #@! TA.AperFunction,ComponentPad*
%ADD10C,1.524000*%
G04 #@! TD*
G04 #@! TA.AperFunction,ComponentPad*
%ADD11R,2.000000X2.000000*%
G04 #@! TD*
G04 #@! TA.AperFunction,ComponentPad*
%ADD12C,2.000000*%
G04 #@! TD*
G04 #@! TA.AperFunction,Conductor*
%ADD13C,0.100000*%
G04 #@! TD*
G04 #@! TA.AperFunction,SMDPad,CuDef*
%ADD14C,0.875000*%
G04 #@! TD*
G04 #@! TA.AperFunction,ComponentPad*
%ADD15C,7.000000*%
G04 #@! TD*
G04 #@! TA.AperFunction,ComponentPad*
%ADD16R,2.400000X1.600000*%
G04 #@! TD*
G04 #@! TA.AperFunction,ComponentPad*
%ADD17O,2.400000X1.600000*%
G04 #@! TD*
G04 #@! TA.AperFunction,ComponentPad*
%ADD18R,1.700000X1.700000*%
G04 #@! TD*
G04 #@! TA.AperFunction,ComponentPad*
%ADD19O,1.700000X1.700000*%
G04 #@! TD*
G04 #@! TA.AperFunction,Conductor*
%ADD20C,0.400000*%
G04 #@! TD*
G04 #@! TA.AperFunction,Conductor*
%ADD21C,0.254000*%
G04 #@! TD*
G04 APERTURE END LIST*
D10*
G04 #@! TO.P,BT1,2*
G04 #@! TO.N,-BATT*
X24605000Y-13335000D03*
G04 #@! TO.P,BT1,1*
G04 #@! TO.N,Net-(BT1-Pad1)*
X4605000Y-13335000D03*
G04 #@! TD*
D11*
G04 #@! TO.P,BZ4,1*
G04 #@! TO.N,/BUZZER*
X6350000Y-30480000D03*
D12*
G04 #@! TO.P,BZ4,2*
G04 #@! TO.N,-BATT*
X6350000Y-22880000D03*
G04 #@! TD*
D13*
G04 #@! TO.N,+BATT*
G04 #@! TO.C,C1*
G36*
X17694303Y-36817665D02*
X17715538Y-36820815D01*
X17736362Y-36826031D01*
X17756574Y-36833263D01*
X17775980Y-36842442D01*
X17794393Y-36853478D01*
X17811636Y-36866266D01*
X17827542Y-36880682D01*
X17841958Y-36896588D01*
X17854746Y-36913831D01*
X17865782Y-36932244D01*
X17874961Y-36951650D01*
X17882193Y-36971862D01*
X17887409Y-36992686D01*
X17890559Y-37013921D01*
X17891612Y-37035362D01*
X17891612Y-37547862D01*
X17890559Y-37569303D01*
X17887409Y-37590538D01*
X17882193Y-37611362D01*
X17874961Y-37631574D01*
X17865782Y-37650980D01*
X17854746Y-37669393D01*
X17841958Y-37686636D01*
X17827542Y-37702542D01*
X17811636Y-37716958D01*
X17794393Y-37729746D01*
X17775980Y-37740782D01*
X17756574Y-37749961D01*
X17736362Y-37757193D01*
X17715538Y-37762409D01*
X17694303Y-37765559D01*
X17672862Y-37766612D01*
X17235362Y-37766612D01*
X17213921Y-37765559D01*
X17192686Y-37762409D01*
X17171862Y-37757193D01*
X17151650Y-37749961D01*
X17132244Y-37740782D01*
X17113831Y-37729746D01*
X17096588Y-37716958D01*
X17080682Y-37702542D01*
X17066266Y-37686636D01*
X17053478Y-37669393D01*
X17042442Y-37650980D01*
X17033263Y-37631574D01*
X17026031Y-37611362D01*
X17020815Y-37590538D01*
X17017665Y-37569303D01*
X17016612Y-37547862D01*
X17016612Y-37035362D01*
X17017665Y-37013921D01*
X17020815Y-36992686D01*
X17026031Y-36971862D01*
X17033263Y-36951650D01*
X17042442Y-36932244D01*
X17053478Y-36913831D01*
X17066266Y-36896588D01*
X17080682Y-36880682D01*
X17096588Y-36866266D01*
X17113831Y-36853478D01*
X17132244Y-36842442D01*
X17151650Y-36833263D01*
X17171862Y-36826031D01*
X17192686Y-36820815D01*
X17213921Y-36817665D01*
X17235362Y-36816612D01*
X17672862Y-36816612D01*
X17694303Y-36817665D01*
X17694303Y-36817665D01*
G37*
D14*
G04 #@! TD*
G04 #@! TO.P,C1,1*
G04 #@! TO.N,+BATT*
X17454112Y-37291612D03*
D13*
G04 #@! TO.N,-BATT*
G04 #@! TO.C,C1*
G36*
X16119303Y-36817665D02*
X16140538Y-36820815D01*
X16161362Y-36826031D01*
X16181574Y-36833263D01*
X16200980Y-36842442D01*
X16219393Y-36853478D01*
X16236636Y-36866266D01*
X16252542Y-36880682D01*
X16266958Y-36896588D01*
X16279746Y-36913831D01*
X16290782Y-36932244D01*
X16299961Y-36951650D01*
X16307193Y-36971862D01*
X16312409Y-36992686D01*
X16315559Y-37013921D01*
X16316612Y-37035362D01*
X16316612Y-37547862D01*
X16315559Y-37569303D01*
X16312409Y-37590538D01*
X16307193Y-37611362D01*
X16299961Y-37631574D01*
X16290782Y-37650980D01*
X16279746Y-37669393D01*
X16266958Y-37686636D01*
X16252542Y-37702542D01*
X16236636Y-37716958D01*
X16219393Y-37729746D01*
X16200980Y-37740782D01*
X16181574Y-37749961D01*
X16161362Y-37757193D01*
X16140538Y-37762409D01*
X16119303Y-37765559D01*
X16097862Y-37766612D01*
X15660362Y-37766612D01*
X15638921Y-37765559D01*
X15617686Y-37762409D01*
X15596862Y-37757193D01*
X15576650Y-37749961D01*
X15557244Y-37740782D01*
X15538831Y-37729746D01*
X15521588Y-37716958D01*
X15505682Y-37702542D01*
X15491266Y-37686636D01*
X15478478Y-37669393D01*
X15467442Y-37650980D01*
X15458263Y-37631574D01*
X15451031Y-37611362D01*
X15445815Y-37590538D01*
X15442665Y-37569303D01*
X15441612Y-37547862D01*
X15441612Y-37035362D01*
X15442665Y-37013921D01*
X15445815Y-36992686D01*
X15451031Y-36971862D01*
X15458263Y-36951650D01*
X15467442Y-36932244D01*
X15478478Y-36913831D01*
X15491266Y-36896588D01*
X15505682Y-36880682D01*
X15521588Y-36866266D01*
X15538831Y-36853478D01*
X15557244Y-36842442D01*
X15576650Y-36833263D01*
X15596862Y-36826031D01*
X15617686Y-36820815D01*
X15638921Y-36817665D01*
X15660362Y-36816612D01*
X16097862Y-36816612D01*
X16119303Y-36817665D01*
X16119303Y-36817665D01*
G37*
D14*
G04 #@! TD*
G04 #@! TO.P,C1,2*
G04 #@! TO.N,-BATT*
X15879112Y-37291612D03*
D15*
G04 #@! TO.P,H1,1*
G04 #@! TO.N,-BATT*
X5080000Y-5080000D03*
G04 #@! TD*
D10*
G04 #@! TO.P,SW1,1*
G04 #@! TO.N,+BATT*
X10160000Y-36830000D03*
G04 #@! TO.P,SW1,2*
G04 #@! TO.N,Net-(BT1-Pad1)*
X7620000Y-36830000D03*
G04 #@! TO.P,SW1,3*
G04 #@! TO.N,Net-(SW1-Pad3)*
X5080000Y-36830000D03*
G04 #@! TD*
D16*
G04 #@! TO.P,U1,1*
G04 #@! TO.N,+BATT*
X16510000Y-34925000D03*
D17*
G04 #@! TO.P,U1,5*
G04 #@! TO.N,/BUZZER*
X24130000Y-27305000D03*
G04 #@! TO.P,U1,2*
G04 #@! TO.N,Net-(U1-Pad2)*
X16510000Y-32385000D03*
G04 #@! TO.P,U1,6*
G04 #@! TO.N,/ICSPCLK*
X24130000Y-29845000D03*
G04 #@! TO.P,U1,3*
G04 #@! TO.N,/VPP*
X16510000Y-29845000D03*
G04 #@! TO.P,U1,7*
G04 #@! TO.N,/ICSPDAT*
X24130000Y-32385000D03*
G04 #@! TO.P,U1,4*
G04 #@! TO.N,Net-(U1-Pad4)*
X16510000Y-27305000D03*
G04 #@! TO.P,U1,8*
G04 #@! TO.N,-BATT*
X24130000Y-34925000D03*
G04 #@! TD*
D18*
G04 #@! TO.P,J1,1*
G04 #@! TO.N,/VPP*
X29210000Y-37465000D03*
D19*
G04 #@! TO.P,J1,2*
G04 #@! TO.N,+BATT*
X29210000Y-34925000D03*
G04 #@! TO.P,J1,3*
G04 #@! TO.N,-BATT*
X29210000Y-32385000D03*
G04 #@! TO.P,J1,4*
G04 #@! TO.N,/ICSPDAT*
X29210000Y-29845000D03*
G04 #@! TO.P,J1,5*
G04 #@! TO.N,/ICSPCLK*
X29210000Y-27305000D03*
G04 #@! TO.P,J1,6*
G04 #@! TO.N,Net-(J1-Pad6)*
X29210000Y-24765000D03*
G04 #@! TD*
D20*
G04 #@! TO.N,Net-(BT1-Pad1)*
X4605000Y-33815000D02*
X7620000Y-36830000D01*
X4605000Y-13335000D02*
X4605000Y-33815000D01*
G04 #@! TO.N,-BATT*
X26670000Y-34925000D02*
X29210000Y-32385000D01*
X24130000Y-34925000D02*
X26670000Y-34925000D01*
G04 #@! TO.N,/BUZZER*
X22530000Y-27305000D02*
X24130000Y-27305000D01*
X21329990Y-26104990D02*
X22530000Y-27305000D01*
X9325010Y-26104990D02*
X21329990Y-26104990D01*
X6350000Y-29080000D02*
X9325010Y-26104990D01*
X6350000Y-30480000D02*
X6350000Y-29080000D01*
G04 #@! TO.N,+BATT*
X16510000Y-36347500D02*
X16992500Y-36830000D01*
X16510000Y-34925000D02*
X16510000Y-36347500D01*
X17454112Y-37291612D02*
X16992500Y-36830000D01*
X18877501Y-38715001D02*
X17454112Y-37291612D01*
X30380001Y-38715001D02*
X18877501Y-38715001D01*
X30460001Y-38635001D02*
X30380001Y-38715001D01*
X30460001Y-36175001D02*
X30460001Y-38635001D01*
X29210000Y-34925000D02*
X30460001Y-36175001D01*
X16110000Y-34925000D02*
X16510000Y-34925000D01*
X14910000Y-36125000D02*
X16110000Y-34925000D01*
X14910000Y-36525000D02*
X14910000Y-36125000D01*
X14605000Y-36830000D02*
X14910000Y-36525000D01*
X10160000Y-36830000D02*
X14605000Y-36830000D01*
G04 #@! TO.N,/VPP*
X27960000Y-37465000D02*
X29210000Y-37465000D01*
X24530000Y-37465000D02*
X27960000Y-37465000D01*
X16910000Y-29845000D02*
X24530000Y-37465000D01*
X16510000Y-29845000D02*
X16910000Y-29845000D01*
G04 #@! TO.N,/ICSPDAT*
X26670000Y-32385000D02*
X29210000Y-29845000D01*
X24130000Y-32385000D02*
X26670000Y-32385000D01*
G04 #@! TO.N,/ICSPCLK*
X26670000Y-29845000D02*
X29210000Y-27305000D01*
X24130000Y-29845000D02*
X26670000Y-29845000D01*
G04 #@! TD*
D21*
G04 #@! TO.N,-BATT*
G36*
X27790951Y-719729D02*
X27874663Y-732090D01*
X28708914Y-806545D01*
X29453529Y-1010248D01*
X30150299Y-1342592D01*
X30777204Y-1793068D01*
X31314426Y-2347438D01*
X31744993Y-2988188D01*
X32055285Y-3695054D01*
X32236855Y-4451349D01*
X32286974Y-5133830D01*
X32308091Y-5262787D01*
X32310001Y-5268181D01*
X32310000Y-35378727D01*
X32300271Y-35410951D01*
X32287910Y-35494662D01*
X32213455Y-36328914D01*
X32009752Y-37073528D01*
X31677409Y-37770297D01*
X31295001Y-38302476D01*
X31295001Y-36257233D01*
X31311358Y-36175000D01*
X31295001Y-36092765D01*
X31295001Y-36092764D01*
X31246553Y-35849200D01*
X31204711Y-35786579D01*
X31108585Y-35642716D01*
X31108584Y-35642715D01*
X31062002Y-35573000D01*
X30992287Y-35526418D01*
X30668807Y-35202938D01*
X30724092Y-34925000D01*
X30608839Y-34345582D01*
X30280625Y-33854375D01*
X29961522Y-33641157D01*
X30091358Y-33580183D01*
X30481645Y-33151924D01*
X30651476Y-32741890D01*
X30530155Y-32512000D01*
X29337000Y-32512000D01*
X29337000Y-32532000D01*
X29083000Y-32532000D01*
X29083000Y-32512000D01*
X29063000Y-32512000D01*
X29063000Y-32258000D01*
X29083000Y-32258000D01*
X29083000Y-32238000D01*
X29337000Y-32238000D01*
X29337000Y-32258000D01*
X30530155Y-32258000D01*
X30651476Y-32028110D01*
X30481645Y-31618076D01*
X30091358Y-31189817D01*
X29961522Y-31128843D01*
X30280625Y-30915625D01*
X30608839Y-30424418D01*
X30724092Y-29845000D01*
X30608839Y-29265582D01*
X30280625Y-28774375D01*
X29982239Y-28575000D01*
X30280625Y-28375625D01*
X30608839Y-27884418D01*
X30724092Y-27305000D01*
X30608839Y-26725582D01*
X30280625Y-26234375D01*
X29982239Y-26035000D01*
X30280625Y-25835625D01*
X30608839Y-25344418D01*
X30724092Y-24765000D01*
X30608839Y-24185582D01*
X30280625Y-23694375D01*
X29789418Y-23366161D01*
X29356256Y-23280000D01*
X29063744Y-23280000D01*
X28630582Y-23366161D01*
X28139375Y-23694375D01*
X27811161Y-24185582D01*
X27695908Y-24765000D01*
X27811161Y-25344418D01*
X28139375Y-25835625D01*
X28437761Y-26035000D01*
X28139375Y-26234375D01*
X27811161Y-26725582D01*
X27695908Y-27305000D01*
X27751193Y-27582938D01*
X26324133Y-29010000D01*
X25697930Y-29010000D01*
X25564577Y-28810423D01*
X25212242Y-28575000D01*
X25564577Y-28339577D01*
X25881740Y-27864909D01*
X25993113Y-27305000D01*
X25881740Y-26745091D01*
X25564577Y-26270423D01*
X25089909Y-25953260D01*
X24671333Y-25870000D01*
X23588667Y-25870000D01*
X23170091Y-25953260D01*
X22695423Y-26270423D01*
X22687760Y-26281892D01*
X21978577Y-25572710D01*
X21931991Y-25502989D01*
X21655791Y-25318438D01*
X21412227Y-25269990D01*
X21412223Y-25269990D01*
X21329990Y-25253633D01*
X21247757Y-25269990D01*
X9407242Y-25269990D01*
X9325009Y-25253633D01*
X9242776Y-25269990D01*
X9242773Y-25269990D01*
X8999209Y-25318438D01*
X8723009Y-25502989D01*
X8676427Y-25572704D01*
X5817718Y-28431415D01*
X5748000Y-28477999D01*
X5701416Y-28547717D01*
X5563448Y-28754200D01*
X5547861Y-28832560D01*
X5440000Y-28832560D01*
X5440000Y-24202731D01*
X5475736Y-24299387D01*
X6085461Y-24525908D01*
X6735460Y-24501856D01*
X7224264Y-24299387D01*
X7322927Y-24032532D01*
X6350000Y-23059605D01*
X6335858Y-23073748D01*
X6156253Y-22894143D01*
X6170395Y-22880000D01*
X6529605Y-22880000D01*
X7502532Y-23852927D01*
X7769387Y-23754264D01*
X7995908Y-23144539D01*
X7971856Y-22494540D01*
X7769387Y-22005736D01*
X7502532Y-21907073D01*
X6529605Y-22880000D01*
X6170395Y-22880000D01*
X6156253Y-22865858D01*
X6335858Y-22686253D01*
X6350000Y-22700395D01*
X7322927Y-21727468D01*
X7224264Y-21460613D01*
X6614539Y-21234092D01*
X5964540Y-21258144D01*
X5475736Y-21460613D01*
X5440000Y-21557269D01*
X5440000Y-14475657D01*
X5600444Y-14315213D01*
X23804392Y-14315213D01*
X23873857Y-14557397D01*
X24397302Y-14744144D01*
X24952368Y-14716362D01*
X25336143Y-14557397D01*
X25405608Y-14315213D01*
X24605000Y-13514605D01*
X23804392Y-14315213D01*
X5600444Y-14315213D01*
X5789320Y-14126337D01*
X6002000Y-13612881D01*
X6002000Y-13127302D01*
X23195856Y-13127302D01*
X23223638Y-13682368D01*
X23382603Y-14066143D01*
X23624787Y-14135608D01*
X24425395Y-13335000D01*
X24784605Y-13335000D01*
X25585213Y-14135608D01*
X25827397Y-14066143D01*
X26014144Y-13542698D01*
X25986362Y-12987632D01*
X25827397Y-12603857D01*
X25585213Y-12534392D01*
X24784605Y-13335000D01*
X24425395Y-13335000D01*
X23624787Y-12534392D01*
X23382603Y-12603857D01*
X23195856Y-13127302D01*
X6002000Y-13127302D01*
X6002000Y-13057119D01*
X5789320Y-12543663D01*
X5600444Y-12354787D01*
X23804392Y-12354787D01*
X24605000Y-13155395D01*
X25405608Y-12354787D01*
X25336143Y-12112603D01*
X24812698Y-11925856D01*
X24257632Y-11953638D01*
X23873857Y-12112603D01*
X23804392Y-12354787D01*
X5600444Y-12354787D01*
X5396337Y-12150680D01*
X4882881Y-11938000D01*
X4327119Y-11938000D01*
X3813663Y-12150680D01*
X3420680Y-12543663D01*
X3208000Y-13057119D01*
X3208000Y-13612881D01*
X3420680Y-14126337D01*
X3770000Y-14475657D01*
X3770001Y-33732762D01*
X3753643Y-33815000D01*
X3818448Y-34140800D01*
X3818449Y-34140801D01*
X4003000Y-34417001D01*
X4072718Y-34463585D01*
X5042133Y-35433000D01*
X4802119Y-35433000D01*
X4288663Y-35645680D01*
X3895680Y-36038663D01*
X3683000Y-36552119D01*
X3683000Y-37107881D01*
X3895680Y-37621337D01*
X4288663Y-38014320D01*
X4802119Y-38227000D01*
X5357881Y-38227000D01*
X5871337Y-38014320D01*
X6264320Y-37621337D01*
X6350000Y-37414487D01*
X6435680Y-37621337D01*
X6828663Y-38014320D01*
X7342119Y-38227000D01*
X7897881Y-38227000D01*
X8411337Y-38014320D01*
X8804320Y-37621337D01*
X8890000Y-37414487D01*
X8975680Y-37621337D01*
X9368663Y-38014320D01*
X9882119Y-38227000D01*
X10437881Y-38227000D01*
X10951337Y-38014320D01*
X11300657Y-37665000D01*
X14522767Y-37665000D01*
X14605000Y-37681357D01*
X14687233Y-37665000D01*
X14687237Y-37665000D01*
X14806612Y-37641255D01*
X14806612Y-37892922D01*
X14903285Y-38126311D01*
X15081914Y-38304939D01*
X15315303Y-38401612D01*
X15593362Y-38401612D01*
X15752112Y-38242862D01*
X15752112Y-37418612D01*
X15732112Y-37418612D01*
X15732112Y-37164612D01*
X15752112Y-37164612D01*
X15752112Y-37144612D01*
X16006112Y-37144612D01*
X16006112Y-37164612D01*
X16026112Y-37164612D01*
X16026112Y-37418612D01*
X16006112Y-37418612D01*
X16006112Y-38242862D01*
X16164862Y-38401612D01*
X16442921Y-38401612D01*
X16676310Y-38304939D01*
X16741581Y-38239669D01*
X16903885Y-38348117D01*
X17235362Y-38414052D01*
X17395685Y-38414052D01*
X18228916Y-39247283D01*
X18275500Y-39317002D01*
X18551700Y-39501553D01*
X18795264Y-39550001D01*
X18795267Y-39550001D01*
X18877500Y-39566358D01*
X18959733Y-39550001D01*
X29610351Y-39550001D01*
X29324946Y-39675285D01*
X28568650Y-39856855D01*
X27886169Y-39906974D01*
X27757213Y-39928091D01*
X27751822Y-39930000D01*
X5261273Y-39930000D01*
X5229049Y-39920271D01*
X5145338Y-39907910D01*
X4311086Y-39833455D01*
X3566472Y-39629752D01*
X2869703Y-39297409D01*
X2242797Y-38846932D01*
X1705572Y-38292559D01*
X1275007Y-37651812D01*
X964715Y-36944946D01*
X783145Y-36188650D01*
X733026Y-35506169D01*
X711909Y-35377213D01*
X710000Y-35371822D01*
X710000Y-8037312D01*
X2302293Y-8037312D01*
X2705762Y-8563924D01*
X4219730Y-9207307D01*
X5864666Y-9222346D01*
X7390145Y-8606750D01*
X7454238Y-8563924D01*
X7857707Y-8037312D01*
X5080000Y-5259605D01*
X2302293Y-8037312D01*
X710000Y-8037312D01*
X710000Y-5864666D01*
X937654Y-5864666D01*
X1553250Y-7390145D01*
X1596076Y-7454238D01*
X2122688Y-7857707D01*
X4900395Y-5080000D01*
X5259605Y-5080000D01*
X8037312Y-7857707D01*
X8563924Y-7454238D01*
X9207307Y-5940270D01*
X9222346Y-4295334D01*
X8606750Y-2769855D01*
X8563924Y-2705762D01*
X8037312Y-2302293D01*
X5259605Y-5080000D01*
X4900395Y-5080000D01*
X2122688Y-2302293D01*
X1596076Y-2705762D01*
X952693Y-4219730D01*
X937654Y-5864666D01*
X710000Y-5864666D01*
X710000Y-5261273D01*
X719729Y-5229049D01*
X732090Y-5145337D01*
X806545Y-4311086D01*
X1010248Y-3566471D01*
X1342592Y-2869701D01*
X1793068Y-2242796D01*
X1917009Y-2122688D01*
X2302293Y-2122688D01*
X5080000Y-4900395D01*
X7857707Y-2122688D01*
X7454238Y-1596076D01*
X5940270Y-952693D01*
X4295334Y-937654D01*
X2769855Y-1553250D01*
X2705762Y-1596076D01*
X2302293Y-2122688D01*
X1917009Y-2122688D01*
X2347438Y-1705574D01*
X2988188Y-1275007D01*
X3695054Y-964715D01*
X4451349Y-783145D01*
X5133830Y-733026D01*
X5262787Y-711909D01*
X5268178Y-710000D01*
X27758727Y-710000D01*
X27790951Y-719729D01*
X27790951Y-719729D01*
G37*
X27790951Y-719729D02*
X27874663Y-732090D01*
X28708914Y-806545D01*
X29453529Y-1010248D01*
X30150299Y-1342592D01*
X30777204Y-1793068D01*
X31314426Y-2347438D01*
X31744993Y-2988188D01*
X32055285Y-3695054D01*
X32236855Y-4451349D01*
X32286974Y-5133830D01*
X32308091Y-5262787D01*
X32310001Y-5268181D01*
X32310000Y-35378727D01*
X32300271Y-35410951D01*
X32287910Y-35494662D01*
X32213455Y-36328914D01*
X32009752Y-37073528D01*
X31677409Y-37770297D01*
X31295001Y-38302476D01*
X31295001Y-36257233D01*
X31311358Y-36175000D01*
X31295001Y-36092765D01*
X31295001Y-36092764D01*
X31246553Y-35849200D01*
X31204711Y-35786579D01*
X31108585Y-35642716D01*
X31108584Y-35642715D01*
X31062002Y-35573000D01*
X30992287Y-35526418D01*
X30668807Y-35202938D01*
X30724092Y-34925000D01*
X30608839Y-34345582D01*
X30280625Y-33854375D01*
X29961522Y-33641157D01*
X30091358Y-33580183D01*
X30481645Y-33151924D01*
X30651476Y-32741890D01*
X30530155Y-32512000D01*
X29337000Y-32512000D01*
X29337000Y-32532000D01*
X29083000Y-32532000D01*
X29083000Y-32512000D01*
X29063000Y-32512000D01*
X29063000Y-32258000D01*
X29083000Y-32258000D01*
X29083000Y-32238000D01*
X29337000Y-32238000D01*
X29337000Y-32258000D01*
X30530155Y-32258000D01*
X30651476Y-32028110D01*
X30481645Y-31618076D01*
X30091358Y-31189817D01*
X29961522Y-31128843D01*
X30280625Y-30915625D01*
X30608839Y-30424418D01*
X30724092Y-29845000D01*
X30608839Y-29265582D01*
X30280625Y-28774375D01*
X29982239Y-28575000D01*
X30280625Y-28375625D01*
X30608839Y-27884418D01*
X30724092Y-27305000D01*
X30608839Y-26725582D01*
X30280625Y-26234375D01*
X29982239Y-26035000D01*
X30280625Y-25835625D01*
X30608839Y-25344418D01*
X30724092Y-24765000D01*
X30608839Y-24185582D01*
X30280625Y-23694375D01*
X29789418Y-23366161D01*
X29356256Y-23280000D01*
X29063744Y-23280000D01*
X28630582Y-23366161D01*
X28139375Y-23694375D01*
X27811161Y-24185582D01*
X27695908Y-24765000D01*
X27811161Y-25344418D01*
X28139375Y-25835625D01*
X28437761Y-26035000D01*
X28139375Y-26234375D01*
X27811161Y-26725582D01*
X27695908Y-27305000D01*
X27751193Y-27582938D01*
X26324133Y-29010000D01*
X25697930Y-29010000D01*
X25564577Y-28810423D01*
X25212242Y-28575000D01*
X25564577Y-28339577D01*
X25881740Y-27864909D01*
X25993113Y-27305000D01*
X25881740Y-26745091D01*
X25564577Y-26270423D01*
X25089909Y-25953260D01*
X24671333Y-25870000D01*
X23588667Y-25870000D01*
X23170091Y-25953260D01*
X22695423Y-26270423D01*
X22687760Y-26281892D01*
X21978577Y-25572710D01*
X21931991Y-25502989D01*
X21655791Y-25318438D01*
X21412227Y-25269990D01*
X21412223Y-25269990D01*
X21329990Y-25253633D01*
X21247757Y-25269990D01*
X9407242Y-25269990D01*
X9325009Y-25253633D01*
X9242776Y-25269990D01*
X9242773Y-25269990D01*
X8999209Y-25318438D01*
X8723009Y-25502989D01*
X8676427Y-25572704D01*
X5817718Y-28431415D01*
X5748000Y-28477999D01*
X5701416Y-28547717D01*
X5563448Y-28754200D01*
X5547861Y-28832560D01*
X5440000Y-28832560D01*
X5440000Y-24202731D01*
X5475736Y-24299387D01*
X6085461Y-24525908D01*
X6735460Y-24501856D01*
X7224264Y-24299387D01*
X7322927Y-24032532D01*
X6350000Y-23059605D01*
X6335858Y-23073748D01*
X6156253Y-22894143D01*
X6170395Y-22880000D01*
X6529605Y-22880000D01*
X7502532Y-23852927D01*
X7769387Y-23754264D01*
X7995908Y-23144539D01*
X7971856Y-22494540D01*
X7769387Y-22005736D01*
X7502532Y-21907073D01*
X6529605Y-22880000D01*
X6170395Y-22880000D01*
X6156253Y-22865858D01*
X6335858Y-22686253D01*
X6350000Y-22700395D01*
X7322927Y-21727468D01*
X7224264Y-21460613D01*
X6614539Y-21234092D01*
X5964540Y-21258144D01*
X5475736Y-21460613D01*
X5440000Y-21557269D01*
X5440000Y-14475657D01*
X5600444Y-14315213D01*
X23804392Y-14315213D01*
X23873857Y-14557397D01*
X24397302Y-14744144D01*
X24952368Y-14716362D01*
X25336143Y-14557397D01*
X25405608Y-14315213D01*
X24605000Y-13514605D01*
X23804392Y-14315213D01*
X5600444Y-14315213D01*
X5789320Y-14126337D01*
X6002000Y-13612881D01*
X6002000Y-13127302D01*
X23195856Y-13127302D01*
X23223638Y-13682368D01*
X23382603Y-14066143D01*
X23624787Y-14135608D01*
X24425395Y-13335000D01*
X24784605Y-13335000D01*
X25585213Y-14135608D01*
X25827397Y-14066143D01*
X26014144Y-13542698D01*
X25986362Y-12987632D01*
X25827397Y-12603857D01*
X25585213Y-12534392D01*
X24784605Y-13335000D01*
X24425395Y-13335000D01*
X23624787Y-12534392D01*
X23382603Y-12603857D01*
X23195856Y-13127302D01*
X6002000Y-13127302D01*
X6002000Y-13057119D01*
X5789320Y-12543663D01*
X5600444Y-12354787D01*
X23804392Y-12354787D01*
X24605000Y-13155395D01*
X25405608Y-12354787D01*
X25336143Y-12112603D01*
X24812698Y-11925856D01*
X24257632Y-11953638D01*
X23873857Y-12112603D01*
X23804392Y-12354787D01*
X5600444Y-12354787D01*
X5396337Y-12150680D01*
X4882881Y-11938000D01*
X4327119Y-11938000D01*
X3813663Y-12150680D01*
X3420680Y-12543663D01*
X3208000Y-13057119D01*
X3208000Y-13612881D01*
X3420680Y-14126337D01*
X3770000Y-14475657D01*
X3770001Y-33732762D01*
X3753643Y-33815000D01*
X3818448Y-34140800D01*
X3818449Y-34140801D01*
X4003000Y-34417001D01*
X4072718Y-34463585D01*
X5042133Y-35433000D01*
X4802119Y-35433000D01*
X4288663Y-35645680D01*
X3895680Y-36038663D01*
X3683000Y-36552119D01*
X3683000Y-37107881D01*
X3895680Y-37621337D01*
X4288663Y-38014320D01*
X4802119Y-38227000D01*
X5357881Y-38227000D01*
X5871337Y-38014320D01*
X6264320Y-37621337D01*
X6350000Y-37414487D01*
X6435680Y-37621337D01*
X6828663Y-38014320D01*
X7342119Y-38227000D01*
X7897881Y-38227000D01*
X8411337Y-38014320D01*
X8804320Y-37621337D01*
X8890000Y-37414487D01*
X8975680Y-37621337D01*
X9368663Y-38014320D01*
X9882119Y-38227000D01*
X10437881Y-38227000D01*
X10951337Y-38014320D01*
X11300657Y-37665000D01*
X14522767Y-37665000D01*
X14605000Y-37681357D01*
X14687233Y-37665000D01*
X14687237Y-37665000D01*
X14806612Y-37641255D01*
X14806612Y-37892922D01*
X14903285Y-38126311D01*
X15081914Y-38304939D01*
X15315303Y-38401612D01*
X15593362Y-38401612D01*
X15752112Y-38242862D01*
X15752112Y-37418612D01*
X15732112Y-37418612D01*
X15732112Y-37164612D01*
X15752112Y-37164612D01*
X15752112Y-37144612D01*
X16006112Y-37144612D01*
X16006112Y-37164612D01*
X16026112Y-37164612D01*
X16026112Y-37418612D01*
X16006112Y-37418612D01*
X16006112Y-38242862D01*
X16164862Y-38401612D01*
X16442921Y-38401612D01*
X16676310Y-38304939D01*
X16741581Y-38239669D01*
X16903885Y-38348117D01*
X17235362Y-38414052D01*
X17395685Y-38414052D01*
X18228916Y-39247283D01*
X18275500Y-39317002D01*
X18551700Y-39501553D01*
X18795264Y-39550001D01*
X18795267Y-39550001D01*
X18877500Y-39566358D01*
X18959733Y-39550001D01*
X29610351Y-39550001D01*
X29324946Y-39675285D01*
X28568650Y-39856855D01*
X27886169Y-39906974D01*
X27757213Y-39928091D01*
X27751822Y-39930000D01*
X5261273Y-39930000D01*
X5229049Y-39920271D01*
X5145338Y-39907910D01*
X4311086Y-39833455D01*
X3566472Y-39629752D01*
X2869703Y-39297409D01*
X2242797Y-38846932D01*
X1705572Y-38292559D01*
X1275007Y-37651812D01*
X964715Y-36944946D01*
X783145Y-36188650D01*
X733026Y-35506169D01*
X711909Y-35377213D01*
X710000Y-35371822D01*
X710000Y-8037312D01*
X2302293Y-8037312D01*
X2705762Y-8563924D01*
X4219730Y-9207307D01*
X5864666Y-9222346D01*
X7390145Y-8606750D01*
X7454238Y-8563924D01*
X7857707Y-8037312D01*
X5080000Y-5259605D01*
X2302293Y-8037312D01*
X710000Y-8037312D01*
X710000Y-5864666D01*
X937654Y-5864666D01*
X1553250Y-7390145D01*
X1596076Y-7454238D01*
X2122688Y-7857707D01*
X4900395Y-5080000D01*
X5259605Y-5080000D01*
X8037312Y-7857707D01*
X8563924Y-7454238D01*
X9207307Y-5940270D01*
X9222346Y-4295334D01*
X8606750Y-2769855D01*
X8563924Y-2705762D01*
X8037312Y-2302293D01*
X5259605Y-5080000D01*
X4900395Y-5080000D01*
X2122688Y-2302293D01*
X1596076Y-2705762D01*
X952693Y-4219730D01*
X937654Y-5864666D01*
X710000Y-5864666D01*
X710000Y-5261273D01*
X719729Y-5229049D01*
X732090Y-5145337D01*
X806545Y-4311086D01*
X1010248Y-3566471D01*
X1342592Y-2869701D01*
X1793068Y-2242796D01*
X1917009Y-2122688D01*
X2302293Y-2122688D01*
X5080000Y-4900395D01*
X7857707Y-2122688D01*
X7454238Y-1596076D01*
X5940270Y-952693D01*
X4295334Y-937654D01*
X2769855Y-1553250D01*
X2705762Y-1596076D01*
X2302293Y-2122688D01*
X1917009Y-2122688D01*
X2347438Y-1705574D01*
X2988188Y-1275007D01*
X3695054Y-964715D01*
X4451349Y-783145D01*
X5133830Y-733026D01*
X5262787Y-711909D01*
X5268178Y-710000D01*
X27758727Y-710000D01*
X27790951Y-719729D01*
G36*
X27725000Y-32512002D02*
X27889844Y-32512002D01*
X27768524Y-32741890D01*
X27938355Y-33151924D01*
X28328642Y-33580183D01*
X28458478Y-33641157D01*
X28139375Y-33854375D01*
X27811161Y-34345582D01*
X27695908Y-34925000D01*
X27811161Y-35504418D01*
X28139375Y-35995625D01*
X28157619Y-36007816D01*
X28112235Y-36016843D01*
X27902191Y-36157191D01*
X27761843Y-36367235D01*
X27712560Y-36615000D01*
X27712560Y-36630000D01*
X24875869Y-36630000D01*
X24605869Y-36360000D01*
X24657000Y-36360000D01*
X25196483Y-36202166D01*
X25634500Y-35849896D01*
X25904367Y-35356819D01*
X25921904Y-35274039D01*
X25799915Y-35052000D01*
X24257000Y-35052000D01*
X24257000Y-35072000D01*
X24003000Y-35072000D01*
X24003000Y-35052000D01*
X23983000Y-35052000D01*
X23983000Y-34798000D01*
X24003000Y-34798000D01*
X24003000Y-34778000D01*
X24257000Y-34778000D01*
X24257000Y-34798000D01*
X25799915Y-34798000D01*
X25921904Y-34575961D01*
X25904367Y-34493181D01*
X25634500Y-34000104D01*
X25208501Y-33657499D01*
X25564577Y-33419577D01*
X25697930Y-33220000D01*
X26587767Y-33220000D01*
X26670000Y-33236357D01*
X26752233Y-33220000D01*
X26752237Y-33220000D01*
X26995801Y-33171552D01*
X27272001Y-32987001D01*
X27318587Y-32917280D01*
X27725000Y-32510868D01*
X27725000Y-32512002D01*
X27725000Y-32512002D01*
G37*
X27725000Y-32512002D02*
X27889844Y-32512002D01*
X27768524Y-32741890D01*
X27938355Y-33151924D01*
X28328642Y-33580183D01*
X28458478Y-33641157D01*
X28139375Y-33854375D01*
X27811161Y-34345582D01*
X27695908Y-34925000D01*
X27811161Y-35504418D01*
X28139375Y-35995625D01*
X28157619Y-36007816D01*
X28112235Y-36016843D01*
X27902191Y-36157191D01*
X27761843Y-36367235D01*
X27712560Y-36615000D01*
X27712560Y-36630000D01*
X24875869Y-36630000D01*
X24605869Y-36360000D01*
X24657000Y-36360000D01*
X25196483Y-36202166D01*
X25634500Y-35849896D01*
X25904367Y-35356819D01*
X25921904Y-35274039D01*
X25799915Y-35052000D01*
X24257000Y-35052000D01*
X24257000Y-35072000D01*
X24003000Y-35072000D01*
X24003000Y-35052000D01*
X23983000Y-35052000D01*
X23983000Y-34798000D01*
X24003000Y-34798000D01*
X24003000Y-34778000D01*
X24257000Y-34778000D01*
X24257000Y-34798000D01*
X25799915Y-34798000D01*
X25921904Y-34575961D01*
X25904367Y-34493181D01*
X25634500Y-34000104D01*
X25208501Y-33657499D01*
X25564577Y-33419577D01*
X25697930Y-33220000D01*
X26587767Y-33220000D01*
X26670000Y-33236357D01*
X26752233Y-33220000D01*
X26752237Y-33220000D01*
X26995801Y-33171552D01*
X27272001Y-32987001D01*
X27318587Y-32917280D01*
X27725000Y-32510868D01*
X27725000Y-32512002D01*
G04 #@! TD*
M02*
