G04 #@! TF.GenerationSoftware,KiCad,Pcbnew,(5.0.2)-1*
G04 #@! TF.CreationDate,2019-05-05T02:29:21-07:00*
G04 #@! TF.ProjectId,pic_beeper,7069635f-6265-4657-9065-722e6b696361,rev?*
G04 #@! TF.SameCoordinates,Original*
G04 #@! TF.FileFunction,Soldermask,Top*
G04 #@! TF.FilePolarity,Negative*
%FSLAX46Y46*%
G04 Gerber Fmt 4.6, Leading zero omitted, Abs format (unit mm)*
G04 Created by KiCad (PCBNEW (5.0.2)-1) date 5/5/2019 2:29:21 AM*
%MOMM*%
%LPD*%
G01*
G04 APERTURE LIST*
%ADD10C,0.100000*%
G04 APERTURE END LIST*
D10*
G36*
X62630786Y-37860462D02*
X62630788Y-37860463D01*
X62630789Y-37860463D01*
X63277029Y-38128144D01*
X63738323Y-38436371D01*
X63858634Y-38516760D01*
X64353240Y-39011366D01*
X64353242Y-39011369D01*
X64741856Y-39592971D01*
X64909747Y-39998296D01*
X65009538Y-40239214D01*
X65146000Y-40925256D01*
X65146000Y-41624744D01*
X65129307Y-41708668D01*
X65009537Y-42310789D01*
X64741856Y-42957029D01*
X64403368Y-43463612D01*
X64353240Y-43538634D01*
X63858634Y-44033240D01*
X63858631Y-44033242D01*
X63277029Y-44421856D01*
X62630789Y-44689537D01*
X62630788Y-44689537D01*
X62630786Y-44689538D01*
X61944744Y-44826000D01*
X61245256Y-44826000D01*
X60559214Y-44689538D01*
X60559212Y-44689537D01*
X60559211Y-44689537D01*
X59912971Y-44421856D01*
X59331369Y-44033242D01*
X59331366Y-44033240D01*
X58836760Y-43538634D01*
X58786632Y-43463612D01*
X58448144Y-42957029D01*
X58180463Y-42310789D01*
X58060694Y-41708668D01*
X58044000Y-41624744D01*
X58044000Y-40925256D01*
X58180462Y-40239214D01*
X58280253Y-39998296D01*
X58448144Y-39592971D01*
X58836758Y-39011369D01*
X58836760Y-39011366D01*
X59331366Y-38516760D01*
X59451677Y-38436371D01*
X59912971Y-38128144D01*
X60559211Y-37860463D01*
X60559212Y-37860463D01*
X60559214Y-37860462D01*
X61245256Y-37724000D01*
X61944744Y-37724000D01*
X62630786Y-37860462D01*
X62630786Y-37860462D01*
G37*
G36*
X77971000Y-43427000D02*
X77681720Y-43427000D01*
X77657334Y-43429402D01*
X77633885Y-43436515D01*
X77612274Y-43448066D01*
X77593332Y-43463612D01*
X77577786Y-43482554D01*
X77566235Y-43504165D01*
X77559122Y-43527614D01*
X77556720Y-43552000D01*
X77559122Y-43576386D01*
X77566235Y-43599835D01*
X77577786Y-43621446D01*
X77593332Y-43640388D01*
X77612274Y-43655934D01*
X77633885Y-43667485D01*
X77730996Y-43707709D01*
X77821245Y-43768012D01*
X77897988Y-43844755D01*
X77958291Y-43935005D01*
X77999826Y-44035279D01*
X78021000Y-44141730D01*
X78021000Y-44250270D01*
X77999826Y-44356721D01*
X77958291Y-44456995D01*
X77897988Y-44547245D01*
X77821245Y-44623988D01*
X77730995Y-44684291D01*
X77630721Y-44725826D01*
X77524270Y-44747000D01*
X77415730Y-44747000D01*
X77309279Y-44725826D01*
X77209005Y-44684291D01*
X77118755Y-44623988D01*
X77042012Y-44547245D01*
X76981709Y-44456995D01*
X76940174Y-44356721D01*
X76919000Y-44250270D01*
X76919000Y-44141730D01*
X76940174Y-44035279D01*
X76981709Y-43935005D01*
X77042012Y-43844755D01*
X77118755Y-43768012D01*
X77209004Y-43707709D01*
X77306115Y-43667485D01*
X77327726Y-43655934D01*
X77346668Y-43640389D01*
X77362213Y-43621447D01*
X77373765Y-43599836D01*
X77380878Y-43576387D01*
X77383280Y-43552000D01*
X77380878Y-43527614D01*
X77373765Y-43504165D01*
X77362214Y-43482554D01*
X77346669Y-43463612D01*
X77327727Y-43448067D01*
X77306116Y-43436515D01*
X77282667Y-43429402D01*
X77258280Y-43427000D01*
X76969000Y-43427000D01*
X76969000Y-42425000D01*
X77971000Y-42425000D01*
X77971000Y-43427000D01*
X77971000Y-43427000D01*
G37*
G36*
X75921000Y-44697000D02*
X74619000Y-44697000D01*
X74619000Y-43695000D01*
X75921000Y-43695000D01*
X75921000Y-44697000D01*
X75921000Y-44697000D01*
G37*
G36*
X67621000Y-44697000D02*
X66319000Y-44697000D01*
X66319000Y-43695000D01*
X67621000Y-43695000D01*
X67621000Y-44697000D01*
X67621000Y-44697000D01*
G37*
G36*
X84671000Y-44031000D02*
X82969000Y-44031000D01*
X82969000Y-42329000D01*
X84671000Y-42329000D01*
X84671000Y-44031000D01*
X84671000Y-44031000D01*
G37*
G36*
X71771000Y-43247000D02*
X70469000Y-43247000D01*
X70469000Y-42045000D01*
X71771000Y-42045000D01*
X71771000Y-43247000D01*
X71771000Y-43247000D01*
G37*
G36*
X69871000Y-43247000D02*
X68969000Y-43247000D01*
X68969000Y-42045000D01*
X69871000Y-42045000D01*
X69871000Y-43247000D01*
X69871000Y-43247000D01*
G37*
G36*
X73271000Y-43247000D02*
X72369000Y-43247000D01*
X72369000Y-42045000D01*
X73271000Y-42045000D01*
X73271000Y-43247000D01*
X73271000Y-43247000D01*
G37*
G36*
X77971000Y-42157000D02*
X76969000Y-42157000D01*
X76969000Y-41155000D01*
X77971000Y-41155000D01*
X77971000Y-42157000D01*
X77971000Y-42157000D01*
G37*
G36*
X77971000Y-40887000D02*
X76969000Y-40887000D01*
X76969000Y-39885000D01*
X77971000Y-39885000D01*
X77971000Y-40887000D01*
X77971000Y-40887000D01*
G37*
G36*
X74261000Y-40413500D02*
X71859000Y-40413500D01*
X71859000Y-39661500D01*
X74261000Y-39661500D01*
X74261000Y-40413500D01*
X74261000Y-40413500D01*
G37*
G36*
X84068228Y-38361703D02*
X84223100Y-38425853D01*
X84362481Y-38518985D01*
X84481015Y-38637519D01*
X84574147Y-38776900D01*
X84638297Y-38931772D01*
X84671000Y-39096184D01*
X84671000Y-39263816D01*
X84638297Y-39428228D01*
X84574147Y-39583100D01*
X84481015Y-39722481D01*
X84362481Y-39841015D01*
X84223100Y-39934147D01*
X84068228Y-39998297D01*
X83903816Y-40031000D01*
X83736184Y-40031000D01*
X83571772Y-39998297D01*
X83416900Y-39934147D01*
X83277519Y-39841015D01*
X83158985Y-39722481D01*
X83065853Y-39583100D01*
X83001703Y-39428228D01*
X82969000Y-39263816D01*
X82969000Y-39096184D01*
X83001703Y-38931772D01*
X83065853Y-38776900D01*
X83158985Y-38637519D01*
X83277519Y-38518985D01*
X83416900Y-38425853D01*
X83571772Y-38361703D01*
X83736184Y-38329000D01*
X83903816Y-38329000D01*
X84068228Y-38361703D01*
X84068228Y-38361703D01*
G37*
G36*
X67689591Y-38885585D02*
X67723569Y-38895893D01*
X67754887Y-38912633D01*
X67782339Y-38935161D01*
X67804867Y-38962613D01*
X67821607Y-38993931D01*
X67831915Y-39027909D01*
X67836000Y-39069390D01*
X67836000Y-39670610D01*
X67831915Y-39712091D01*
X67821607Y-39746069D01*
X67804867Y-39777387D01*
X67782339Y-39804839D01*
X67754887Y-39827367D01*
X67723569Y-39844107D01*
X67689591Y-39854415D01*
X67648110Y-39858500D01*
X66971890Y-39858500D01*
X66930409Y-39854415D01*
X66896431Y-39844107D01*
X66865113Y-39827367D01*
X66837661Y-39804839D01*
X66815133Y-39777387D01*
X66798393Y-39746069D01*
X66788085Y-39712091D01*
X66784000Y-39670610D01*
X66784000Y-39069390D01*
X66788085Y-39027909D01*
X66798393Y-38993931D01*
X66815133Y-38962613D01*
X66837661Y-38935161D01*
X66865113Y-38912633D01*
X66896431Y-38895893D01*
X66930409Y-38885585D01*
X66971890Y-38881500D01*
X67648110Y-38881500D01*
X67689591Y-38885585D01*
X67689591Y-38885585D01*
G37*
G36*
X77630721Y-37316174D02*
X77730995Y-37357709D01*
X77821245Y-37418012D01*
X77897988Y-37494755D01*
X77958291Y-37585005D01*
X77999826Y-37685279D01*
X78021000Y-37791730D01*
X78021000Y-37900270D01*
X77999826Y-38006721D01*
X77958291Y-38106995D01*
X77897988Y-38197245D01*
X77821245Y-38273988D01*
X77730996Y-38334291D01*
X77633885Y-38374515D01*
X77612274Y-38386066D01*
X77593332Y-38401611D01*
X77577787Y-38420553D01*
X77566235Y-38442164D01*
X77559122Y-38465613D01*
X77556720Y-38490000D01*
X77559122Y-38514386D01*
X77566235Y-38537835D01*
X77577786Y-38559446D01*
X77593331Y-38578388D01*
X77612273Y-38593933D01*
X77633884Y-38605485D01*
X77657333Y-38612598D01*
X77681720Y-38615000D01*
X77971000Y-38615000D01*
X77971000Y-39617000D01*
X76969000Y-39617000D01*
X76969000Y-38615000D01*
X77258280Y-38615000D01*
X77282666Y-38612598D01*
X77306115Y-38605485D01*
X77327726Y-38593934D01*
X77346668Y-38578388D01*
X77362214Y-38559446D01*
X77373765Y-38537835D01*
X77380878Y-38514386D01*
X77383280Y-38490000D01*
X77380878Y-38465614D01*
X77373765Y-38442165D01*
X77362214Y-38420554D01*
X77346668Y-38401612D01*
X77327726Y-38386066D01*
X77306115Y-38374515D01*
X77209004Y-38334291D01*
X77118755Y-38273988D01*
X77042012Y-38197245D01*
X76981709Y-38106995D01*
X76940174Y-38006721D01*
X76919000Y-37900270D01*
X76919000Y-37791730D01*
X76940174Y-37685279D01*
X76981709Y-37585005D01*
X77042012Y-37494755D01*
X77118755Y-37418012D01*
X77209005Y-37357709D01*
X77309279Y-37316174D01*
X77415730Y-37295000D01*
X77524270Y-37295000D01*
X77630721Y-37316174D01*
X77630721Y-37316174D01*
G37*
G36*
X74311000Y-39313500D02*
X71809000Y-39313500D01*
X71809000Y-37661500D01*
X74311000Y-37661500D01*
X74311000Y-39313500D01*
X74311000Y-39313500D01*
G37*
G36*
X67689591Y-37310585D02*
X67723569Y-37320893D01*
X67754887Y-37337633D01*
X67782339Y-37360161D01*
X67804867Y-37387613D01*
X67821607Y-37418931D01*
X67831915Y-37452909D01*
X67836000Y-37494390D01*
X67836000Y-38095610D01*
X67831915Y-38137091D01*
X67821607Y-38171069D01*
X67804867Y-38202387D01*
X67782339Y-38229839D01*
X67754887Y-38252367D01*
X67723569Y-38269107D01*
X67689591Y-38279415D01*
X67648110Y-38283500D01*
X66971890Y-38283500D01*
X66930409Y-38279415D01*
X66896431Y-38269107D01*
X66865113Y-38252367D01*
X66837661Y-38229839D01*
X66815133Y-38202387D01*
X66798393Y-38171069D01*
X66788085Y-38137091D01*
X66784000Y-38095610D01*
X66784000Y-37494390D01*
X66788085Y-37452909D01*
X66798393Y-37418931D01*
X66815133Y-37387613D01*
X66837661Y-37360161D01*
X66865113Y-37337633D01*
X66896431Y-37320893D01*
X66930409Y-37310585D01*
X66971890Y-37306500D01*
X67648110Y-37306500D01*
X67689591Y-37310585D01*
X67689591Y-37310585D01*
G37*
G36*
X74261000Y-37313500D02*
X71859000Y-37313500D01*
X71859000Y-36561500D01*
X74261000Y-36561500D01*
X74261000Y-37313500D01*
X74261000Y-37313500D01*
G37*
G36*
X60711000Y-30091000D02*
X57609000Y-30091000D01*
X57609000Y-25789000D01*
X60711000Y-25789000D01*
X60711000Y-30091000D01*
X60711000Y-30091000D01*
G37*
G36*
X89711000Y-30091000D02*
X86609000Y-30091000D01*
X86609000Y-25789000D01*
X89711000Y-25789000D01*
X89711000Y-30091000D01*
X89711000Y-30091000D01*
G37*
M02*
