G04 #@! TF.GenerationSoftware,KiCad,Pcbnew,(5.1.4-0)*
G04 #@! TF.CreationDate,2019-09-03T16:59:57-05:00*
G04 #@! TF.ProjectId,pic_beeper,7069635f-6265-4657-9065-722e6b696361,rev?*
G04 #@! TF.SameCoordinates,Original*
G04 #@! TF.FileFunction,Copper,L1,Top*
G04 #@! TF.FilePolarity,Positive*
%FSLAX46Y46*%
G04 Gerber Fmt 4.6, Leading zero omitted, Abs format (unit mm)*
G04 Created by KiCad (PCBNEW (5.1.4-0)) date 2019-09-03 16:59:57*
%MOMM*%
%LPD*%
G04 APERTURE LIST*
%ADD10O,1.700000X1.700000*%
%ADD11R,1.700000X1.700000*%
%ADD12R,2.000000X2.000000*%
%ADD13C,0.100000*%
%ADD14C,0.875000*%
%ADD15R,2.500000X1.800000*%
%ADD16C,1.000000*%
%ADD17C,1.200000*%
%ADD18O,1.200000X1.750000*%
%ADD19R,1.000000X1.500000*%
%ADD20R,0.800000X0.900000*%
%ADD21R,0.900000X1.250000*%
%ADD22R,0.350000X0.650000*%
%ADD23R,2.400000X1.550000*%
%ADD24C,0.600000*%
%ADD25C,0.800000*%
%ADD26C,0.250000*%
%ADD27C,0.800000*%
%ADD28C,0.254000*%
G04 APERTURE END LIST*
D10*
X46355000Y-18415000D03*
X46355000Y-20955000D03*
D11*
X46355000Y-23495000D03*
D12*
X17785001Y-12705001D03*
X24785001Y-12705001D03*
X24785001Y-19705001D03*
X17785001Y-19705001D03*
D13*
G36*
X27875191Y-19211053D02*
G01*
X27896426Y-19214203D01*
X27917250Y-19219419D01*
X27937462Y-19226651D01*
X27956868Y-19235830D01*
X27975281Y-19246866D01*
X27992524Y-19259654D01*
X28008430Y-19274070D01*
X28022846Y-19289976D01*
X28035634Y-19307219D01*
X28046670Y-19325632D01*
X28055849Y-19345038D01*
X28063081Y-19365250D01*
X28068297Y-19386074D01*
X28071447Y-19407309D01*
X28072500Y-19428750D01*
X28072500Y-19941250D01*
X28071447Y-19962691D01*
X28068297Y-19983926D01*
X28063081Y-20004750D01*
X28055849Y-20024962D01*
X28046670Y-20044368D01*
X28035634Y-20062781D01*
X28022846Y-20080024D01*
X28008430Y-20095930D01*
X27992524Y-20110346D01*
X27975281Y-20123134D01*
X27956868Y-20134170D01*
X27937462Y-20143349D01*
X27917250Y-20150581D01*
X27896426Y-20155797D01*
X27875191Y-20158947D01*
X27853750Y-20160000D01*
X27416250Y-20160000D01*
X27394809Y-20158947D01*
X27373574Y-20155797D01*
X27352750Y-20150581D01*
X27332538Y-20143349D01*
X27313132Y-20134170D01*
X27294719Y-20123134D01*
X27277476Y-20110346D01*
X27261570Y-20095930D01*
X27247154Y-20080024D01*
X27234366Y-20062781D01*
X27223330Y-20044368D01*
X27214151Y-20024962D01*
X27206919Y-20004750D01*
X27201703Y-19983926D01*
X27198553Y-19962691D01*
X27197500Y-19941250D01*
X27197500Y-19428750D01*
X27198553Y-19407309D01*
X27201703Y-19386074D01*
X27206919Y-19365250D01*
X27214151Y-19345038D01*
X27223330Y-19325632D01*
X27234366Y-19307219D01*
X27247154Y-19289976D01*
X27261570Y-19274070D01*
X27277476Y-19259654D01*
X27294719Y-19246866D01*
X27313132Y-19235830D01*
X27332538Y-19226651D01*
X27352750Y-19219419D01*
X27373574Y-19214203D01*
X27394809Y-19211053D01*
X27416250Y-19210000D01*
X27853750Y-19210000D01*
X27875191Y-19211053D01*
X27875191Y-19211053D01*
G37*
D14*
X27635000Y-19685000D03*
D13*
G36*
X29450191Y-19211053D02*
G01*
X29471426Y-19214203D01*
X29492250Y-19219419D01*
X29512462Y-19226651D01*
X29531868Y-19235830D01*
X29550281Y-19246866D01*
X29567524Y-19259654D01*
X29583430Y-19274070D01*
X29597846Y-19289976D01*
X29610634Y-19307219D01*
X29621670Y-19325632D01*
X29630849Y-19345038D01*
X29638081Y-19365250D01*
X29643297Y-19386074D01*
X29646447Y-19407309D01*
X29647500Y-19428750D01*
X29647500Y-19941250D01*
X29646447Y-19962691D01*
X29643297Y-19983926D01*
X29638081Y-20004750D01*
X29630849Y-20024962D01*
X29621670Y-20044368D01*
X29610634Y-20062781D01*
X29597846Y-20080024D01*
X29583430Y-20095930D01*
X29567524Y-20110346D01*
X29550281Y-20123134D01*
X29531868Y-20134170D01*
X29512462Y-20143349D01*
X29492250Y-20150581D01*
X29471426Y-20155797D01*
X29450191Y-20158947D01*
X29428750Y-20160000D01*
X28991250Y-20160000D01*
X28969809Y-20158947D01*
X28948574Y-20155797D01*
X28927750Y-20150581D01*
X28907538Y-20143349D01*
X28888132Y-20134170D01*
X28869719Y-20123134D01*
X28852476Y-20110346D01*
X28836570Y-20095930D01*
X28822154Y-20080024D01*
X28809366Y-20062781D01*
X28798330Y-20044368D01*
X28789151Y-20024962D01*
X28781919Y-20004750D01*
X28776703Y-19983926D01*
X28773553Y-19962691D01*
X28772500Y-19941250D01*
X28772500Y-19428750D01*
X28773553Y-19407309D01*
X28776703Y-19386074D01*
X28781919Y-19365250D01*
X28789151Y-19345038D01*
X28798330Y-19325632D01*
X28809366Y-19307219D01*
X28822154Y-19289976D01*
X28836570Y-19274070D01*
X28852476Y-19259654D01*
X28869719Y-19246866D01*
X28888132Y-19235830D01*
X28907538Y-19226651D01*
X28927750Y-19219419D01*
X28948574Y-19214203D01*
X28969809Y-19211053D01*
X28991250Y-19210000D01*
X29428750Y-19210000D01*
X29450191Y-19211053D01*
X29450191Y-19211053D01*
G37*
D14*
X29210000Y-19685000D03*
D15*
X18415000Y-22860000D03*
X22415000Y-22860000D03*
D13*
G36*
X31025191Y-11591053D02*
G01*
X31046426Y-11594203D01*
X31067250Y-11599419D01*
X31087462Y-11606651D01*
X31106868Y-11615830D01*
X31125281Y-11626866D01*
X31142524Y-11639654D01*
X31158430Y-11654070D01*
X31172846Y-11669976D01*
X31185634Y-11687219D01*
X31196670Y-11705632D01*
X31205849Y-11725038D01*
X31213081Y-11745250D01*
X31218297Y-11766074D01*
X31221447Y-11787309D01*
X31222500Y-11808750D01*
X31222500Y-12321250D01*
X31221447Y-12342691D01*
X31218297Y-12363926D01*
X31213081Y-12384750D01*
X31205849Y-12404962D01*
X31196670Y-12424368D01*
X31185634Y-12442781D01*
X31172846Y-12460024D01*
X31158430Y-12475930D01*
X31142524Y-12490346D01*
X31125281Y-12503134D01*
X31106868Y-12514170D01*
X31087462Y-12523349D01*
X31067250Y-12530581D01*
X31046426Y-12535797D01*
X31025191Y-12538947D01*
X31003750Y-12540000D01*
X30566250Y-12540000D01*
X30544809Y-12538947D01*
X30523574Y-12535797D01*
X30502750Y-12530581D01*
X30482538Y-12523349D01*
X30463132Y-12514170D01*
X30444719Y-12503134D01*
X30427476Y-12490346D01*
X30411570Y-12475930D01*
X30397154Y-12460024D01*
X30384366Y-12442781D01*
X30373330Y-12424368D01*
X30364151Y-12404962D01*
X30356919Y-12384750D01*
X30351703Y-12363926D01*
X30348553Y-12342691D01*
X30347500Y-12321250D01*
X30347500Y-11808750D01*
X30348553Y-11787309D01*
X30351703Y-11766074D01*
X30356919Y-11745250D01*
X30364151Y-11725038D01*
X30373330Y-11705632D01*
X30384366Y-11687219D01*
X30397154Y-11669976D01*
X30411570Y-11654070D01*
X30427476Y-11639654D01*
X30444719Y-11626866D01*
X30463132Y-11615830D01*
X30482538Y-11606651D01*
X30502750Y-11599419D01*
X30523574Y-11594203D01*
X30544809Y-11591053D01*
X30566250Y-11590000D01*
X31003750Y-11590000D01*
X31025191Y-11591053D01*
X31025191Y-11591053D01*
G37*
D14*
X30785000Y-12065000D03*
D13*
G36*
X29450191Y-11591053D02*
G01*
X29471426Y-11594203D01*
X29492250Y-11599419D01*
X29512462Y-11606651D01*
X29531868Y-11615830D01*
X29550281Y-11626866D01*
X29567524Y-11639654D01*
X29583430Y-11654070D01*
X29597846Y-11669976D01*
X29610634Y-11687219D01*
X29621670Y-11705632D01*
X29630849Y-11725038D01*
X29638081Y-11745250D01*
X29643297Y-11766074D01*
X29646447Y-11787309D01*
X29647500Y-11808750D01*
X29647500Y-12321250D01*
X29646447Y-12342691D01*
X29643297Y-12363926D01*
X29638081Y-12384750D01*
X29630849Y-12404962D01*
X29621670Y-12424368D01*
X29610634Y-12442781D01*
X29597846Y-12460024D01*
X29583430Y-12475930D01*
X29567524Y-12490346D01*
X29550281Y-12503134D01*
X29531868Y-12514170D01*
X29512462Y-12523349D01*
X29492250Y-12530581D01*
X29471426Y-12535797D01*
X29450191Y-12538947D01*
X29428750Y-12540000D01*
X28991250Y-12540000D01*
X28969809Y-12538947D01*
X28948574Y-12535797D01*
X28927750Y-12530581D01*
X28907538Y-12523349D01*
X28888132Y-12514170D01*
X28869719Y-12503134D01*
X28852476Y-12490346D01*
X28836570Y-12475930D01*
X28822154Y-12460024D01*
X28809366Y-12442781D01*
X28798330Y-12424368D01*
X28789151Y-12404962D01*
X28781919Y-12384750D01*
X28776703Y-12363926D01*
X28773553Y-12342691D01*
X28772500Y-12321250D01*
X28772500Y-11808750D01*
X28773553Y-11787309D01*
X28776703Y-11766074D01*
X28781919Y-11745250D01*
X28789151Y-11725038D01*
X28798330Y-11705632D01*
X28809366Y-11687219D01*
X28822154Y-11669976D01*
X28836570Y-11654070D01*
X28852476Y-11639654D01*
X28869719Y-11626866D01*
X28888132Y-11615830D01*
X28907538Y-11606651D01*
X28927750Y-11599419D01*
X28948574Y-11594203D01*
X28969809Y-11591053D01*
X28991250Y-11590000D01*
X29428750Y-11590000D01*
X29450191Y-11591053D01*
X29450191Y-11591053D01*
G37*
D14*
X29210000Y-12065000D03*
D16*
X33782000Y-12192000D03*
X27432000Y-12192000D03*
D13*
G36*
X42284505Y-16906204D02*
G01*
X42308773Y-16909804D01*
X42332572Y-16915765D01*
X42355671Y-16924030D01*
X42377850Y-16934520D01*
X42398893Y-16947132D01*
X42418599Y-16961747D01*
X42436777Y-16978223D01*
X42453253Y-16996401D01*
X42467868Y-17016107D01*
X42480480Y-17037150D01*
X42490970Y-17059329D01*
X42499235Y-17082428D01*
X42505196Y-17106227D01*
X42508796Y-17130495D01*
X42510000Y-17154999D01*
X42510000Y-18405001D01*
X42508796Y-18429505D01*
X42505196Y-18453773D01*
X42499235Y-18477572D01*
X42490970Y-18500671D01*
X42480480Y-18522850D01*
X42467868Y-18543893D01*
X42453253Y-18563599D01*
X42436777Y-18581777D01*
X42418599Y-18598253D01*
X42398893Y-18612868D01*
X42377850Y-18625480D01*
X42355671Y-18635970D01*
X42332572Y-18644235D01*
X42308773Y-18650196D01*
X42284505Y-18653796D01*
X42260001Y-18655000D01*
X41559999Y-18655000D01*
X41535495Y-18653796D01*
X41511227Y-18650196D01*
X41487428Y-18644235D01*
X41464329Y-18635970D01*
X41442150Y-18625480D01*
X41421107Y-18612868D01*
X41401401Y-18598253D01*
X41383223Y-18581777D01*
X41366747Y-18563599D01*
X41352132Y-18543893D01*
X41339520Y-18522850D01*
X41329030Y-18500671D01*
X41320765Y-18477572D01*
X41314804Y-18453773D01*
X41311204Y-18429505D01*
X41310000Y-18405001D01*
X41310000Y-17154999D01*
X41311204Y-17130495D01*
X41314804Y-17106227D01*
X41320765Y-17082428D01*
X41329030Y-17059329D01*
X41339520Y-17037150D01*
X41352132Y-17016107D01*
X41366747Y-16996401D01*
X41383223Y-16978223D01*
X41401401Y-16961747D01*
X41421107Y-16947132D01*
X41442150Y-16934520D01*
X41464329Y-16924030D01*
X41487428Y-16915765D01*
X41511227Y-16909804D01*
X41535495Y-16906204D01*
X41559999Y-16905000D01*
X42260001Y-16905000D01*
X42284505Y-16906204D01*
X42284505Y-16906204D01*
G37*
D17*
X41910000Y-17780000D03*
D18*
X39910000Y-17780000D03*
D11*
X14478000Y-13208000D03*
D10*
X14478000Y-15748000D03*
X14478000Y-18288000D03*
D19*
X32654000Y-23876000D03*
X31354000Y-23876000D03*
D20*
X25085000Y-23860000D03*
X26985000Y-23860000D03*
X26035000Y-21860000D03*
D13*
G36*
X32662691Y-14651053D02*
G01*
X32683926Y-14654203D01*
X32704750Y-14659419D01*
X32724962Y-14666651D01*
X32744368Y-14675830D01*
X32762781Y-14686866D01*
X32780024Y-14699654D01*
X32795930Y-14714070D01*
X32810346Y-14729976D01*
X32823134Y-14747219D01*
X32834170Y-14765632D01*
X32843349Y-14785038D01*
X32850581Y-14805250D01*
X32855797Y-14826074D01*
X32858947Y-14847309D01*
X32860000Y-14868750D01*
X32860000Y-15306250D01*
X32858947Y-15327691D01*
X32855797Y-15348926D01*
X32850581Y-15369750D01*
X32843349Y-15389962D01*
X32834170Y-15409368D01*
X32823134Y-15427781D01*
X32810346Y-15445024D01*
X32795930Y-15460930D01*
X32780024Y-15475346D01*
X32762781Y-15488134D01*
X32744368Y-15499170D01*
X32724962Y-15508349D01*
X32704750Y-15515581D01*
X32683926Y-15520797D01*
X32662691Y-15523947D01*
X32641250Y-15525000D01*
X32128750Y-15525000D01*
X32107309Y-15523947D01*
X32086074Y-15520797D01*
X32065250Y-15515581D01*
X32045038Y-15508349D01*
X32025632Y-15499170D01*
X32007219Y-15488134D01*
X31989976Y-15475346D01*
X31974070Y-15460930D01*
X31959654Y-15445024D01*
X31946866Y-15427781D01*
X31935830Y-15409368D01*
X31926651Y-15389962D01*
X31919419Y-15369750D01*
X31914203Y-15348926D01*
X31911053Y-15327691D01*
X31910000Y-15306250D01*
X31910000Y-14868750D01*
X31911053Y-14847309D01*
X31914203Y-14826074D01*
X31919419Y-14805250D01*
X31926651Y-14785038D01*
X31935830Y-14765632D01*
X31946866Y-14747219D01*
X31959654Y-14729976D01*
X31974070Y-14714070D01*
X31989976Y-14699654D01*
X32007219Y-14686866D01*
X32025632Y-14675830D01*
X32045038Y-14666651D01*
X32065250Y-14659419D01*
X32086074Y-14654203D01*
X32107309Y-14651053D01*
X32128750Y-14650000D01*
X32641250Y-14650000D01*
X32662691Y-14651053D01*
X32662691Y-14651053D01*
G37*
D14*
X32385000Y-15087500D03*
D13*
G36*
X32662691Y-16226053D02*
G01*
X32683926Y-16229203D01*
X32704750Y-16234419D01*
X32724962Y-16241651D01*
X32744368Y-16250830D01*
X32762781Y-16261866D01*
X32780024Y-16274654D01*
X32795930Y-16289070D01*
X32810346Y-16304976D01*
X32823134Y-16322219D01*
X32834170Y-16340632D01*
X32843349Y-16360038D01*
X32850581Y-16380250D01*
X32855797Y-16401074D01*
X32858947Y-16422309D01*
X32860000Y-16443750D01*
X32860000Y-16881250D01*
X32858947Y-16902691D01*
X32855797Y-16923926D01*
X32850581Y-16944750D01*
X32843349Y-16964962D01*
X32834170Y-16984368D01*
X32823134Y-17002781D01*
X32810346Y-17020024D01*
X32795930Y-17035930D01*
X32780024Y-17050346D01*
X32762781Y-17063134D01*
X32744368Y-17074170D01*
X32724962Y-17083349D01*
X32704750Y-17090581D01*
X32683926Y-17095797D01*
X32662691Y-17098947D01*
X32641250Y-17100000D01*
X32128750Y-17100000D01*
X32107309Y-17098947D01*
X32086074Y-17095797D01*
X32065250Y-17090581D01*
X32045038Y-17083349D01*
X32025632Y-17074170D01*
X32007219Y-17063134D01*
X31989976Y-17050346D01*
X31974070Y-17035930D01*
X31959654Y-17020024D01*
X31946866Y-17002781D01*
X31935830Y-16984368D01*
X31926651Y-16964962D01*
X31919419Y-16944750D01*
X31914203Y-16923926D01*
X31911053Y-16902691D01*
X31910000Y-16881250D01*
X31910000Y-16443750D01*
X31911053Y-16422309D01*
X31914203Y-16401074D01*
X31919419Y-16380250D01*
X31926651Y-16360038D01*
X31935830Y-16340632D01*
X31946866Y-16322219D01*
X31959654Y-16304976D01*
X31974070Y-16289070D01*
X31989976Y-16274654D01*
X32007219Y-16261866D01*
X32025632Y-16250830D01*
X32045038Y-16241651D01*
X32065250Y-16234419D01*
X32086074Y-16229203D01*
X32107309Y-16226053D01*
X32128750Y-16225000D01*
X32641250Y-16225000D01*
X32662691Y-16226053D01*
X32662691Y-16226053D01*
G37*
D14*
X32385000Y-16662500D03*
D13*
G36*
X35837691Y-13838553D02*
G01*
X35858926Y-13841703D01*
X35879750Y-13846919D01*
X35899962Y-13854151D01*
X35919368Y-13863330D01*
X35937781Y-13874366D01*
X35955024Y-13887154D01*
X35970930Y-13901570D01*
X35985346Y-13917476D01*
X35998134Y-13934719D01*
X36009170Y-13953132D01*
X36018349Y-13972538D01*
X36025581Y-13992750D01*
X36030797Y-14013574D01*
X36033947Y-14034809D01*
X36035000Y-14056250D01*
X36035000Y-14493750D01*
X36033947Y-14515191D01*
X36030797Y-14536426D01*
X36025581Y-14557250D01*
X36018349Y-14577462D01*
X36009170Y-14596868D01*
X35998134Y-14615281D01*
X35985346Y-14632524D01*
X35970930Y-14648430D01*
X35955024Y-14662846D01*
X35937781Y-14675634D01*
X35919368Y-14686670D01*
X35899962Y-14695849D01*
X35879750Y-14703081D01*
X35858926Y-14708297D01*
X35837691Y-14711447D01*
X35816250Y-14712500D01*
X35303750Y-14712500D01*
X35282309Y-14711447D01*
X35261074Y-14708297D01*
X35240250Y-14703081D01*
X35220038Y-14695849D01*
X35200632Y-14686670D01*
X35182219Y-14675634D01*
X35164976Y-14662846D01*
X35149070Y-14648430D01*
X35134654Y-14632524D01*
X35121866Y-14615281D01*
X35110830Y-14596868D01*
X35101651Y-14577462D01*
X35094419Y-14557250D01*
X35089203Y-14536426D01*
X35086053Y-14515191D01*
X35085000Y-14493750D01*
X35085000Y-14056250D01*
X35086053Y-14034809D01*
X35089203Y-14013574D01*
X35094419Y-13992750D01*
X35101651Y-13972538D01*
X35110830Y-13953132D01*
X35121866Y-13934719D01*
X35134654Y-13917476D01*
X35149070Y-13901570D01*
X35164976Y-13887154D01*
X35182219Y-13874366D01*
X35200632Y-13863330D01*
X35220038Y-13854151D01*
X35240250Y-13846919D01*
X35261074Y-13841703D01*
X35282309Y-13838553D01*
X35303750Y-13837500D01*
X35816250Y-13837500D01*
X35837691Y-13838553D01*
X35837691Y-13838553D01*
G37*
D14*
X35560000Y-14275000D03*
D13*
G36*
X35837691Y-12263553D02*
G01*
X35858926Y-12266703D01*
X35879750Y-12271919D01*
X35899962Y-12279151D01*
X35919368Y-12288330D01*
X35937781Y-12299366D01*
X35955024Y-12312154D01*
X35970930Y-12326570D01*
X35985346Y-12342476D01*
X35998134Y-12359719D01*
X36009170Y-12378132D01*
X36018349Y-12397538D01*
X36025581Y-12417750D01*
X36030797Y-12438574D01*
X36033947Y-12459809D01*
X36035000Y-12481250D01*
X36035000Y-12918750D01*
X36033947Y-12940191D01*
X36030797Y-12961426D01*
X36025581Y-12982250D01*
X36018349Y-13002462D01*
X36009170Y-13021868D01*
X35998134Y-13040281D01*
X35985346Y-13057524D01*
X35970930Y-13073430D01*
X35955024Y-13087846D01*
X35937781Y-13100634D01*
X35919368Y-13111670D01*
X35899962Y-13120849D01*
X35879750Y-13128081D01*
X35858926Y-13133297D01*
X35837691Y-13136447D01*
X35816250Y-13137500D01*
X35303750Y-13137500D01*
X35282309Y-13136447D01*
X35261074Y-13133297D01*
X35240250Y-13128081D01*
X35220038Y-13120849D01*
X35200632Y-13111670D01*
X35182219Y-13100634D01*
X35164976Y-13087846D01*
X35149070Y-13073430D01*
X35134654Y-13057524D01*
X35121866Y-13040281D01*
X35110830Y-13021868D01*
X35101651Y-13002462D01*
X35094419Y-12982250D01*
X35089203Y-12961426D01*
X35086053Y-12940191D01*
X35085000Y-12918750D01*
X35085000Y-12481250D01*
X35086053Y-12459809D01*
X35089203Y-12438574D01*
X35094419Y-12417750D01*
X35101651Y-12397538D01*
X35110830Y-12378132D01*
X35121866Y-12359719D01*
X35134654Y-12342476D01*
X35149070Y-12326570D01*
X35164976Y-12312154D01*
X35182219Y-12299366D01*
X35200632Y-12288330D01*
X35220038Y-12279151D01*
X35240250Y-12271919D01*
X35261074Y-12266703D01*
X35282309Y-12263553D01*
X35303750Y-12262500D01*
X35816250Y-12262500D01*
X35837691Y-12263553D01*
X35837691Y-12263553D01*
G37*
D14*
X35560000Y-12700000D03*
D13*
G36*
X35837691Y-15438553D02*
G01*
X35858926Y-15441703D01*
X35879750Y-15446919D01*
X35899962Y-15454151D01*
X35919368Y-15463330D01*
X35937781Y-15474366D01*
X35955024Y-15487154D01*
X35970930Y-15501570D01*
X35985346Y-15517476D01*
X35998134Y-15534719D01*
X36009170Y-15553132D01*
X36018349Y-15572538D01*
X36025581Y-15592750D01*
X36030797Y-15613574D01*
X36033947Y-15634809D01*
X36035000Y-15656250D01*
X36035000Y-16093750D01*
X36033947Y-16115191D01*
X36030797Y-16136426D01*
X36025581Y-16157250D01*
X36018349Y-16177462D01*
X36009170Y-16196868D01*
X35998134Y-16215281D01*
X35985346Y-16232524D01*
X35970930Y-16248430D01*
X35955024Y-16262846D01*
X35937781Y-16275634D01*
X35919368Y-16286670D01*
X35899962Y-16295849D01*
X35879750Y-16303081D01*
X35858926Y-16308297D01*
X35837691Y-16311447D01*
X35816250Y-16312500D01*
X35303750Y-16312500D01*
X35282309Y-16311447D01*
X35261074Y-16308297D01*
X35240250Y-16303081D01*
X35220038Y-16295849D01*
X35200632Y-16286670D01*
X35182219Y-16275634D01*
X35164976Y-16262846D01*
X35149070Y-16248430D01*
X35134654Y-16232524D01*
X35121866Y-16215281D01*
X35110830Y-16196868D01*
X35101651Y-16177462D01*
X35094419Y-16157250D01*
X35089203Y-16136426D01*
X35086053Y-16115191D01*
X35085000Y-16093750D01*
X35085000Y-15656250D01*
X35086053Y-15634809D01*
X35089203Y-15613574D01*
X35094419Y-15592750D01*
X35101651Y-15572538D01*
X35110830Y-15553132D01*
X35121866Y-15534719D01*
X35134654Y-15517476D01*
X35149070Y-15501570D01*
X35164976Y-15487154D01*
X35182219Y-15474366D01*
X35200632Y-15463330D01*
X35220038Y-15454151D01*
X35240250Y-15446919D01*
X35261074Y-15441703D01*
X35282309Y-15438553D01*
X35303750Y-15437500D01*
X35816250Y-15437500D01*
X35837691Y-15438553D01*
X35837691Y-15438553D01*
G37*
D14*
X35560000Y-15875000D03*
D13*
G36*
X35837691Y-17013553D02*
G01*
X35858926Y-17016703D01*
X35879750Y-17021919D01*
X35899962Y-17029151D01*
X35919368Y-17038330D01*
X35937781Y-17049366D01*
X35955024Y-17062154D01*
X35970930Y-17076570D01*
X35985346Y-17092476D01*
X35998134Y-17109719D01*
X36009170Y-17128132D01*
X36018349Y-17147538D01*
X36025581Y-17167750D01*
X36030797Y-17188574D01*
X36033947Y-17209809D01*
X36035000Y-17231250D01*
X36035000Y-17668750D01*
X36033947Y-17690191D01*
X36030797Y-17711426D01*
X36025581Y-17732250D01*
X36018349Y-17752462D01*
X36009170Y-17771868D01*
X35998134Y-17790281D01*
X35985346Y-17807524D01*
X35970930Y-17823430D01*
X35955024Y-17837846D01*
X35937781Y-17850634D01*
X35919368Y-17861670D01*
X35899962Y-17870849D01*
X35879750Y-17878081D01*
X35858926Y-17883297D01*
X35837691Y-17886447D01*
X35816250Y-17887500D01*
X35303750Y-17887500D01*
X35282309Y-17886447D01*
X35261074Y-17883297D01*
X35240250Y-17878081D01*
X35220038Y-17870849D01*
X35200632Y-17861670D01*
X35182219Y-17850634D01*
X35164976Y-17837846D01*
X35149070Y-17823430D01*
X35134654Y-17807524D01*
X35121866Y-17790281D01*
X35110830Y-17771868D01*
X35101651Y-17752462D01*
X35094419Y-17732250D01*
X35089203Y-17711426D01*
X35086053Y-17690191D01*
X35085000Y-17668750D01*
X35085000Y-17231250D01*
X35086053Y-17209809D01*
X35089203Y-17188574D01*
X35094419Y-17167750D01*
X35101651Y-17147538D01*
X35110830Y-17128132D01*
X35121866Y-17109719D01*
X35134654Y-17092476D01*
X35149070Y-17076570D01*
X35164976Y-17062154D01*
X35182219Y-17049366D01*
X35200632Y-17038330D01*
X35220038Y-17029151D01*
X35240250Y-17021919D01*
X35261074Y-17016703D01*
X35282309Y-17013553D01*
X35303750Y-17012500D01*
X35816250Y-17012500D01*
X35837691Y-17013553D01*
X35837691Y-17013553D01*
G37*
D14*
X35560000Y-17450000D03*
D21*
X41874000Y-21751000D03*
X40374000Y-21751000D03*
X37374000Y-21751000D03*
D20*
X35824000Y-24976000D03*
X43424000Y-24976000D03*
X35824000Y-22776000D03*
X43424000Y-22776000D03*
D22*
X30185000Y-14325000D03*
X29535000Y-14325000D03*
X28885000Y-14325000D03*
X28235000Y-14325000D03*
X28235000Y-17425000D03*
X28885000Y-17425000D03*
X29535000Y-17425000D03*
X30185000Y-17425000D03*
D23*
X29210000Y-15875000D03*
D24*
X32512000Y-17780000D03*
X30988000Y-17526000D03*
X30226000Y-19558000D03*
X35560000Y-18542000D03*
D25*
X28575000Y-22860000D03*
D24*
X26416000Y-19558000D03*
X27432000Y-18034000D03*
D25*
X32512000Y-13716000D03*
D24*
X28581035Y-20664239D03*
X27077000Y-14325000D03*
X21082000Y-15748000D03*
X26355051Y-18227051D03*
X33274000Y-20574000D03*
X29718000Y-18542000D03*
X28740013Y-18542000D03*
X40386000Y-13462000D03*
X46228000Y-15494000D03*
X33783410Y-13462000D03*
D25*
X15875000Y-17780000D03*
X34290000Y-24130000D03*
X39370000Y-21590000D03*
D26*
X32385000Y-17653000D02*
X32512000Y-17780000D01*
X32385000Y-16662500D02*
X32385000Y-17653000D01*
X30887000Y-17425000D02*
X30988000Y-17526000D01*
X30185000Y-17425000D02*
X30887000Y-17425000D01*
X30099000Y-19685000D02*
X30226000Y-19558000D01*
X29210000Y-19685000D02*
X30099000Y-19685000D01*
X35560000Y-17450000D02*
X35560000Y-18542000D01*
D27*
X27575000Y-23860000D02*
X28575000Y-22860000D01*
X26985000Y-23860000D02*
X27575000Y-23860000D01*
D26*
X26760001Y-19902001D02*
X26416000Y-19558000D01*
X25085000Y-23810000D02*
X25735000Y-23160000D01*
X26760001Y-22570001D02*
X26760001Y-19902001D01*
X26170002Y-23160000D02*
X26760001Y-22570001D01*
X25735000Y-23160000D02*
X26170002Y-23160000D01*
X25085000Y-23860000D02*
X25085000Y-23810000D01*
X27432000Y-18034000D02*
X27432000Y-17526000D01*
X27533000Y-17425000D02*
X28235000Y-17425000D01*
X27432000Y-17526000D02*
X27533000Y-17425000D01*
X32911999Y-14115999D02*
X32512000Y-13716000D01*
X33185010Y-14389010D02*
X32911999Y-14115999D01*
X33185010Y-15531484D02*
X33185010Y-14389010D01*
X32866484Y-15850010D02*
X33185010Y-15531484D01*
X31710010Y-15850010D02*
X32866484Y-15850010D01*
X30185000Y-14325000D02*
X31710010Y-15850010D01*
X27077000Y-14325000D02*
X28235000Y-14325000D01*
X33782000Y-12497000D02*
X33782000Y-12192000D01*
X35560000Y-14275000D02*
X33782000Y-12497000D01*
X35560000Y-14275000D02*
X35560000Y-15875000D01*
X35560000Y-15875000D02*
X34759990Y-16675010D01*
X27077000Y-14325000D02*
X25654000Y-15748000D01*
X25654000Y-15748000D02*
X21082000Y-15748000D01*
X28581035Y-20664239D02*
X28397510Y-20480714D01*
X27012990Y-18884990D02*
X26655050Y-18527050D01*
X28397510Y-20480714D02*
X28397510Y-19203516D01*
X28397510Y-19203516D02*
X28078984Y-18884990D01*
X28078984Y-18884990D02*
X27012990Y-18884990D01*
X26655050Y-18527050D02*
X26355051Y-18227051D01*
X34759990Y-19088010D02*
X34759990Y-16675010D01*
X33274000Y-20574000D02*
X34759990Y-19088010D01*
X29535000Y-18359000D02*
X29718000Y-18542000D01*
X29535000Y-17425000D02*
X29535000Y-18359000D01*
X28885000Y-18397013D02*
X28740013Y-18542000D01*
X28885000Y-17425000D02*
X28885000Y-18397013D01*
D27*
X22415000Y-20275002D02*
X22415000Y-22860000D01*
X22985001Y-19705001D02*
X22415000Y-20275002D01*
X24785001Y-19705001D02*
X22985001Y-19705001D01*
X25140000Y-21860000D02*
X24785001Y-21505001D01*
X24785001Y-21505001D02*
X24785001Y-19705001D01*
X26035000Y-21860000D02*
X25140000Y-21860000D01*
D26*
X30785000Y-13487500D02*
X31923388Y-14625888D01*
X30785000Y-12065000D02*
X30785000Y-13487500D01*
X31923388Y-14625888D02*
X32385000Y-15087500D01*
X29535000Y-12390000D02*
X29535000Y-14325000D01*
X29210000Y-12065000D02*
X29535000Y-12390000D01*
X44196000Y-13462000D02*
X46228000Y-15494000D01*
X40386000Y-13462000D02*
X44196000Y-13462000D01*
X28885000Y-12983994D02*
X28885000Y-14325000D01*
X28447490Y-12546484D02*
X28885000Y-12983994D01*
X28447490Y-11583516D02*
X28447490Y-12546484D01*
X28766016Y-11264990D02*
X28447490Y-11583516D01*
X31586400Y-11264990D02*
X28766016Y-11264990D01*
X33783410Y-13462000D02*
X31586400Y-11264990D01*
D27*
X39531000Y-21751000D02*
X39370000Y-21590000D01*
X40374000Y-21751000D02*
X39531000Y-21751000D01*
X39370000Y-20320000D02*
X41910000Y-17780000D01*
X39370000Y-21590000D02*
X39370000Y-20320000D01*
X15928001Y-17726999D02*
X15875000Y-17780000D01*
X15928001Y-14658001D02*
X15928001Y-17726999D01*
X14478000Y-13208000D02*
X15928001Y-14658001D01*
X32908000Y-24130000D02*
X32654000Y-23876000D01*
X34290000Y-24130000D02*
X32908000Y-24130000D01*
D28*
G36*
X23159189Y-11580519D02*
G01*
X23146929Y-11705001D01*
X23146929Y-13705001D01*
X23159189Y-13829483D01*
X23195499Y-13949181D01*
X23254464Y-14059495D01*
X23333816Y-14156186D01*
X23430507Y-14235538D01*
X23540821Y-14294503D01*
X23660519Y-14330813D01*
X23785001Y-14343073D01*
X25785001Y-14343073D01*
X25909483Y-14330813D01*
X26029181Y-14294503D01*
X26036731Y-14290467D01*
X25339199Y-14988000D01*
X21627535Y-14988000D01*
X21524889Y-14919414D01*
X21354729Y-14848932D01*
X21174089Y-14813000D01*
X20989911Y-14813000D01*
X20809271Y-14848932D01*
X20639111Y-14919414D01*
X20485972Y-15021738D01*
X20355738Y-15151972D01*
X20253414Y-15305111D01*
X20182932Y-15475271D01*
X20147000Y-15655911D01*
X20147000Y-15840089D01*
X20182932Y-16020729D01*
X20253414Y-16190889D01*
X20355738Y-16344028D01*
X20485972Y-16474262D01*
X20639111Y-16576586D01*
X20809271Y-16647068D01*
X20989911Y-16683000D01*
X21174089Y-16683000D01*
X21354729Y-16647068D01*
X21524889Y-16576586D01*
X21627535Y-16508000D01*
X25616678Y-16508000D01*
X25654000Y-16511676D01*
X25691322Y-16508000D01*
X25691333Y-16508000D01*
X25802986Y-16497003D01*
X25946247Y-16453546D01*
X26078276Y-16382974D01*
X26194001Y-16288001D01*
X26217804Y-16258997D01*
X27228649Y-15248153D01*
X27349729Y-15224068D01*
X27371928Y-15214873D01*
X27371928Y-16650000D01*
X27374765Y-16678803D01*
X27240753Y-16719454D01*
X27108724Y-16790026D01*
X26992999Y-16884999D01*
X26969196Y-16914003D01*
X26920998Y-16962201D01*
X26892000Y-16985999D01*
X26797026Y-17101724D01*
X26726454Y-17233753D01*
X26690047Y-17353774D01*
X26627780Y-17327983D01*
X26447140Y-17292051D01*
X26262962Y-17292051D01*
X26082322Y-17327983D01*
X25912162Y-17398465D01*
X25759023Y-17500789D01*
X25628789Y-17631023D01*
X25526465Y-17784162D01*
X25455983Y-17954322D01*
X25433584Y-18066929D01*
X23785001Y-18066929D01*
X23660519Y-18079189D01*
X23540821Y-18115499D01*
X23430507Y-18174464D01*
X23333816Y-18253816D01*
X23254464Y-18350507D01*
X23195499Y-18460821D01*
X23159189Y-18580519D01*
X23150376Y-18670001D01*
X23035828Y-18670001D01*
X22985000Y-18664995D01*
X22934172Y-18670001D01*
X22934163Y-18670001D01*
X22782106Y-18684977D01*
X22587008Y-18744160D01*
X22407204Y-18840267D01*
X22249605Y-18969605D01*
X22217194Y-19009098D01*
X21719097Y-19507195D01*
X21679604Y-19539606D01*
X21550266Y-19697205D01*
X21454159Y-19877010D01*
X21394976Y-20072108D01*
X21380000Y-20224165D01*
X21380000Y-20224174D01*
X21374994Y-20275002D01*
X21380000Y-20325830D01*
X21380000Y-21321928D01*
X21165000Y-21321928D01*
X21040518Y-21334188D01*
X20920820Y-21370498D01*
X20810506Y-21429463D01*
X20713815Y-21508815D01*
X20634463Y-21605506D01*
X20575498Y-21715820D01*
X20539188Y-21835518D01*
X20526928Y-21960000D01*
X20526928Y-23760000D01*
X20539188Y-23884482D01*
X20575498Y-24004180D01*
X20634463Y-24114494D01*
X20713815Y-24211185D01*
X20810506Y-24290537D01*
X20920820Y-24349502D01*
X21040518Y-24385812D01*
X21165000Y-24398072D01*
X23665000Y-24398072D01*
X23789482Y-24385812D01*
X23909180Y-24349502D01*
X24019494Y-24290537D01*
X24046928Y-24268023D01*
X24046928Y-24310000D01*
X24059188Y-24434482D01*
X24095498Y-24554180D01*
X24154463Y-24664494D01*
X24233815Y-24761185D01*
X24330506Y-24840537D01*
X24440820Y-24899502D01*
X24560518Y-24935812D01*
X24685000Y-24948072D01*
X25485000Y-24948072D01*
X25609482Y-24935812D01*
X25729180Y-24899502D01*
X25839494Y-24840537D01*
X25936185Y-24761185D01*
X26015537Y-24664494D01*
X26035000Y-24628082D01*
X26054463Y-24664494D01*
X26133815Y-24761185D01*
X26230506Y-24840537D01*
X26340820Y-24899502D01*
X26460518Y-24935812D01*
X26585000Y-24948072D01*
X27385000Y-24948072D01*
X27509482Y-24935812D01*
X27629180Y-24899502D01*
X27640260Y-24893580D01*
X27777895Y-24880024D01*
X27972993Y-24820841D01*
X28152797Y-24724734D01*
X28273104Y-24626000D01*
X30215928Y-24626000D01*
X30228188Y-24750482D01*
X30264498Y-24870180D01*
X30323463Y-24980494D01*
X30402815Y-25077185D01*
X30499506Y-25156537D01*
X30609820Y-25215502D01*
X30729518Y-25251812D01*
X30854000Y-25264072D01*
X31068250Y-25261000D01*
X31227000Y-25102250D01*
X31227000Y-24003000D01*
X30377750Y-24003000D01*
X30219000Y-24161750D01*
X30215928Y-24626000D01*
X28273104Y-24626000D01*
X28310396Y-24595396D01*
X28342807Y-24555903D01*
X29342803Y-23555908D01*
X29378937Y-23519774D01*
X29407325Y-23477288D01*
X29439734Y-23437798D01*
X29463817Y-23392742D01*
X29492205Y-23350256D01*
X29511760Y-23303047D01*
X29535841Y-23257994D01*
X29550669Y-23209113D01*
X29570226Y-23161898D01*
X29577366Y-23126000D01*
X30215928Y-23126000D01*
X30219000Y-23590250D01*
X30377750Y-23749000D01*
X31227000Y-23749000D01*
X31227000Y-22649750D01*
X31068250Y-22491000D01*
X30854000Y-22487928D01*
X30729518Y-22500188D01*
X30609820Y-22536498D01*
X30499506Y-22595463D01*
X30402815Y-22674815D01*
X30323463Y-22771506D01*
X30264498Y-22881820D01*
X30228188Y-23001518D01*
X30215928Y-23126000D01*
X29577366Y-23126000D01*
X29580197Y-23111771D01*
X29595023Y-23062895D01*
X29600030Y-23012064D01*
X29610000Y-22961939D01*
X29610000Y-22910835D01*
X29615007Y-22860000D01*
X29610000Y-22809165D01*
X29610000Y-22758061D01*
X29600030Y-22707936D01*
X29595023Y-22657105D01*
X29580197Y-22608230D01*
X29570226Y-22558102D01*
X29550668Y-22510885D01*
X29535841Y-22462007D01*
X29511762Y-22416958D01*
X29492205Y-22369744D01*
X29463814Y-22327254D01*
X29439734Y-22282203D01*
X29407328Y-22242716D01*
X29378937Y-22200226D01*
X29342803Y-22164092D01*
X29310396Y-22124604D01*
X29270908Y-22092197D01*
X29234774Y-22056063D01*
X29192284Y-22027672D01*
X29152797Y-21995266D01*
X29107746Y-21971186D01*
X29065256Y-21942795D01*
X29018042Y-21923238D01*
X28972993Y-21899159D01*
X28924115Y-21884332D01*
X28876898Y-21864774D01*
X28826770Y-21854803D01*
X28777895Y-21839977D01*
X28727064Y-21834970D01*
X28676939Y-21825000D01*
X28625835Y-21825000D01*
X28575000Y-21819993D01*
X28524165Y-21825000D01*
X28473061Y-21825000D01*
X28422936Y-21834970D01*
X28372105Y-21839977D01*
X28323229Y-21854803D01*
X28273102Y-21864774D01*
X28225887Y-21884331D01*
X28177006Y-21899159D01*
X28131953Y-21923240D01*
X28084744Y-21942795D01*
X28042258Y-21971183D01*
X27997202Y-21995266D01*
X27957712Y-22027675D01*
X27915226Y-22056063D01*
X27520001Y-22451288D01*
X27520001Y-19939324D01*
X27523677Y-19902001D01*
X27520001Y-19864678D01*
X27520001Y-19864668D01*
X27509004Y-19753015D01*
X27488000Y-19683772D01*
X27488000Y-19644990D01*
X27637511Y-19644990D01*
X27637510Y-20443391D01*
X27633834Y-20480714D01*
X27637510Y-20518036D01*
X27637510Y-20518046D01*
X27646035Y-20604601D01*
X27646035Y-20756328D01*
X27681967Y-20936968D01*
X27752449Y-21107128D01*
X27854773Y-21260267D01*
X27985007Y-21390501D01*
X28138146Y-21492825D01*
X28308306Y-21563307D01*
X28488946Y-21599239D01*
X28673124Y-21599239D01*
X28853764Y-21563307D01*
X29023924Y-21492825D01*
X29177063Y-21390501D01*
X29307297Y-21260267D01*
X29409621Y-21107128D01*
X29480103Y-20936968D01*
X29509310Y-20790137D01*
X29595908Y-20781608D01*
X29756642Y-20732850D01*
X29904775Y-20653671D01*
X30034615Y-20547115D01*
X30086728Y-20483615D01*
X30133911Y-20493000D01*
X30318089Y-20493000D01*
X30498729Y-20457068D01*
X30668889Y-20386586D01*
X30822028Y-20284262D01*
X30952262Y-20154028D01*
X31054586Y-20000889D01*
X31125068Y-19830729D01*
X31161000Y-19650089D01*
X31161000Y-19465911D01*
X31125068Y-19285271D01*
X31054586Y-19115111D01*
X30952262Y-18961972D01*
X30822028Y-18831738D01*
X30668889Y-18729414D01*
X30636691Y-18716077D01*
X30653000Y-18634089D01*
X30653000Y-18449911D01*
X30642023Y-18394728D01*
X30715271Y-18425068D01*
X30895911Y-18461000D01*
X31080089Y-18461000D01*
X31260729Y-18425068D01*
X31430889Y-18354586D01*
X31584028Y-18252262D01*
X31662908Y-18173382D01*
X31683414Y-18222889D01*
X31785738Y-18376028D01*
X31915972Y-18506262D01*
X32069111Y-18608586D01*
X32239271Y-18679068D01*
X32419911Y-18715000D01*
X32604089Y-18715000D01*
X32784729Y-18679068D01*
X32954889Y-18608586D01*
X33108028Y-18506262D01*
X33238262Y-18376028D01*
X33340586Y-18222889D01*
X33411068Y-18052729D01*
X33447000Y-17872089D01*
X33447000Y-17687911D01*
X33411068Y-17507271D01*
X33350526Y-17361108D01*
X33353671Y-17357275D01*
X33432850Y-17209142D01*
X33481608Y-17048408D01*
X33498072Y-16881250D01*
X33498072Y-16443750D01*
X33481608Y-16276592D01*
X33432850Y-16115858D01*
X33353671Y-15967725D01*
X33277574Y-15875000D01*
X33353671Y-15782275D01*
X33432850Y-15634142D01*
X33481608Y-15473408D01*
X33498072Y-15306250D01*
X33498072Y-14868750D01*
X33481608Y-14701592D01*
X33432850Y-14540858D01*
X33353671Y-14392725D01*
X33247115Y-14262885D01*
X33117275Y-14156329D01*
X32969142Y-14077150D01*
X32808408Y-14028392D01*
X32641250Y-14011928D01*
X32384230Y-14011928D01*
X31545000Y-13172699D01*
X31545000Y-12980143D01*
X31609615Y-12927115D01*
X31716171Y-12797275D01*
X31795350Y-12649142D01*
X31818718Y-12572109D01*
X32860257Y-13613649D01*
X32884342Y-13734729D01*
X32954824Y-13904889D01*
X33057148Y-14058028D01*
X33187382Y-14188262D01*
X33340521Y-14290586D01*
X33510681Y-14361068D01*
X33691321Y-14397000D01*
X33875499Y-14397000D01*
X34056139Y-14361068D01*
X34226299Y-14290586D01*
X34379438Y-14188262D01*
X34388949Y-14178751D01*
X34446928Y-14236730D01*
X34446928Y-14493750D01*
X34463392Y-14660908D01*
X34512150Y-14821642D01*
X34591329Y-14969775D01*
X34677684Y-15075000D01*
X34591329Y-15180225D01*
X34512150Y-15328358D01*
X34463392Y-15489092D01*
X34446928Y-15656250D01*
X34446928Y-15913271D01*
X34248988Y-16111211D01*
X34219990Y-16135009D01*
X34196192Y-16164007D01*
X34196191Y-16164008D01*
X34125016Y-16250734D01*
X34054444Y-16382764D01*
X34030431Y-16461928D01*
X34014783Y-16513515D01*
X34010988Y-16526025D01*
X33996314Y-16675010D01*
X33999991Y-16712342D01*
X33999990Y-18773208D01*
X33122351Y-19650847D01*
X33001271Y-19674932D01*
X32831111Y-19745414D01*
X32677972Y-19847738D01*
X32547738Y-19977972D01*
X32445414Y-20131111D01*
X32374932Y-20301271D01*
X32339000Y-20481911D01*
X32339000Y-20666089D01*
X32374932Y-20846729D01*
X32445414Y-21016889D01*
X32547738Y-21170028D01*
X32677972Y-21300262D01*
X32831111Y-21402586D01*
X33001271Y-21473068D01*
X33181911Y-21509000D01*
X33366089Y-21509000D01*
X33546729Y-21473068D01*
X33716889Y-21402586D01*
X33870028Y-21300262D01*
X34000262Y-21170028D01*
X34102586Y-21016889D01*
X34173068Y-20846729D01*
X34197153Y-20725649D01*
X35270994Y-19651808D01*
X35299991Y-19628011D01*
X35394964Y-19512286D01*
X35419023Y-19467275D01*
X35467911Y-19477000D01*
X35652089Y-19477000D01*
X35832729Y-19441068D01*
X36002889Y-19370586D01*
X36156028Y-19268262D01*
X36286262Y-19138028D01*
X36388586Y-18984889D01*
X36459068Y-18814729D01*
X36495000Y-18634089D01*
X36495000Y-18449911D01*
X36459068Y-18269271D01*
X36448144Y-18242898D01*
X36528671Y-18144775D01*
X36607850Y-17996642D01*
X36656608Y-17835908D01*
X36673072Y-17668750D01*
X36673072Y-17231250D01*
X36656608Y-17064092D01*
X36607850Y-16903358D01*
X36528671Y-16755225D01*
X36452574Y-16662500D01*
X36528671Y-16569775D01*
X36607850Y-16421642D01*
X36656608Y-16260908D01*
X36673072Y-16093750D01*
X36673072Y-15656250D01*
X36656608Y-15489092D01*
X36607850Y-15328358D01*
X36528671Y-15180225D01*
X36442316Y-15075000D01*
X36528671Y-14969775D01*
X36607850Y-14821642D01*
X36656608Y-14660908D01*
X36673072Y-14493750D01*
X36673072Y-14056250D01*
X36656608Y-13889092D01*
X36607850Y-13728358D01*
X36528671Y-13580225D01*
X36510900Y-13558570D01*
X36565537Y-13491994D01*
X36624502Y-13381680D01*
X36628072Y-13369911D01*
X39451000Y-13369911D01*
X39451000Y-13554089D01*
X39486932Y-13734729D01*
X39557414Y-13904889D01*
X39659738Y-14058028D01*
X39789972Y-14188262D01*
X39943111Y-14290586D01*
X40113271Y-14361068D01*
X40293911Y-14397000D01*
X40478089Y-14397000D01*
X40658729Y-14361068D01*
X40828889Y-14290586D01*
X40931535Y-14222000D01*
X43881199Y-14222000D01*
X45304847Y-15645649D01*
X45328932Y-15766729D01*
X45399414Y-15936889D01*
X45501738Y-16090028D01*
X45631972Y-16220262D01*
X45785111Y-16322586D01*
X45955271Y-16393068D01*
X46135911Y-16429000D01*
X46320089Y-16429000D01*
X46500729Y-16393068D01*
X46670889Y-16322586D01*
X46824028Y-16220262D01*
X46954262Y-16090028D01*
X47056586Y-15936889D01*
X47127068Y-15766729D01*
X47163000Y-15586089D01*
X47163000Y-15401911D01*
X47127068Y-15221271D01*
X47056586Y-15051111D01*
X46954262Y-14897972D01*
X46824028Y-14767738D01*
X46670889Y-14665414D01*
X46500729Y-14594932D01*
X46379649Y-14570847D01*
X44759804Y-12951003D01*
X44736001Y-12921999D01*
X44620276Y-12827026D01*
X44488247Y-12756454D01*
X44344986Y-12712997D01*
X44233333Y-12702000D01*
X44233322Y-12702000D01*
X44196000Y-12698324D01*
X44158678Y-12702000D01*
X40931535Y-12702000D01*
X40828889Y-12633414D01*
X40658729Y-12562932D01*
X40478089Y-12527000D01*
X40293911Y-12527000D01*
X40113271Y-12562932D01*
X39943111Y-12633414D01*
X39789972Y-12735738D01*
X39659738Y-12865972D01*
X39557414Y-13019111D01*
X39486932Y-13189271D01*
X39451000Y-13369911D01*
X36628072Y-13369911D01*
X36660812Y-13261982D01*
X36673072Y-13137500D01*
X36670000Y-12985750D01*
X36511250Y-12827000D01*
X35687000Y-12827000D01*
X35687000Y-12847000D01*
X35433000Y-12847000D01*
X35433000Y-12827000D01*
X35413000Y-12827000D01*
X35413000Y-12573000D01*
X35433000Y-12573000D01*
X35433000Y-11786250D01*
X35687000Y-11786250D01*
X35687000Y-12573000D01*
X36511250Y-12573000D01*
X36670000Y-12414250D01*
X36673072Y-12262500D01*
X36660812Y-12138018D01*
X36624502Y-12018320D01*
X36565537Y-11908006D01*
X36486185Y-11811315D01*
X36389494Y-11731963D01*
X36279180Y-11672998D01*
X36159482Y-11636688D01*
X36035000Y-11624428D01*
X35845750Y-11627500D01*
X35687000Y-11786250D01*
X35433000Y-11786250D01*
X35274250Y-11627500D01*
X35085000Y-11624428D01*
X34960518Y-11636688D01*
X34840820Y-11672998D01*
X34803746Y-11692815D01*
X34787824Y-11654376D01*
X34688014Y-11505000D01*
X47550000Y-11505000D01*
X47550000Y-17530294D01*
X47410134Y-17359866D01*
X47184014Y-17174294D01*
X46926034Y-17036401D01*
X46646111Y-16951487D01*
X46427950Y-16930000D01*
X46282050Y-16930000D01*
X46063889Y-16951487D01*
X45783966Y-17036401D01*
X45525986Y-17174294D01*
X45299866Y-17359866D01*
X45114294Y-17585986D01*
X44976401Y-17843966D01*
X44891487Y-18123889D01*
X44862815Y-18415000D01*
X44891487Y-18706111D01*
X44976401Y-18986034D01*
X45114294Y-19244014D01*
X45299866Y-19470134D01*
X45525986Y-19655706D01*
X45580791Y-19685000D01*
X45525986Y-19714294D01*
X45299866Y-19899866D01*
X45114294Y-20125986D01*
X44976401Y-20383966D01*
X44891487Y-20663889D01*
X44862815Y-20955000D01*
X44891487Y-21246111D01*
X44976401Y-21526034D01*
X45114294Y-21784014D01*
X45299866Y-22010134D01*
X45329687Y-22034607D01*
X45260820Y-22055498D01*
X45150506Y-22114463D01*
X45053815Y-22193815D01*
X44974463Y-22290506D01*
X44915498Y-22400820D01*
X44879188Y-22520518D01*
X44866928Y-22645000D01*
X44870000Y-23209250D01*
X45028750Y-23368000D01*
X46228000Y-23368000D01*
X46228000Y-23348000D01*
X46482000Y-23348000D01*
X46482000Y-23368000D01*
X46502000Y-23368000D01*
X46502000Y-23622000D01*
X46482000Y-23622000D01*
X46482000Y-24821250D01*
X46640750Y-24980000D01*
X47205000Y-24983072D01*
X47329482Y-24970812D01*
X47449180Y-24934502D01*
X47550001Y-24880611D01*
X47550001Y-25325000D01*
X44462072Y-25325000D01*
X44462072Y-24526000D01*
X44449812Y-24401518D01*
X44432668Y-24345000D01*
X44866928Y-24345000D01*
X44879188Y-24469482D01*
X44915498Y-24589180D01*
X44974463Y-24699494D01*
X45053815Y-24796185D01*
X45150506Y-24875537D01*
X45260820Y-24934502D01*
X45380518Y-24970812D01*
X45505000Y-24983072D01*
X46069250Y-24980000D01*
X46228000Y-24821250D01*
X46228000Y-23622000D01*
X45028750Y-23622000D01*
X44870000Y-23780750D01*
X44866928Y-24345000D01*
X44432668Y-24345000D01*
X44413502Y-24281820D01*
X44354537Y-24171506D01*
X44275185Y-24074815D01*
X44178494Y-23995463D01*
X44068180Y-23936498D01*
X43948482Y-23900188D01*
X43824000Y-23887928D01*
X43024000Y-23887928D01*
X42899518Y-23900188D01*
X42779820Y-23936498D01*
X42669506Y-23995463D01*
X42572815Y-24074815D01*
X42493463Y-24171506D01*
X42434498Y-24281820D01*
X42398188Y-24401518D01*
X42385928Y-24526000D01*
X42385928Y-25325000D01*
X36862072Y-25325000D01*
X36862072Y-24526000D01*
X36849812Y-24401518D01*
X36813502Y-24281820D01*
X36754537Y-24171506D01*
X36675185Y-24074815D01*
X36578494Y-23995463D01*
X36468180Y-23936498D01*
X36348482Y-23900188D01*
X36224000Y-23887928D01*
X35424000Y-23887928D01*
X35301791Y-23899964D01*
X35295196Y-23878223D01*
X35289327Y-23848721D01*
X35299518Y-23851812D01*
X35424000Y-23864072D01*
X36224000Y-23864072D01*
X36348482Y-23851812D01*
X36468180Y-23815502D01*
X36554921Y-23769137D01*
X37039000Y-23769137D01*
X37039000Y-23982863D01*
X37080696Y-24192483D01*
X37162485Y-24389940D01*
X37281225Y-24567647D01*
X37432353Y-24718775D01*
X37610060Y-24837515D01*
X37807517Y-24919304D01*
X38017137Y-24961000D01*
X38230863Y-24961000D01*
X38440483Y-24919304D01*
X38637940Y-24837515D01*
X38815647Y-24718775D01*
X38966775Y-24567647D01*
X39085515Y-24389940D01*
X39167304Y-24192483D01*
X39209000Y-23982863D01*
X39209000Y-23769137D01*
X39167304Y-23559517D01*
X39085515Y-23362060D01*
X38966775Y-23184353D01*
X38815647Y-23033225D01*
X38637940Y-22914485D01*
X38440483Y-22832696D01*
X38294494Y-22803657D01*
X38354537Y-22730494D01*
X38413502Y-22620180D01*
X38449812Y-22500482D01*
X38462072Y-22376000D01*
X38459485Y-22090268D01*
X38481186Y-22122747D01*
X38505266Y-22167797D01*
X38537672Y-22207284D01*
X38566063Y-22249774D01*
X38602196Y-22285907D01*
X38634604Y-22325396D01*
X38674092Y-22357803D01*
X38710226Y-22393937D01*
X38710229Y-22393939D01*
X38763193Y-22446903D01*
X38795604Y-22486396D01*
X38953203Y-22615734D01*
X39133007Y-22711841D01*
X39328105Y-22771024D01*
X39435397Y-22781591D01*
X39472815Y-22827185D01*
X39569506Y-22906537D01*
X39679820Y-22965502D01*
X39799518Y-23001812D01*
X39924000Y-23014072D01*
X40461017Y-23014072D01*
X40432353Y-23033225D01*
X40281225Y-23184353D01*
X40162485Y-23362060D01*
X40080696Y-23559517D01*
X40039000Y-23769137D01*
X40039000Y-23982863D01*
X40080696Y-24192483D01*
X40162485Y-24389940D01*
X40281225Y-24567647D01*
X40432353Y-24718775D01*
X40610060Y-24837515D01*
X40807517Y-24919304D01*
X41017137Y-24961000D01*
X41230863Y-24961000D01*
X41440483Y-24919304D01*
X41637940Y-24837515D01*
X41815647Y-24718775D01*
X41966775Y-24567647D01*
X42085515Y-24389940D01*
X42167304Y-24192483D01*
X42209000Y-23982863D01*
X42209000Y-23769137D01*
X42167304Y-23559517D01*
X42085515Y-23362060D01*
X41966775Y-23184353D01*
X41815647Y-23033225D01*
X41786983Y-23014072D01*
X42324000Y-23014072D01*
X42385928Y-23007973D01*
X42385928Y-23226000D01*
X42398188Y-23350482D01*
X42434498Y-23470180D01*
X42493463Y-23580494D01*
X42572815Y-23677185D01*
X42669506Y-23756537D01*
X42779820Y-23815502D01*
X42899518Y-23851812D01*
X43024000Y-23864072D01*
X43824000Y-23864072D01*
X43948482Y-23851812D01*
X44068180Y-23815502D01*
X44178494Y-23756537D01*
X44275185Y-23677185D01*
X44354537Y-23580494D01*
X44413502Y-23470180D01*
X44449812Y-23350482D01*
X44462072Y-23226000D01*
X44462072Y-22326000D01*
X44449812Y-22201518D01*
X44413502Y-22081820D01*
X44354537Y-21971506D01*
X44275185Y-21874815D01*
X44178494Y-21795463D01*
X44068180Y-21736498D01*
X43948482Y-21700188D01*
X43824000Y-21687928D01*
X43024000Y-21687928D01*
X42962072Y-21694027D01*
X42962072Y-21126000D01*
X42949812Y-21001518D01*
X42913502Y-20881820D01*
X42854537Y-20771506D01*
X42775185Y-20674815D01*
X42678494Y-20595463D01*
X42568180Y-20536498D01*
X42448482Y-20500188D01*
X42324000Y-20487928D01*
X41424000Y-20487928D01*
X41299518Y-20500188D01*
X41179820Y-20536498D01*
X41124000Y-20566335D01*
X41068180Y-20536498D01*
X40948482Y-20500188D01*
X40824000Y-20487928D01*
X40665782Y-20487928D01*
X41860639Y-19293072D01*
X42260001Y-19293072D01*
X42433255Y-19276008D01*
X42599851Y-19225472D01*
X42753387Y-19143405D01*
X42887962Y-19032962D01*
X42998405Y-18898387D01*
X43080472Y-18744851D01*
X43131008Y-18578255D01*
X43148072Y-18405001D01*
X43148072Y-17154999D01*
X43131008Y-16981745D01*
X43080472Y-16815149D01*
X42998405Y-16661613D01*
X42887962Y-16527038D01*
X42753387Y-16416595D01*
X42599851Y-16334528D01*
X42433255Y-16283992D01*
X42260001Y-16266928D01*
X41559999Y-16266928D01*
X41386745Y-16283992D01*
X41220149Y-16334528D01*
X41066613Y-16416595D01*
X40932038Y-16527038D01*
X40821595Y-16661613D01*
X40819191Y-16666111D01*
X40787502Y-16627498D01*
X40599449Y-16473167D01*
X40384901Y-16358489D01*
X40152102Y-16287870D01*
X39910000Y-16264025D01*
X39667899Y-16287870D01*
X39435100Y-16358489D01*
X39220552Y-16473167D01*
X39032499Y-16627498D01*
X38878168Y-16815551D01*
X38763489Y-17030099D01*
X38692870Y-17262898D01*
X38675000Y-17444335D01*
X38675000Y-18115664D01*
X38692870Y-18297101D01*
X38763489Y-18529900D01*
X38878167Y-18744448D01*
X39032498Y-18932502D01*
X39176010Y-19050279D01*
X38674092Y-19552198D01*
X38634605Y-19584604D01*
X38602198Y-19624092D01*
X38602197Y-19624093D01*
X38505266Y-19742203D01*
X38409160Y-19922007D01*
X38349977Y-20117105D01*
X38329994Y-20320000D01*
X38335001Y-20370837D01*
X38335001Y-20747701D01*
X38275185Y-20674815D01*
X38178494Y-20595463D01*
X38068180Y-20536498D01*
X37948482Y-20500188D01*
X37824000Y-20487928D01*
X37659750Y-20491000D01*
X37501000Y-20649750D01*
X37501000Y-21624000D01*
X37521000Y-21624000D01*
X37521000Y-21878000D01*
X37501000Y-21878000D01*
X37501000Y-22852250D01*
X37581990Y-22933240D01*
X37432353Y-23033225D01*
X37281225Y-23184353D01*
X37162485Y-23362060D01*
X37080696Y-23559517D01*
X37039000Y-23769137D01*
X36554921Y-23769137D01*
X36578494Y-23756537D01*
X36675185Y-23677185D01*
X36754537Y-23580494D01*
X36813502Y-23470180D01*
X36849812Y-23350482D01*
X36862072Y-23226000D01*
X36862072Y-23007973D01*
X36924000Y-23014072D01*
X37088250Y-23011000D01*
X37247000Y-22852250D01*
X37247000Y-21878000D01*
X37227000Y-21878000D01*
X37227000Y-21624000D01*
X37247000Y-21624000D01*
X37247000Y-20649750D01*
X37088250Y-20491000D01*
X36924000Y-20487928D01*
X36799518Y-20500188D01*
X36679820Y-20536498D01*
X36569506Y-20595463D01*
X36472815Y-20674815D01*
X36393463Y-20771506D01*
X36334498Y-20881820D01*
X36298188Y-21001518D01*
X36285928Y-21126000D01*
X36289000Y-21465250D01*
X36447748Y-21623998D01*
X36289000Y-21623998D01*
X36289000Y-21694330D01*
X36224000Y-21687928D01*
X35424000Y-21687928D01*
X35299518Y-21700188D01*
X35179820Y-21736498D01*
X35069506Y-21795463D01*
X34972815Y-21874815D01*
X34893463Y-21971506D01*
X34834498Y-22081820D01*
X34798188Y-22201518D01*
X34785928Y-22326000D01*
X34785928Y-23216585D01*
X34780256Y-23212795D01*
X34733042Y-23193238D01*
X34687993Y-23169159D01*
X34639113Y-23154331D01*
X34591898Y-23134774D01*
X34541777Y-23124804D01*
X34492895Y-23109976D01*
X34442057Y-23104969D01*
X34391939Y-23095000D01*
X33789019Y-23095000D01*
X33779812Y-23001518D01*
X33743502Y-22881820D01*
X33684537Y-22771506D01*
X33605185Y-22674815D01*
X33508494Y-22595463D01*
X33398180Y-22536498D01*
X33278482Y-22500188D01*
X33154000Y-22487928D01*
X32154000Y-22487928D01*
X32029518Y-22500188D01*
X32004000Y-22507929D01*
X31978482Y-22500188D01*
X31854000Y-22487928D01*
X31639750Y-22491000D01*
X31481000Y-22649750D01*
X31481000Y-23749000D01*
X31501000Y-23749000D01*
X31501000Y-24003000D01*
X31481000Y-24003000D01*
X31481000Y-25102250D01*
X31639750Y-25261000D01*
X31854000Y-25264072D01*
X31978482Y-25251812D01*
X32004000Y-25244071D01*
X32029518Y-25251812D01*
X32154000Y-25264072D01*
X33154000Y-25264072D01*
X33278482Y-25251812D01*
X33398180Y-25215502D01*
X33492661Y-25165000D01*
X34391939Y-25165000D01*
X34442057Y-25155031D01*
X34492895Y-25150024D01*
X34541777Y-25135196D01*
X34591898Y-25125226D01*
X34639113Y-25105669D01*
X34687993Y-25090841D01*
X34733042Y-25066762D01*
X34780256Y-25047205D01*
X34785928Y-25043415D01*
X34785928Y-25325000D01*
X13410000Y-25325000D01*
X13410000Y-23760000D01*
X16526928Y-23760000D01*
X16539188Y-23884482D01*
X16575498Y-24004180D01*
X16634463Y-24114494D01*
X16713815Y-24211185D01*
X16810506Y-24290537D01*
X16920820Y-24349502D01*
X17040518Y-24385812D01*
X17165000Y-24398072D01*
X18129250Y-24395000D01*
X18288000Y-24236250D01*
X18288000Y-22987000D01*
X18542000Y-22987000D01*
X18542000Y-24236250D01*
X18700750Y-24395000D01*
X19665000Y-24398072D01*
X19789482Y-24385812D01*
X19909180Y-24349502D01*
X20019494Y-24290537D01*
X20116185Y-24211185D01*
X20195537Y-24114494D01*
X20254502Y-24004180D01*
X20290812Y-23884482D01*
X20303072Y-23760000D01*
X20300000Y-23145750D01*
X20141250Y-22987000D01*
X18542000Y-22987000D01*
X18288000Y-22987000D01*
X16688750Y-22987000D01*
X16530000Y-23145750D01*
X16526928Y-23760000D01*
X13410000Y-23760000D01*
X13410000Y-20705001D01*
X16146929Y-20705001D01*
X16159189Y-20829483D01*
X16195499Y-20949181D01*
X16254464Y-21059495D01*
X16333816Y-21156186D01*
X16430507Y-21235538D01*
X16540821Y-21294503D01*
X16660519Y-21330813D01*
X16785001Y-21343073D01*
X17014482Y-21342086D01*
X16920820Y-21370498D01*
X16810506Y-21429463D01*
X16713815Y-21508815D01*
X16634463Y-21605506D01*
X16575498Y-21715820D01*
X16539188Y-21835518D01*
X16526928Y-21960000D01*
X16530000Y-22574250D01*
X16688750Y-22733000D01*
X18288000Y-22733000D01*
X18288000Y-22713000D01*
X18542000Y-22713000D01*
X18542000Y-22733000D01*
X20141250Y-22733000D01*
X20300000Y-22574250D01*
X20303072Y-21960000D01*
X20290812Y-21835518D01*
X20254502Y-21715820D01*
X20195537Y-21605506D01*
X20116185Y-21508815D01*
X20019494Y-21429463D01*
X19909180Y-21370498D01*
X19789482Y-21334188D01*
X19665000Y-21321928D01*
X18931065Y-21324266D01*
X19029181Y-21294503D01*
X19139495Y-21235538D01*
X19236186Y-21156186D01*
X19315538Y-21059495D01*
X19374503Y-20949181D01*
X19410813Y-20829483D01*
X19423073Y-20705001D01*
X19420001Y-19990751D01*
X19261251Y-19832001D01*
X17912001Y-19832001D01*
X17912001Y-19852001D01*
X17658001Y-19852001D01*
X17658001Y-19832001D01*
X16308751Y-19832001D01*
X16150001Y-19990751D01*
X16146929Y-20705001D01*
X13410000Y-20705001D01*
X13410000Y-19327457D01*
X13422866Y-19343134D01*
X13648986Y-19528706D01*
X13906966Y-19666599D01*
X14186889Y-19751513D01*
X14405050Y-19773000D01*
X14550950Y-19773000D01*
X14769111Y-19751513D01*
X15049034Y-19666599D01*
X15307014Y-19528706D01*
X15533134Y-19343134D01*
X15718706Y-19117014D01*
X15856599Y-18859034D01*
X15868628Y-18819378D01*
X15875000Y-18820006D01*
X15925828Y-18815000D01*
X15976939Y-18815000D01*
X16027067Y-18805029D01*
X16077895Y-18800023D01*
X16126768Y-18785197D01*
X16147256Y-18781122D01*
X16150001Y-19419251D01*
X16308751Y-19578001D01*
X17658001Y-19578001D01*
X17658001Y-18228751D01*
X17912001Y-18228751D01*
X17912001Y-19578001D01*
X19261251Y-19578001D01*
X19420001Y-19419251D01*
X19423073Y-18705001D01*
X19410813Y-18580519D01*
X19374503Y-18460821D01*
X19315538Y-18350507D01*
X19236186Y-18253816D01*
X19139495Y-18174464D01*
X19029181Y-18115499D01*
X18909483Y-18079189D01*
X18785001Y-18066929D01*
X18070751Y-18070001D01*
X17912001Y-18228751D01*
X17658001Y-18228751D01*
X17499251Y-18070001D01*
X16906297Y-18067451D01*
X16948025Y-17929894D01*
X16963001Y-17777837D01*
X16963001Y-17777834D01*
X16968008Y-17726999D01*
X16963001Y-17676164D01*
X16963001Y-14708828D01*
X16968007Y-14658000D01*
X16963001Y-14607172D01*
X16963001Y-14607163D01*
X16948025Y-14455106D01*
X16914040Y-14343073D01*
X18785001Y-14343073D01*
X18909483Y-14330813D01*
X19029181Y-14294503D01*
X19139495Y-14235538D01*
X19236186Y-14156186D01*
X19315538Y-14059495D01*
X19374503Y-13949181D01*
X19410813Y-13829483D01*
X19423073Y-13705001D01*
X19423073Y-11705001D01*
X19410813Y-11580519D01*
X19387905Y-11505000D01*
X23182097Y-11505000D01*
X23159189Y-11580519D01*
X23159189Y-11580519D01*
G37*
X23159189Y-11580519D02*
X23146929Y-11705001D01*
X23146929Y-13705001D01*
X23159189Y-13829483D01*
X23195499Y-13949181D01*
X23254464Y-14059495D01*
X23333816Y-14156186D01*
X23430507Y-14235538D01*
X23540821Y-14294503D01*
X23660519Y-14330813D01*
X23785001Y-14343073D01*
X25785001Y-14343073D01*
X25909483Y-14330813D01*
X26029181Y-14294503D01*
X26036731Y-14290467D01*
X25339199Y-14988000D01*
X21627535Y-14988000D01*
X21524889Y-14919414D01*
X21354729Y-14848932D01*
X21174089Y-14813000D01*
X20989911Y-14813000D01*
X20809271Y-14848932D01*
X20639111Y-14919414D01*
X20485972Y-15021738D01*
X20355738Y-15151972D01*
X20253414Y-15305111D01*
X20182932Y-15475271D01*
X20147000Y-15655911D01*
X20147000Y-15840089D01*
X20182932Y-16020729D01*
X20253414Y-16190889D01*
X20355738Y-16344028D01*
X20485972Y-16474262D01*
X20639111Y-16576586D01*
X20809271Y-16647068D01*
X20989911Y-16683000D01*
X21174089Y-16683000D01*
X21354729Y-16647068D01*
X21524889Y-16576586D01*
X21627535Y-16508000D01*
X25616678Y-16508000D01*
X25654000Y-16511676D01*
X25691322Y-16508000D01*
X25691333Y-16508000D01*
X25802986Y-16497003D01*
X25946247Y-16453546D01*
X26078276Y-16382974D01*
X26194001Y-16288001D01*
X26217804Y-16258997D01*
X27228649Y-15248153D01*
X27349729Y-15224068D01*
X27371928Y-15214873D01*
X27371928Y-16650000D01*
X27374765Y-16678803D01*
X27240753Y-16719454D01*
X27108724Y-16790026D01*
X26992999Y-16884999D01*
X26969196Y-16914003D01*
X26920998Y-16962201D01*
X26892000Y-16985999D01*
X26797026Y-17101724D01*
X26726454Y-17233753D01*
X26690047Y-17353774D01*
X26627780Y-17327983D01*
X26447140Y-17292051D01*
X26262962Y-17292051D01*
X26082322Y-17327983D01*
X25912162Y-17398465D01*
X25759023Y-17500789D01*
X25628789Y-17631023D01*
X25526465Y-17784162D01*
X25455983Y-17954322D01*
X25433584Y-18066929D01*
X23785001Y-18066929D01*
X23660519Y-18079189D01*
X23540821Y-18115499D01*
X23430507Y-18174464D01*
X23333816Y-18253816D01*
X23254464Y-18350507D01*
X23195499Y-18460821D01*
X23159189Y-18580519D01*
X23150376Y-18670001D01*
X23035828Y-18670001D01*
X22985000Y-18664995D01*
X22934172Y-18670001D01*
X22934163Y-18670001D01*
X22782106Y-18684977D01*
X22587008Y-18744160D01*
X22407204Y-18840267D01*
X22249605Y-18969605D01*
X22217194Y-19009098D01*
X21719097Y-19507195D01*
X21679604Y-19539606D01*
X21550266Y-19697205D01*
X21454159Y-19877010D01*
X21394976Y-20072108D01*
X21380000Y-20224165D01*
X21380000Y-20224174D01*
X21374994Y-20275002D01*
X21380000Y-20325830D01*
X21380000Y-21321928D01*
X21165000Y-21321928D01*
X21040518Y-21334188D01*
X20920820Y-21370498D01*
X20810506Y-21429463D01*
X20713815Y-21508815D01*
X20634463Y-21605506D01*
X20575498Y-21715820D01*
X20539188Y-21835518D01*
X20526928Y-21960000D01*
X20526928Y-23760000D01*
X20539188Y-23884482D01*
X20575498Y-24004180D01*
X20634463Y-24114494D01*
X20713815Y-24211185D01*
X20810506Y-24290537D01*
X20920820Y-24349502D01*
X21040518Y-24385812D01*
X21165000Y-24398072D01*
X23665000Y-24398072D01*
X23789482Y-24385812D01*
X23909180Y-24349502D01*
X24019494Y-24290537D01*
X24046928Y-24268023D01*
X24046928Y-24310000D01*
X24059188Y-24434482D01*
X24095498Y-24554180D01*
X24154463Y-24664494D01*
X24233815Y-24761185D01*
X24330506Y-24840537D01*
X24440820Y-24899502D01*
X24560518Y-24935812D01*
X24685000Y-24948072D01*
X25485000Y-24948072D01*
X25609482Y-24935812D01*
X25729180Y-24899502D01*
X25839494Y-24840537D01*
X25936185Y-24761185D01*
X26015537Y-24664494D01*
X26035000Y-24628082D01*
X26054463Y-24664494D01*
X26133815Y-24761185D01*
X26230506Y-24840537D01*
X26340820Y-24899502D01*
X26460518Y-24935812D01*
X26585000Y-24948072D01*
X27385000Y-24948072D01*
X27509482Y-24935812D01*
X27629180Y-24899502D01*
X27640260Y-24893580D01*
X27777895Y-24880024D01*
X27972993Y-24820841D01*
X28152797Y-24724734D01*
X28273104Y-24626000D01*
X30215928Y-24626000D01*
X30228188Y-24750482D01*
X30264498Y-24870180D01*
X30323463Y-24980494D01*
X30402815Y-25077185D01*
X30499506Y-25156537D01*
X30609820Y-25215502D01*
X30729518Y-25251812D01*
X30854000Y-25264072D01*
X31068250Y-25261000D01*
X31227000Y-25102250D01*
X31227000Y-24003000D01*
X30377750Y-24003000D01*
X30219000Y-24161750D01*
X30215928Y-24626000D01*
X28273104Y-24626000D01*
X28310396Y-24595396D01*
X28342807Y-24555903D01*
X29342803Y-23555908D01*
X29378937Y-23519774D01*
X29407325Y-23477288D01*
X29439734Y-23437798D01*
X29463817Y-23392742D01*
X29492205Y-23350256D01*
X29511760Y-23303047D01*
X29535841Y-23257994D01*
X29550669Y-23209113D01*
X29570226Y-23161898D01*
X29577366Y-23126000D01*
X30215928Y-23126000D01*
X30219000Y-23590250D01*
X30377750Y-23749000D01*
X31227000Y-23749000D01*
X31227000Y-22649750D01*
X31068250Y-22491000D01*
X30854000Y-22487928D01*
X30729518Y-22500188D01*
X30609820Y-22536498D01*
X30499506Y-22595463D01*
X30402815Y-22674815D01*
X30323463Y-22771506D01*
X30264498Y-22881820D01*
X30228188Y-23001518D01*
X30215928Y-23126000D01*
X29577366Y-23126000D01*
X29580197Y-23111771D01*
X29595023Y-23062895D01*
X29600030Y-23012064D01*
X29610000Y-22961939D01*
X29610000Y-22910835D01*
X29615007Y-22860000D01*
X29610000Y-22809165D01*
X29610000Y-22758061D01*
X29600030Y-22707936D01*
X29595023Y-22657105D01*
X29580197Y-22608230D01*
X29570226Y-22558102D01*
X29550668Y-22510885D01*
X29535841Y-22462007D01*
X29511762Y-22416958D01*
X29492205Y-22369744D01*
X29463814Y-22327254D01*
X29439734Y-22282203D01*
X29407328Y-22242716D01*
X29378937Y-22200226D01*
X29342803Y-22164092D01*
X29310396Y-22124604D01*
X29270908Y-22092197D01*
X29234774Y-22056063D01*
X29192284Y-22027672D01*
X29152797Y-21995266D01*
X29107746Y-21971186D01*
X29065256Y-21942795D01*
X29018042Y-21923238D01*
X28972993Y-21899159D01*
X28924115Y-21884332D01*
X28876898Y-21864774D01*
X28826770Y-21854803D01*
X28777895Y-21839977D01*
X28727064Y-21834970D01*
X28676939Y-21825000D01*
X28625835Y-21825000D01*
X28575000Y-21819993D01*
X28524165Y-21825000D01*
X28473061Y-21825000D01*
X28422936Y-21834970D01*
X28372105Y-21839977D01*
X28323229Y-21854803D01*
X28273102Y-21864774D01*
X28225887Y-21884331D01*
X28177006Y-21899159D01*
X28131953Y-21923240D01*
X28084744Y-21942795D01*
X28042258Y-21971183D01*
X27997202Y-21995266D01*
X27957712Y-22027675D01*
X27915226Y-22056063D01*
X27520001Y-22451288D01*
X27520001Y-19939324D01*
X27523677Y-19902001D01*
X27520001Y-19864678D01*
X27520001Y-19864668D01*
X27509004Y-19753015D01*
X27488000Y-19683772D01*
X27488000Y-19644990D01*
X27637511Y-19644990D01*
X27637510Y-20443391D01*
X27633834Y-20480714D01*
X27637510Y-20518036D01*
X27637510Y-20518046D01*
X27646035Y-20604601D01*
X27646035Y-20756328D01*
X27681967Y-20936968D01*
X27752449Y-21107128D01*
X27854773Y-21260267D01*
X27985007Y-21390501D01*
X28138146Y-21492825D01*
X28308306Y-21563307D01*
X28488946Y-21599239D01*
X28673124Y-21599239D01*
X28853764Y-21563307D01*
X29023924Y-21492825D01*
X29177063Y-21390501D01*
X29307297Y-21260267D01*
X29409621Y-21107128D01*
X29480103Y-20936968D01*
X29509310Y-20790137D01*
X29595908Y-20781608D01*
X29756642Y-20732850D01*
X29904775Y-20653671D01*
X30034615Y-20547115D01*
X30086728Y-20483615D01*
X30133911Y-20493000D01*
X30318089Y-20493000D01*
X30498729Y-20457068D01*
X30668889Y-20386586D01*
X30822028Y-20284262D01*
X30952262Y-20154028D01*
X31054586Y-20000889D01*
X31125068Y-19830729D01*
X31161000Y-19650089D01*
X31161000Y-19465911D01*
X31125068Y-19285271D01*
X31054586Y-19115111D01*
X30952262Y-18961972D01*
X30822028Y-18831738D01*
X30668889Y-18729414D01*
X30636691Y-18716077D01*
X30653000Y-18634089D01*
X30653000Y-18449911D01*
X30642023Y-18394728D01*
X30715271Y-18425068D01*
X30895911Y-18461000D01*
X31080089Y-18461000D01*
X31260729Y-18425068D01*
X31430889Y-18354586D01*
X31584028Y-18252262D01*
X31662908Y-18173382D01*
X31683414Y-18222889D01*
X31785738Y-18376028D01*
X31915972Y-18506262D01*
X32069111Y-18608586D01*
X32239271Y-18679068D01*
X32419911Y-18715000D01*
X32604089Y-18715000D01*
X32784729Y-18679068D01*
X32954889Y-18608586D01*
X33108028Y-18506262D01*
X33238262Y-18376028D01*
X33340586Y-18222889D01*
X33411068Y-18052729D01*
X33447000Y-17872089D01*
X33447000Y-17687911D01*
X33411068Y-17507271D01*
X33350526Y-17361108D01*
X33353671Y-17357275D01*
X33432850Y-17209142D01*
X33481608Y-17048408D01*
X33498072Y-16881250D01*
X33498072Y-16443750D01*
X33481608Y-16276592D01*
X33432850Y-16115858D01*
X33353671Y-15967725D01*
X33277574Y-15875000D01*
X33353671Y-15782275D01*
X33432850Y-15634142D01*
X33481608Y-15473408D01*
X33498072Y-15306250D01*
X33498072Y-14868750D01*
X33481608Y-14701592D01*
X33432850Y-14540858D01*
X33353671Y-14392725D01*
X33247115Y-14262885D01*
X33117275Y-14156329D01*
X32969142Y-14077150D01*
X32808408Y-14028392D01*
X32641250Y-14011928D01*
X32384230Y-14011928D01*
X31545000Y-13172699D01*
X31545000Y-12980143D01*
X31609615Y-12927115D01*
X31716171Y-12797275D01*
X31795350Y-12649142D01*
X31818718Y-12572109D01*
X32860257Y-13613649D01*
X32884342Y-13734729D01*
X32954824Y-13904889D01*
X33057148Y-14058028D01*
X33187382Y-14188262D01*
X33340521Y-14290586D01*
X33510681Y-14361068D01*
X33691321Y-14397000D01*
X33875499Y-14397000D01*
X34056139Y-14361068D01*
X34226299Y-14290586D01*
X34379438Y-14188262D01*
X34388949Y-14178751D01*
X34446928Y-14236730D01*
X34446928Y-14493750D01*
X34463392Y-14660908D01*
X34512150Y-14821642D01*
X34591329Y-14969775D01*
X34677684Y-15075000D01*
X34591329Y-15180225D01*
X34512150Y-15328358D01*
X34463392Y-15489092D01*
X34446928Y-15656250D01*
X34446928Y-15913271D01*
X34248988Y-16111211D01*
X34219990Y-16135009D01*
X34196192Y-16164007D01*
X34196191Y-16164008D01*
X34125016Y-16250734D01*
X34054444Y-16382764D01*
X34030431Y-16461928D01*
X34014783Y-16513515D01*
X34010988Y-16526025D01*
X33996314Y-16675010D01*
X33999991Y-16712342D01*
X33999990Y-18773208D01*
X33122351Y-19650847D01*
X33001271Y-19674932D01*
X32831111Y-19745414D01*
X32677972Y-19847738D01*
X32547738Y-19977972D01*
X32445414Y-20131111D01*
X32374932Y-20301271D01*
X32339000Y-20481911D01*
X32339000Y-20666089D01*
X32374932Y-20846729D01*
X32445414Y-21016889D01*
X32547738Y-21170028D01*
X32677972Y-21300262D01*
X32831111Y-21402586D01*
X33001271Y-21473068D01*
X33181911Y-21509000D01*
X33366089Y-21509000D01*
X33546729Y-21473068D01*
X33716889Y-21402586D01*
X33870028Y-21300262D01*
X34000262Y-21170028D01*
X34102586Y-21016889D01*
X34173068Y-20846729D01*
X34197153Y-20725649D01*
X35270994Y-19651808D01*
X35299991Y-19628011D01*
X35394964Y-19512286D01*
X35419023Y-19467275D01*
X35467911Y-19477000D01*
X35652089Y-19477000D01*
X35832729Y-19441068D01*
X36002889Y-19370586D01*
X36156028Y-19268262D01*
X36286262Y-19138028D01*
X36388586Y-18984889D01*
X36459068Y-18814729D01*
X36495000Y-18634089D01*
X36495000Y-18449911D01*
X36459068Y-18269271D01*
X36448144Y-18242898D01*
X36528671Y-18144775D01*
X36607850Y-17996642D01*
X36656608Y-17835908D01*
X36673072Y-17668750D01*
X36673072Y-17231250D01*
X36656608Y-17064092D01*
X36607850Y-16903358D01*
X36528671Y-16755225D01*
X36452574Y-16662500D01*
X36528671Y-16569775D01*
X36607850Y-16421642D01*
X36656608Y-16260908D01*
X36673072Y-16093750D01*
X36673072Y-15656250D01*
X36656608Y-15489092D01*
X36607850Y-15328358D01*
X36528671Y-15180225D01*
X36442316Y-15075000D01*
X36528671Y-14969775D01*
X36607850Y-14821642D01*
X36656608Y-14660908D01*
X36673072Y-14493750D01*
X36673072Y-14056250D01*
X36656608Y-13889092D01*
X36607850Y-13728358D01*
X36528671Y-13580225D01*
X36510900Y-13558570D01*
X36565537Y-13491994D01*
X36624502Y-13381680D01*
X36628072Y-13369911D01*
X39451000Y-13369911D01*
X39451000Y-13554089D01*
X39486932Y-13734729D01*
X39557414Y-13904889D01*
X39659738Y-14058028D01*
X39789972Y-14188262D01*
X39943111Y-14290586D01*
X40113271Y-14361068D01*
X40293911Y-14397000D01*
X40478089Y-14397000D01*
X40658729Y-14361068D01*
X40828889Y-14290586D01*
X40931535Y-14222000D01*
X43881199Y-14222000D01*
X45304847Y-15645649D01*
X45328932Y-15766729D01*
X45399414Y-15936889D01*
X45501738Y-16090028D01*
X45631972Y-16220262D01*
X45785111Y-16322586D01*
X45955271Y-16393068D01*
X46135911Y-16429000D01*
X46320089Y-16429000D01*
X46500729Y-16393068D01*
X46670889Y-16322586D01*
X46824028Y-16220262D01*
X46954262Y-16090028D01*
X47056586Y-15936889D01*
X47127068Y-15766729D01*
X47163000Y-15586089D01*
X47163000Y-15401911D01*
X47127068Y-15221271D01*
X47056586Y-15051111D01*
X46954262Y-14897972D01*
X46824028Y-14767738D01*
X46670889Y-14665414D01*
X46500729Y-14594932D01*
X46379649Y-14570847D01*
X44759804Y-12951003D01*
X44736001Y-12921999D01*
X44620276Y-12827026D01*
X44488247Y-12756454D01*
X44344986Y-12712997D01*
X44233333Y-12702000D01*
X44233322Y-12702000D01*
X44196000Y-12698324D01*
X44158678Y-12702000D01*
X40931535Y-12702000D01*
X40828889Y-12633414D01*
X40658729Y-12562932D01*
X40478089Y-12527000D01*
X40293911Y-12527000D01*
X40113271Y-12562932D01*
X39943111Y-12633414D01*
X39789972Y-12735738D01*
X39659738Y-12865972D01*
X39557414Y-13019111D01*
X39486932Y-13189271D01*
X39451000Y-13369911D01*
X36628072Y-13369911D01*
X36660812Y-13261982D01*
X36673072Y-13137500D01*
X36670000Y-12985750D01*
X36511250Y-12827000D01*
X35687000Y-12827000D01*
X35687000Y-12847000D01*
X35433000Y-12847000D01*
X35433000Y-12827000D01*
X35413000Y-12827000D01*
X35413000Y-12573000D01*
X35433000Y-12573000D01*
X35433000Y-11786250D01*
X35687000Y-11786250D01*
X35687000Y-12573000D01*
X36511250Y-12573000D01*
X36670000Y-12414250D01*
X36673072Y-12262500D01*
X36660812Y-12138018D01*
X36624502Y-12018320D01*
X36565537Y-11908006D01*
X36486185Y-11811315D01*
X36389494Y-11731963D01*
X36279180Y-11672998D01*
X36159482Y-11636688D01*
X36035000Y-11624428D01*
X35845750Y-11627500D01*
X35687000Y-11786250D01*
X35433000Y-11786250D01*
X35274250Y-11627500D01*
X35085000Y-11624428D01*
X34960518Y-11636688D01*
X34840820Y-11672998D01*
X34803746Y-11692815D01*
X34787824Y-11654376D01*
X34688014Y-11505000D01*
X47550000Y-11505000D01*
X47550000Y-17530294D01*
X47410134Y-17359866D01*
X47184014Y-17174294D01*
X46926034Y-17036401D01*
X46646111Y-16951487D01*
X46427950Y-16930000D01*
X46282050Y-16930000D01*
X46063889Y-16951487D01*
X45783966Y-17036401D01*
X45525986Y-17174294D01*
X45299866Y-17359866D01*
X45114294Y-17585986D01*
X44976401Y-17843966D01*
X44891487Y-18123889D01*
X44862815Y-18415000D01*
X44891487Y-18706111D01*
X44976401Y-18986034D01*
X45114294Y-19244014D01*
X45299866Y-19470134D01*
X45525986Y-19655706D01*
X45580791Y-19685000D01*
X45525986Y-19714294D01*
X45299866Y-19899866D01*
X45114294Y-20125986D01*
X44976401Y-20383966D01*
X44891487Y-20663889D01*
X44862815Y-20955000D01*
X44891487Y-21246111D01*
X44976401Y-21526034D01*
X45114294Y-21784014D01*
X45299866Y-22010134D01*
X45329687Y-22034607D01*
X45260820Y-22055498D01*
X45150506Y-22114463D01*
X45053815Y-22193815D01*
X44974463Y-22290506D01*
X44915498Y-22400820D01*
X44879188Y-22520518D01*
X44866928Y-22645000D01*
X44870000Y-23209250D01*
X45028750Y-23368000D01*
X46228000Y-23368000D01*
X46228000Y-23348000D01*
X46482000Y-23348000D01*
X46482000Y-23368000D01*
X46502000Y-23368000D01*
X46502000Y-23622000D01*
X46482000Y-23622000D01*
X46482000Y-24821250D01*
X46640750Y-24980000D01*
X47205000Y-24983072D01*
X47329482Y-24970812D01*
X47449180Y-24934502D01*
X47550001Y-24880611D01*
X47550001Y-25325000D01*
X44462072Y-25325000D01*
X44462072Y-24526000D01*
X44449812Y-24401518D01*
X44432668Y-24345000D01*
X44866928Y-24345000D01*
X44879188Y-24469482D01*
X44915498Y-24589180D01*
X44974463Y-24699494D01*
X45053815Y-24796185D01*
X45150506Y-24875537D01*
X45260820Y-24934502D01*
X45380518Y-24970812D01*
X45505000Y-24983072D01*
X46069250Y-24980000D01*
X46228000Y-24821250D01*
X46228000Y-23622000D01*
X45028750Y-23622000D01*
X44870000Y-23780750D01*
X44866928Y-24345000D01*
X44432668Y-24345000D01*
X44413502Y-24281820D01*
X44354537Y-24171506D01*
X44275185Y-24074815D01*
X44178494Y-23995463D01*
X44068180Y-23936498D01*
X43948482Y-23900188D01*
X43824000Y-23887928D01*
X43024000Y-23887928D01*
X42899518Y-23900188D01*
X42779820Y-23936498D01*
X42669506Y-23995463D01*
X42572815Y-24074815D01*
X42493463Y-24171506D01*
X42434498Y-24281820D01*
X42398188Y-24401518D01*
X42385928Y-24526000D01*
X42385928Y-25325000D01*
X36862072Y-25325000D01*
X36862072Y-24526000D01*
X36849812Y-24401518D01*
X36813502Y-24281820D01*
X36754537Y-24171506D01*
X36675185Y-24074815D01*
X36578494Y-23995463D01*
X36468180Y-23936498D01*
X36348482Y-23900188D01*
X36224000Y-23887928D01*
X35424000Y-23887928D01*
X35301791Y-23899964D01*
X35295196Y-23878223D01*
X35289327Y-23848721D01*
X35299518Y-23851812D01*
X35424000Y-23864072D01*
X36224000Y-23864072D01*
X36348482Y-23851812D01*
X36468180Y-23815502D01*
X36554921Y-23769137D01*
X37039000Y-23769137D01*
X37039000Y-23982863D01*
X37080696Y-24192483D01*
X37162485Y-24389940D01*
X37281225Y-24567647D01*
X37432353Y-24718775D01*
X37610060Y-24837515D01*
X37807517Y-24919304D01*
X38017137Y-24961000D01*
X38230863Y-24961000D01*
X38440483Y-24919304D01*
X38637940Y-24837515D01*
X38815647Y-24718775D01*
X38966775Y-24567647D01*
X39085515Y-24389940D01*
X39167304Y-24192483D01*
X39209000Y-23982863D01*
X39209000Y-23769137D01*
X39167304Y-23559517D01*
X39085515Y-23362060D01*
X38966775Y-23184353D01*
X38815647Y-23033225D01*
X38637940Y-22914485D01*
X38440483Y-22832696D01*
X38294494Y-22803657D01*
X38354537Y-22730494D01*
X38413502Y-22620180D01*
X38449812Y-22500482D01*
X38462072Y-22376000D01*
X38459485Y-22090268D01*
X38481186Y-22122747D01*
X38505266Y-22167797D01*
X38537672Y-22207284D01*
X38566063Y-22249774D01*
X38602196Y-22285907D01*
X38634604Y-22325396D01*
X38674092Y-22357803D01*
X38710226Y-22393937D01*
X38710229Y-22393939D01*
X38763193Y-22446903D01*
X38795604Y-22486396D01*
X38953203Y-22615734D01*
X39133007Y-22711841D01*
X39328105Y-22771024D01*
X39435397Y-22781591D01*
X39472815Y-22827185D01*
X39569506Y-22906537D01*
X39679820Y-22965502D01*
X39799518Y-23001812D01*
X39924000Y-23014072D01*
X40461017Y-23014072D01*
X40432353Y-23033225D01*
X40281225Y-23184353D01*
X40162485Y-23362060D01*
X40080696Y-23559517D01*
X40039000Y-23769137D01*
X40039000Y-23982863D01*
X40080696Y-24192483D01*
X40162485Y-24389940D01*
X40281225Y-24567647D01*
X40432353Y-24718775D01*
X40610060Y-24837515D01*
X40807517Y-24919304D01*
X41017137Y-24961000D01*
X41230863Y-24961000D01*
X41440483Y-24919304D01*
X41637940Y-24837515D01*
X41815647Y-24718775D01*
X41966775Y-24567647D01*
X42085515Y-24389940D01*
X42167304Y-24192483D01*
X42209000Y-23982863D01*
X42209000Y-23769137D01*
X42167304Y-23559517D01*
X42085515Y-23362060D01*
X41966775Y-23184353D01*
X41815647Y-23033225D01*
X41786983Y-23014072D01*
X42324000Y-23014072D01*
X42385928Y-23007973D01*
X42385928Y-23226000D01*
X42398188Y-23350482D01*
X42434498Y-23470180D01*
X42493463Y-23580494D01*
X42572815Y-23677185D01*
X42669506Y-23756537D01*
X42779820Y-23815502D01*
X42899518Y-23851812D01*
X43024000Y-23864072D01*
X43824000Y-23864072D01*
X43948482Y-23851812D01*
X44068180Y-23815502D01*
X44178494Y-23756537D01*
X44275185Y-23677185D01*
X44354537Y-23580494D01*
X44413502Y-23470180D01*
X44449812Y-23350482D01*
X44462072Y-23226000D01*
X44462072Y-22326000D01*
X44449812Y-22201518D01*
X44413502Y-22081820D01*
X44354537Y-21971506D01*
X44275185Y-21874815D01*
X44178494Y-21795463D01*
X44068180Y-21736498D01*
X43948482Y-21700188D01*
X43824000Y-21687928D01*
X43024000Y-21687928D01*
X42962072Y-21694027D01*
X42962072Y-21126000D01*
X42949812Y-21001518D01*
X42913502Y-20881820D01*
X42854537Y-20771506D01*
X42775185Y-20674815D01*
X42678494Y-20595463D01*
X42568180Y-20536498D01*
X42448482Y-20500188D01*
X42324000Y-20487928D01*
X41424000Y-20487928D01*
X41299518Y-20500188D01*
X41179820Y-20536498D01*
X41124000Y-20566335D01*
X41068180Y-20536498D01*
X40948482Y-20500188D01*
X40824000Y-20487928D01*
X40665782Y-20487928D01*
X41860639Y-19293072D01*
X42260001Y-19293072D01*
X42433255Y-19276008D01*
X42599851Y-19225472D01*
X42753387Y-19143405D01*
X42887962Y-19032962D01*
X42998405Y-18898387D01*
X43080472Y-18744851D01*
X43131008Y-18578255D01*
X43148072Y-18405001D01*
X43148072Y-17154999D01*
X43131008Y-16981745D01*
X43080472Y-16815149D01*
X42998405Y-16661613D01*
X42887962Y-16527038D01*
X42753387Y-16416595D01*
X42599851Y-16334528D01*
X42433255Y-16283992D01*
X42260001Y-16266928D01*
X41559999Y-16266928D01*
X41386745Y-16283992D01*
X41220149Y-16334528D01*
X41066613Y-16416595D01*
X40932038Y-16527038D01*
X40821595Y-16661613D01*
X40819191Y-16666111D01*
X40787502Y-16627498D01*
X40599449Y-16473167D01*
X40384901Y-16358489D01*
X40152102Y-16287870D01*
X39910000Y-16264025D01*
X39667899Y-16287870D01*
X39435100Y-16358489D01*
X39220552Y-16473167D01*
X39032499Y-16627498D01*
X38878168Y-16815551D01*
X38763489Y-17030099D01*
X38692870Y-17262898D01*
X38675000Y-17444335D01*
X38675000Y-18115664D01*
X38692870Y-18297101D01*
X38763489Y-18529900D01*
X38878167Y-18744448D01*
X39032498Y-18932502D01*
X39176010Y-19050279D01*
X38674092Y-19552198D01*
X38634605Y-19584604D01*
X38602198Y-19624092D01*
X38602197Y-19624093D01*
X38505266Y-19742203D01*
X38409160Y-19922007D01*
X38349977Y-20117105D01*
X38329994Y-20320000D01*
X38335001Y-20370837D01*
X38335001Y-20747701D01*
X38275185Y-20674815D01*
X38178494Y-20595463D01*
X38068180Y-20536498D01*
X37948482Y-20500188D01*
X37824000Y-20487928D01*
X37659750Y-20491000D01*
X37501000Y-20649750D01*
X37501000Y-21624000D01*
X37521000Y-21624000D01*
X37521000Y-21878000D01*
X37501000Y-21878000D01*
X37501000Y-22852250D01*
X37581990Y-22933240D01*
X37432353Y-23033225D01*
X37281225Y-23184353D01*
X37162485Y-23362060D01*
X37080696Y-23559517D01*
X37039000Y-23769137D01*
X36554921Y-23769137D01*
X36578494Y-23756537D01*
X36675185Y-23677185D01*
X36754537Y-23580494D01*
X36813502Y-23470180D01*
X36849812Y-23350482D01*
X36862072Y-23226000D01*
X36862072Y-23007973D01*
X36924000Y-23014072D01*
X37088250Y-23011000D01*
X37247000Y-22852250D01*
X37247000Y-21878000D01*
X37227000Y-21878000D01*
X37227000Y-21624000D01*
X37247000Y-21624000D01*
X37247000Y-20649750D01*
X37088250Y-20491000D01*
X36924000Y-20487928D01*
X36799518Y-20500188D01*
X36679820Y-20536498D01*
X36569506Y-20595463D01*
X36472815Y-20674815D01*
X36393463Y-20771506D01*
X36334498Y-20881820D01*
X36298188Y-21001518D01*
X36285928Y-21126000D01*
X36289000Y-21465250D01*
X36447748Y-21623998D01*
X36289000Y-21623998D01*
X36289000Y-21694330D01*
X36224000Y-21687928D01*
X35424000Y-21687928D01*
X35299518Y-21700188D01*
X35179820Y-21736498D01*
X35069506Y-21795463D01*
X34972815Y-21874815D01*
X34893463Y-21971506D01*
X34834498Y-22081820D01*
X34798188Y-22201518D01*
X34785928Y-22326000D01*
X34785928Y-23216585D01*
X34780256Y-23212795D01*
X34733042Y-23193238D01*
X34687993Y-23169159D01*
X34639113Y-23154331D01*
X34591898Y-23134774D01*
X34541777Y-23124804D01*
X34492895Y-23109976D01*
X34442057Y-23104969D01*
X34391939Y-23095000D01*
X33789019Y-23095000D01*
X33779812Y-23001518D01*
X33743502Y-22881820D01*
X33684537Y-22771506D01*
X33605185Y-22674815D01*
X33508494Y-22595463D01*
X33398180Y-22536498D01*
X33278482Y-22500188D01*
X33154000Y-22487928D01*
X32154000Y-22487928D01*
X32029518Y-22500188D01*
X32004000Y-22507929D01*
X31978482Y-22500188D01*
X31854000Y-22487928D01*
X31639750Y-22491000D01*
X31481000Y-22649750D01*
X31481000Y-23749000D01*
X31501000Y-23749000D01*
X31501000Y-24003000D01*
X31481000Y-24003000D01*
X31481000Y-25102250D01*
X31639750Y-25261000D01*
X31854000Y-25264072D01*
X31978482Y-25251812D01*
X32004000Y-25244071D01*
X32029518Y-25251812D01*
X32154000Y-25264072D01*
X33154000Y-25264072D01*
X33278482Y-25251812D01*
X33398180Y-25215502D01*
X33492661Y-25165000D01*
X34391939Y-25165000D01*
X34442057Y-25155031D01*
X34492895Y-25150024D01*
X34541777Y-25135196D01*
X34591898Y-25125226D01*
X34639113Y-25105669D01*
X34687993Y-25090841D01*
X34733042Y-25066762D01*
X34780256Y-25047205D01*
X34785928Y-25043415D01*
X34785928Y-25325000D01*
X13410000Y-25325000D01*
X13410000Y-23760000D01*
X16526928Y-23760000D01*
X16539188Y-23884482D01*
X16575498Y-24004180D01*
X16634463Y-24114494D01*
X16713815Y-24211185D01*
X16810506Y-24290537D01*
X16920820Y-24349502D01*
X17040518Y-24385812D01*
X17165000Y-24398072D01*
X18129250Y-24395000D01*
X18288000Y-24236250D01*
X18288000Y-22987000D01*
X18542000Y-22987000D01*
X18542000Y-24236250D01*
X18700750Y-24395000D01*
X19665000Y-24398072D01*
X19789482Y-24385812D01*
X19909180Y-24349502D01*
X20019494Y-24290537D01*
X20116185Y-24211185D01*
X20195537Y-24114494D01*
X20254502Y-24004180D01*
X20290812Y-23884482D01*
X20303072Y-23760000D01*
X20300000Y-23145750D01*
X20141250Y-22987000D01*
X18542000Y-22987000D01*
X18288000Y-22987000D01*
X16688750Y-22987000D01*
X16530000Y-23145750D01*
X16526928Y-23760000D01*
X13410000Y-23760000D01*
X13410000Y-20705001D01*
X16146929Y-20705001D01*
X16159189Y-20829483D01*
X16195499Y-20949181D01*
X16254464Y-21059495D01*
X16333816Y-21156186D01*
X16430507Y-21235538D01*
X16540821Y-21294503D01*
X16660519Y-21330813D01*
X16785001Y-21343073D01*
X17014482Y-21342086D01*
X16920820Y-21370498D01*
X16810506Y-21429463D01*
X16713815Y-21508815D01*
X16634463Y-21605506D01*
X16575498Y-21715820D01*
X16539188Y-21835518D01*
X16526928Y-21960000D01*
X16530000Y-22574250D01*
X16688750Y-22733000D01*
X18288000Y-22733000D01*
X18288000Y-22713000D01*
X18542000Y-22713000D01*
X18542000Y-22733000D01*
X20141250Y-22733000D01*
X20300000Y-22574250D01*
X20303072Y-21960000D01*
X20290812Y-21835518D01*
X20254502Y-21715820D01*
X20195537Y-21605506D01*
X20116185Y-21508815D01*
X20019494Y-21429463D01*
X19909180Y-21370498D01*
X19789482Y-21334188D01*
X19665000Y-21321928D01*
X18931065Y-21324266D01*
X19029181Y-21294503D01*
X19139495Y-21235538D01*
X19236186Y-21156186D01*
X19315538Y-21059495D01*
X19374503Y-20949181D01*
X19410813Y-20829483D01*
X19423073Y-20705001D01*
X19420001Y-19990751D01*
X19261251Y-19832001D01*
X17912001Y-19832001D01*
X17912001Y-19852001D01*
X17658001Y-19852001D01*
X17658001Y-19832001D01*
X16308751Y-19832001D01*
X16150001Y-19990751D01*
X16146929Y-20705001D01*
X13410000Y-20705001D01*
X13410000Y-19327457D01*
X13422866Y-19343134D01*
X13648986Y-19528706D01*
X13906966Y-19666599D01*
X14186889Y-19751513D01*
X14405050Y-19773000D01*
X14550950Y-19773000D01*
X14769111Y-19751513D01*
X15049034Y-19666599D01*
X15307014Y-19528706D01*
X15533134Y-19343134D01*
X15718706Y-19117014D01*
X15856599Y-18859034D01*
X15868628Y-18819378D01*
X15875000Y-18820006D01*
X15925828Y-18815000D01*
X15976939Y-18815000D01*
X16027067Y-18805029D01*
X16077895Y-18800023D01*
X16126768Y-18785197D01*
X16147256Y-18781122D01*
X16150001Y-19419251D01*
X16308751Y-19578001D01*
X17658001Y-19578001D01*
X17658001Y-18228751D01*
X17912001Y-18228751D01*
X17912001Y-19578001D01*
X19261251Y-19578001D01*
X19420001Y-19419251D01*
X19423073Y-18705001D01*
X19410813Y-18580519D01*
X19374503Y-18460821D01*
X19315538Y-18350507D01*
X19236186Y-18253816D01*
X19139495Y-18174464D01*
X19029181Y-18115499D01*
X18909483Y-18079189D01*
X18785001Y-18066929D01*
X18070751Y-18070001D01*
X17912001Y-18228751D01*
X17658001Y-18228751D01*
X17499251Y-18070001D01*
X16906297Y-18067451D01*
X16948025Y-17929894D01*
X16963001Y-17777837D01*
X16963001Y-17777834D01*
X16968008Y-17726999D01*
X16963001Y-17676164D01*
X16963001Y-14708828D01*
X16968007Y-14658000D01*
X16963001Y-14607172D01*
X16963001Y-14607163D01*
X16948025Y-14455106D01*
X16914040Y-14343073D01*
X18785001Y-14343073D01*
X18909483Y-14330813D01*
X19029181Y-14294503D01*
X19139495Y-14235538D01*
X19236186Y-14156186D01*
X19315538Y-14059495D01*
X19374503Y-13949181D01*
X19410813Y-13829483D01*
X19423073Y-13705001D01*
X19423073Y-11705001D01*
X19410813Y-11580519D01*
X19387905Y-11505000D01*
X23182097Y-11505000D01*
X23159189Y-11580519D01*
G36*
X31271928Y-15049230D02*
G01*
X31271928Y-15306250D01*
X31288392Y-15473408D01*
X31337150Y-15634142D01*
X31416329Y-15782275D01*
X31492426Y-15875000D01*
X31416329Y-15967725D01*
X31337150Y-16115858D01*
X31288392Y-16276592D01*
X31271928Y-16443750D01*
X31271928Y-16631571D01*
X31260729Y-16626932D01*
X31080089Y-16591000D01*
X31048072Y-16591000D01*
X31048072Y-15100000D01*
X31035812Y-14975518D01*
X30999502Y-14855820D01*
X30974731Y-14809477D01*
X30987176Y-14764478D01*
X31271928Y-15049230D01*
X31271928Y-15049230D01*
G37*
X31271928Y-15049230D02*
X31271928Y-15306250D01*
X31288392Y-15473408D01*
X31337150Y-15634142D01*
X31416329Y-15782275D01*
X31492426Y-15875000D01*
X31416329Y-15967725D01*
X31337150Y-16115858D01*
X31288392Y-16276592D01*
X31271928Y-16443750D01*
X31271928Y-16631571D01*
X31260729Y-16626932D01*
X31080089Y-16591000D01*
X31048072Y-16591000D01*
X31048072Y-15100000D01*
X31035812Y-14975518D01*
X30999502Y-14855820D01*
X30974731Y-14809477D01*
X30987176Y-14764478D01*
X31271928Y-15049230D01*
M02*
