G04 #@! TF.GenerationSoftware,KiCad,Pcbnew,(5.0.2)-1*
G04 #@! TF.CreationDate,2019-06-22T00:22:24-07:00*
G04 #@! TF.ProjectId,pic_beeper,7069635f-6265-4657-9065-722e6b696361,rev?*
G04 #@! TF.SameCoordinates,Original*
G04 #@! TF.FileFunction,Copper,L2,Bot*
G04 #@! TF.FilePolarity,Positive*
%FSLAX46Y46*%
G04 Gerber Fmt 4.6, Leading zero omitted, Abs format (unit mm)*
G04 Created by KiCad (PCBNEW (5.0.2)-1) date 6/22/2019 12:22:24 AM*
%MOMM*%
%LPD*%
G01*
G04 APERTURE LIST*
G04 #@! TA.AperFunction,SMDPad,CuDef*
%ADD10R,3.000000X4.200000*%
G04 #@! TD*
G04 #@! TA.AperFunction,ComponentPad*
%ADD11C,1.000000*%
G04 #@! TD*
G04 #@! TA.AperFunction,ComponentPad*
%ADD12R,1.700000X1.700000*%
G04 #@! TD*
G04 #@! TA.AperFunction,ComponentPad*
%ADD13O,1.700000X1.700000*%
G04 #@! TD*
G04 #@! TA.AperFunction,ViaPad*
%ADD14C,0.800000*%
G04 #@! TD*
G04 #@! TA.AperFunction,Conductor*
%ADD15C,0.250000*%
G04 #@! TD*
G04 #@! TA.AperFunction,Conductor*
%ADD16C,0.254000*%
G04 #@! TD*
G04 APERTURE END LIST*
D10*
G04 #@! TO.P,BT1,2*
G04 #@! TO.N,-BATT*
X2135000Y-8710001D03*
G04 #@! TO.P,BT1,1*
G04 #@! TO.N,Net-(BT1-Pad1)*
X31135000Y-8710001D03*
G04 #@! TD*
D11*
G04 #@! TO.P,J1,1*
G04 #@! TO.N,/VPP*
X20320000Y-1270000D03*
G04 #@! TO.P,J1,6*
G04 #@! TO.N,Net-(J1-Pad6)*
X26670000Y-1270000D03*
G04 #@! TD*
D12*
G04 #@! TO.P,J2,1*
G04 #@! TO.N,-BATT*
X1905000Y-17780000D03*
D13*
G04 #@! TO.P,J2,2*
G04 #@! TO.N,/VPP*
X1905000Y-15240000D03*
G04 #@! TD*
D12*
G04 #@! TO.P,J3,1*
G04 #@! TO.N,-BATT*
X31115000Y-1905000D03*
D13*
G04 #@! TO.P,J3,2*
G04 #@! TO.N,/SLAVE_RESET*
X31115000Y-4445000D03*
G04 #@! TD*
D14*
G04 #@! TO.N,Net-(BT1-Pad1)*
X28702000Y-13716000D03*
G04 #@! TO.N,-BATT*
X22860000Y-2286000D03*
X28448000Y-8128000D03*
X14478000Y-16256000D03*
G04 #@! TO.N,/BUZZER*
X27940000Y-3556000D03*
X18288000Y-3556000D03*
G04 #@! TO.N,+BATT*
X25654000Y-13716000D03*
X23368000Y-6604000D03*
G04 #@! TO.N,/VPP*
X27940000Y-6554991D03*
X8382000Y-12446000D03*
X14986000Y-5842000D03*
X19050000Y-4318000D03*
G04 #@! TO.N,Net-(BZ1-Pad2)*
X10922000Y-6604000D03*
X5334000Y-4064000D03*
G04 #@! TO.N,Net-(BZ3-Pad2)*
X6858000Y-18034000D03*
X12446000Y-14732000D03*
G04 #@! TD*
D15*
G04 #@! TO.N,Net-(BT1-Pad1)*
X28702000Y-13716000D02*
X31242000Y-11176000D01*
X31242000Y-11176000D02*
X31242000Y-8890000D01*
G04 #@! TO.N,/BUZZER*
X27940000Y-3556000D02*
X18288000Y-3556000D01*
G04 #@! TO.N,+BATT*
X25654000Y-13716000D02*
X23368000Y-11430000D01*
X23368000Y-11430000D02*
X23368000Y-6604000D01*
G04 #@! TO.N,/VPP*
X8382000Y-12446000D02*
X14986000Y-5842000D01*
X19050000Y-4318000D02*
X25703009Y-4318000D01*
X25703009Y-4318000D02*
X27540001Y-6154992D01*
X27540001Y-6154992D02*
X27940000Y-6554991D01*
G04 #@! TO.N,Net-(BZ1-Pad2)*
X10922000Y-6604000D02*
X8382000Y-4064000D01*
X8382000Y-4064000D02*
X5334000Y-4064000D01*
G04 #@! TO.N,Net-(BZ3-Pad2)*
X6858000Y-18034000D02*
X10160000Y-14732000D01*
X10160000Y-14732000D02*
X12446000Y-14732000D01*
G04 #@! TD*
D16*
G04 #@! TO.N,-BATT*
G36*
X19185000Y-1044234D02*
X19185000Y-1495766D01*
X19357793Y-1912926D01*
X19677074Y-2232207D01*
X20094234Y-2405000D01*
X20545766Y-2405000D01*
X20962926Y-2232207D01*
X21282207Y-1912926D01*
X21455000Y-1495766D01*
X21455000Y-1044234D01*
X21326911Y-735000D01*
X25663089Y-735000D01*
X25535000Y-1044234D01*
X25535000Y-1495766D01*
X25707793Y-1912926D01*
X26027074Y-2232207D01*
X26444234Y-2405000D01*
X26895766Y-2405000D01*
X27312926Y-2232207D01*
X27632207Y-1912926D01*
X27805000Y-1495766D01*
X27805000Y-1044234D01*
X27676911Y-735000D01*
X29710229Y-735000D01*
X29630000Y-928690D01*
X29630000Y-1619250D01*
X29788750Y-1778000D01*
X30988000Y-1778000D01*
X30988000Y-1758000D01*
X31242000Y-1758000D01*
X31242000Y-1778000D01*
X31262000Y-1778000D01*
X31262000Y-2032000D01*
X31242000Y-2032000D01*
X31242000Y-2052000D01*
X30988000Y-2052000D01*
X30988000Y-2032000D01*
X29788750Y-2032000D01*
X29630000Y-2190750D01*
X29630000Y-2881310D01*
X29726673Y-3114699D01*
X29905302Y-3293327D01*
X30066033Y-3359904D01*
X30044375Y-3374375D01*
X29716161Y-3865582D01*
X29600908Y-4445000D01*
X29716161Y-5024418D01*
X30044375Y-5515625D01*
X30535582Y-5843839D01*
X30968744Y-5930000D01*
X31261256Y-5930000D01*
X31694418Y-5843839D01*
X32185625Y-5515625D01*
X32279487Y-5375150D01*
X32278885Y-5962561D01*
X29635000Y-5962561D01*
X29387235Y-6011844D01*
X29177191Y-6152192D01*
X29036843Y-6362236D01*
X28987560Y-6610001D01*
X28987560Y-10810001D01*
X29036843Y-11057766D01*
X29177191Y-11267810D01*
X29387235Y-11408158D01*
X29635000Y-11457441D01*
X29885757Y-11457441D01*
X28662199Y-12681000D01*
X28496126Y-12681000D01*
X28115720Y-12838569D01*
X27824569Y-13129720D01*
X27667000Y-13510126D01*
X27667000Y-13921874D01*
X27824569Y-14302280D01*
X28115720Y-14593431D01*
X28496126Y-14751000D01*
X28907874Y-14751000D01*
X29288280Y-14593431D01*
X29579431Y-14302280D01*
X29737000Y-13921874D01*
X29737000Y-13755801D01*
X31726476Y-11766327D01*
X31789929Y-11723929D01*
X31832327Y-11660476D01*
X31832329Y-11660474D01*
X31957903Y-11472538D01*
X31957904Y-11472537D01*
X31960907Y-11457441D01*
X32273249Y-11457441D01*
X32265754Y-18765000D01*
X7590711Y-18765000D01*
X7735431Y-18620280D01*
X7893000Y-18239874D01*
X7893000Y-18073801D01*
X8682621Y-17284180D01*
X25415000Y-17284180D01*
X25415000Y-17715820D01*
X25580182Y-18114603D01*
X25885397Y-18419818D01*
X26284180Y-18585000D01*
X26715820Y-18585000D01*
X27114603Y-18419818D01*
X27419818Y-18114603D01*
X27585000Y-17715820D01*
X27585000Y-17284180D01*
X28415000Y-17284180D01*
X28415000Y-17715820D01*
X28580182Y-18114603D01*
X28885397Y-18419818D01*
X29284180Y-18585000D01*
X29715820Y-18585000D01*
X30114603Y-18419818D01*
X30419818Y-18114603D01*
X30585000Y-17715820D01*
X30585000Y-17284180D01*
X30419818Y-16885397D01*
X30114603Y-16580182D01*
X29715820Y-16415000D01*
X29284180Y-16415000D01*
X28885397Y-16580182D01*
X28580182Y-16885397D01*
X28415000Y-17284180D01*
X27585000Y-17284180D01*
X27419818Y-16885397D01*
X27114603Y-16580182D01*
X26715820Y-16415000D01*
X26284180Y-16415000D01*
X25885397Y-16580182D01*
X25580182Y-16885397D01*
X25415000Y-17284180D01*
X8682621Y-17284180D01*
X10474802Y-15492000D01*
X11742289Y-15492000D01*
X11859720Y-15609431D01*
X12240126Y-15767000D01*
X12651874Y-15767000D01*
X13032280Y-15609431D01*
X13323431Y-15318280D01*
X13481000Y-14937874D01*
X13481000Y-14526126D01*
X13323431Y-14145720D01*
X13032280Y-13854569D01*
X12651874Y-13697000D01*
X12240126Y-13697000D01*
X11859720Y-13854569D01*
X11742289Y-13972000D01*
X10234846Y-13972000D01*
X10159999Y-13957112D01*
X10085152Y-13972000D01*
X10085148Y-13972000D01*
X9863463Y-14016096D01*
X9612071Y-14184071D01*
X9569671Y-14247527D01*
X6818199Y-16999000D01*
X6652126Y-16999000D01*
X6271720Y-17156569D01*
X5980569Y-17447720D01*
X5823000Y-17828126D01*
X5823000Y-18239874D01*
X5980569Y-18620280D01*
X6125289Y-18765000D01*
X3386400Y-18765000D01*
X3390000Y-18756310D01*
X3390000Y-18065750D01*
X3231250Y-17907000D01*
X2032000Y-17907000D01*
X2032000Y-17927000D01*
X1778000Y-17927000D01*
X1778000Y-17907000D01*
X1758000Y-17907000D01*
X1758000Y-17653000D01*
X1778000Y-17653000D01*
X1778000Y-17633000D01*
X2032000Y-17633000D01*
X2032000Y-17653000D01*
X3231250Y-17653000D01*
X3390000Y-17494250D01*
X3390000Y-16803690D01*
X3293327Y-16570301D01*
X3114698Y-16391673D01*
X2953967Y-16325096D01*
X2975625Y-16310625D01*
X3303839Y-15819418D01*
X3419092Y-15240000D01*
X3303839Y-14660582D01*
X2975625Y-14169375D01*
X2484418Y-13841161D01*
X2051256Y-13755000D01*
X1758744Y-13755000D01*
X1325582Y-13841161D01*
X834375Y-14169375D01*
X735000Y-14318100D01*
X735000Y-12240126D01*
X7347000Y-12240126D01*
X7347000Y-12651874D01*
X7504569Y-13032280D01*
X7795720Y-13323431D01*
X8176126Y-13481000D01*
X8587874Y-13481000D01*
X8968280Y-13323431D01*
X9259431Y-13032280D01*
X9417000Y-12651874D01*
X9417000Y-12485801D01*
X15025803Y-6877000D01*
X15191874Y-6877000D01*
X15572280Y-6719431D01*
X15863431Y-6428280D01*
X15875921Y-6398126D01*
X22333000Y-6398126D01*
X22333000Y-6809874D01*
X22490569Y-7190280D01*
X22608001Y-7307712D01*
X22608000Y-11355153D01*
X22593112Y-11430000D01*
X22608000Y-11504847D01*
X22608000Y-11504851D01*
X22652096Y-11726536D01*
X22820071Y-11977929D01*
X22883530Y-12020331D01*
X24619000Y-13755802D01*
X24619000Y-13921874D01*
X24776569Y-14302280D01*
X25067720Y-14593431D01*
X25448126Y-14751000D01*
X25859874Y-14751000D01*
X26240280Y-14593431D01*
X26531431Y-14302280D01*
X26689000Y-13921874D01*
X26689000Y-13510126D01*
X26531431Y-13129720D01*
X26240280Y-12838569D01*
X25859874Y-12681000D01*
X25693802Y-12681000D01*
X24128000Y-11115199D01*
X24128000Y-7307711D01*
X24245431Y-7190280D01*
X24403000Y-6809874D01*
X24403000Y-6398126D01*
X24245431Y-6017720D01*
X23954280Y-5726569D01*
X23573874Y-5569000D01*
X23162126Y-5569000D01*
X22781720Y-5726569D01*
X22490569Y-6017720D01*
X22333000Y-6398126D01*
X15875921Y-6398126D01*
X16021000Y-6047874D01*
X16021000Y-5636126D01*
X15863431Y-5255720D01*
X15572280Y-4964569D01*
X15191874Y-4807000D01*
X14780126Y-4807000D01*
X14399720Y-4964569D01*
X14108569Y-5255720D01*
X13951000Y-5636126D01*
X13951000Y-5802197D01*
X8342199Y-11411000D01*
X8176126Y-11411000D01*
X7795720Y-11568569D01*
X7504569Y-11859720D01*
X7347000Y-12240126D01*
X735000Y-12240126D01*
X735000Y-11445001D01*
X1849250Y-11445001D01*
X2008000Y-11286251D01*
X2008000Y-8837001D01*
X2262000Y-8837001D01*
X2262000Y-11286251D01*
X2420750Y-11445001D01*
X3761309Y-11445001D01*
X3994698Y-11348328D01*
X4173327Y-11169700D01*
X4270000Y-10936311D01*
X4270000Y-8995751D01*
X4111250Y-8837001D01*
X2262000Y-8837001D01*
X2008000Y-8837001D01*
X1988000Y-8837001D01*
X1988000Y-8583001D01*
X2008000Y-8583001D01*
X2008000Y-6133751D01*
X2262000Y-6133751D01*
X2262000Y-8583001D01*
X4111250Y-8583001D01*
X4270000Y-8424251D01*
X4270000Y-6483691D01*
X4173327Y-6250302D01*
X3994698Y-6071674D01*
X3761309Y-5975001D01*
X2420750Y-5975001D01*
X2262000Y-6133751D01*
X2008000Y-6133751D01*
X1849250Y-5975001D01*
X735000Y-5975001D01*
X735000Y-3858126D01*
X4299000Y-3858126D01*
X4299000Y-4269874D01*
X4456569Y-4650280D01*
X4747720Y-4941431D01*
X5128126Y-5099000D01*
X5539874Y-5099000D01*
X5920280Y-4941431D01*
X6037711Y-4824000D01*
X8067199Y-4824000D01*
X9887000Y-6643803D01*
X9887000Y-6809874D01*
X10044569Y-7190280D01*
X10335720Y-7481431D01*
X10716126Y-7639000D01*
X11127874Y-7639000D01*
X11508280Y-7481431D01*
X11799431Y-7190280D01*
X11957000Y-6809874D01*
X11957000Y-6398126D01*
X11799431Y-6017720D01*
X11508280Y-5726569D01*
X11127874Y-5569000D01*
X10961803Y-5569000D01*
X8972331Y-3579530D01*
X8929929Y-3516071D01*
X8681576Y-3350126D01*
X17253000Y-3350126D01*
X17253000Y-3761874D01*
X17410569Y-4142280D01*
X17701720Y-4433431D01*
X18034661Y-4571339D01*
X18172569Y-4904280D01*
X18463720Y-5195431D01*
X18844126Y-5353000D01*
X19255874Y-5353000D01*
X19636280Y-5195431D01*
X19753711Y-5078000D01*
X25388208Y-5078000D01*
X26905000Y-6594793D01*
X26905000Y-6760865D01*
X27062569Y-7141271D01*
X27353720Y-7432422D01*
X27734126Y-7589991D01*
X28145874Y-7589991D01*
X28526280Y-7432422D01*
X28817431Y-7141271D01*
X28975000Y-6760865D01*
X28975000Y-6349117D01*
X28817431Y-5968711D01*
X28526280Y-5677560D01*
X28145874Y-5519991D01*
X27979802Y-5519991D01*
X26775810Y-4316000D01*
X27236289Y-4316000D01*
X27353720Y-4433431D01*
X27734126Y-4591000D01*
X28145874Y-4591000D01*
X28526280Y-4433431D01*
X28817431Y-4142280D01*
X28975000Y-3761874D01*
X28975000Y-3350126D01*
X28817431Y-2969720D01*
X28526280Y-2678569D01*
X28145874Y-2521000D01*
X27734126Y-2521000D01*
X27353720Y-2678569D01*
X27236289Y-2796000D01*
X18991711Y-2796000D01*
X18874280Y-2678569D01*
X18493874Y-2521000D01*
X18082126Y-2521000D01*
X17701720Y-2678569D01*
X17410569Y-2969720D01*
X17253000Y-3350126D01*
X8681576Y-3350126D01*
X8678537Y-3348096D01*
X8456852Y-3304000D01*
X8456847Y-3304000D01*
X8382000Y-3289112D01*
X8307153Y-3304000D01*
X6037711Y-3304000D01*
X5920280Y-3186569D01*
X5539874Y-3029000D01*
X5128126Y-3029000D01*
X4747720Y-3186569D01*
X4456569Y-3477720D01*
X4299000Y-3858126D01*
X735000Y-3858126D01*
X735000Y-735000D01*
X19313089Y-735000D01*
X19185000Y-1044234D01*
X19185000Y-1044234D01*
G37*
X19185000Y-1044234D02*
X19185000Y-1495766D01*
X19357793Y-1912926D01*
X19677074Y-2232207D01*
X20094234Y-2405000D01*
X20545766Y-2405000D01*
X20962926Y-2232207D01*
X21282207Y-1912926D01*
X21455000Y-1495766D01*
X21455000Y-1044234D01*
X21326911Y-735000D01*
X25663089Y-735000D01*
X25535000Y-1044234D01*
X25535000Y-1495766D01*
X25707793Y-1912926D01*
X26027074Y-2232207D01*
X26444234Y-2405000D01*
X26895766Y-2405000D01*
X27312926Y-2232207D01*
X27632207Y-1912926D01*
X27805000Y-1495766D01*
X27805000Y-1044234D01*
X27676911Y-735000D01*
X29710229Y-735000D01*
X29630000Y-928690D01*
X29630000Y-1619250D01*
X29788750Y-1778000D01*
X30988000Y-1778000D01*
X30988000Y-1758000D01*
X31242000Y-1758000D01*
X31242000Y-1778000D01*
X31262000Y-1778000D01*
X31262000Y-2032000D01*
X31242000Y-2032000D01*
X31242000Y-2052000D01*
X30988000Y-2052000D01*
X30988000Y-2032000D01*
X29788750Y-2032000D01*
X29630000Y-2190750D01*
X29630000Y-2881310D01*
X29726673Y-3114699D01*
X29905302Y-3293327D01*
X30066033Y-3359904D01*
X30044375Y-3374375D01*
X29716161Y-3865582D01*
X29600908Y-4445000D01*
X29716161Y-5024418D01*
X30044375Y-5515625D01*
X30535582Y-5843839D01*
X30968744Y-5930000D01*
X31261256Y-5930000D01*
X31694418Y-5843839D01*
X32185625Y-5515625D01*
X32279487Y-5375150D01*
X32278885Y-5962561D01*
X29635000Y-5962561D01*
X29387235Y-6011844D01*
X29177191Y-6152192D01*
X29036843Y-6362236D01*
X28987560Y-6610001D01*
X28987560Y-10810001D01*
X29036843Y-11057766D01*
X29177191Y-11267810D01*
X29387235Y-11408158D01*
X29635000Y-11457441D01*
X29885757Y-11457441D01*
X28662199Y-12681000D01*
X28496126Y-12681000D01*
X28115720Y-12838569D01*
X27824569Y-13129720D01*
X27667000Y-13510126D01*
X27667000Y-13921874D01*
X27824569Y-14302280D01*
X28115720Y-14593431D01*
X28496126Y-14751000D01*
X28907874Y-14751000D01*
X29288280Y-14593431D01*
X29579431Y-14302280D01*
X29737000Y-13921874D01*
X29737000Y-13755801D01*
X31726476Y-11766327D01*
X31789929Y-11723929D01*
X31832327Y-11660476D01*
X31832329Y-11660474D01*
X31957903Y-11472538D01*
X31957904Y-11472537D01*
X31960907Y-11457441D01*
X32273249Y-11457441D01*
X32265754Y-18765000D01*
X7590711Y-18765000D01*
X7735431Y-18620280D01*
X7893000Y-18239874D01*
X7893000Y-18073801D01*
X8682621Y-17284180D01*
X25415000Y-17284180D01*
X25415000Y-17715820D01*
X25580182Y-18114603D01*
X25885397Y-18419818D01*
X26284180Y-18585000D01*
X26715820Y-18585000D01*
X27114603Y-18419818D01*
X27419818Y-18114603D01*
X27585000Y-17715820D01*
X27585000Y-17284180D01*
X28415000Y-17284180D01*
X28415000Y-17715820D01*
X28580182Y-18114603D01*
X28885397Y-18419818D01*
X29284180Y-18585000D01*
X29715820Y-18585000D01*
X30114603Y-18419818D01*
X30419818Y-18114603D01*
X30585000Y-17715820D01*
X30585000Y-17284180D01*
X30419818Y-16885397D01*
X30114603Y-16580182D01*
X29715820Y-16415000D01*
X29284180Y-16415000D01*
X28885397Y-16580182D01*
X28580182Y-16885397D01*
X28415000Y-17284180D01*
X27585000Y-17284180D01*
X27419818Y-16885397D01*
X27114603Y-16580182D01*
X26715820Y-16415000D01*
X26284180Y-16415000D01*
X25885397Y-16580182D01*
X25580182Y-16885397D01*
X25415000Y-17284180D01*
X8682621Y-17284180D01*
X10474802Y-15492000D01*
X11742289Y-15492000D01*
X11859720Y-15609431D01*
X12240126Y-15767000D01*
X12651874Y-15767000D01*
X13032280Y-15609431D01*
X13323431Y-15318280D01*
X13481000Y-14937874D01*
X13481000Y-14526126D01*
X13323431Y-14145720D01*
X13032280Y-13854569D01*
X12651874Y-13697000D01*
X12240126Y-13697000D01*
X11859720Y-13854569D01*
X11742289Y-13972000D01*
X10234846Y-13972000D01*
X10159999Y-13957112D01*
X10085152Y-13972000D01*
X10085148Y-13972000D01*
X9863463Y-14016096D01*
X9612071Y-14184071D01*
X9569671Y-14247527D01*
X6818199Y-16999000D01*
X6652126Y-16999000D01*
X6271720Y-17156569D01*
X5980569Y-17447720D01*
X5823000Y-17828126D01*
X5823000Y-18239874D01*
X5980569Y-18620280D01*
X6125289Y-18765000D01*
X3386400Y-18765000D01*
X3390000Y-18756310D01*
X3390000Y-18065750D01*
X3231250Y-17907000D01*
X2032000Y-17907000D01*
X2032000Y-17927000D01*
X1778000Y-17927000D01*
X1778000Y-17907000D01*
X1758000Y-17907000D01*
X1758000Y-17653000D01*
X1778000Y-17653000D01*
X1778000Y-17633000D01*
X2032000Y-17633000D01*
X2032000Y-17653000D01*
X3231250Y-17653000D01*
X3390000Y-17494250D01*
X3390000Y-16803690D01*
X3293327Y-16570301D01*
X3114698Y-16391673D01*
X2953967Y-16325096D01*
X2975625Y-16310625D01*
X3303839Y-15819418D01*
X3419092Y-15240000D01*
X3303839Y-14660582D01*
X2975625Y-14169375D01*
X2484418Y-13841161D01*
X2051256Y-13755000D01*
X1758744Y-13755000D01*
X1325582Y-13841161D01*
X834375Y-14169375D01*
X735000Y-14318100D01*
X735000Y-12240126D01*
X7347000Y-12240126D01*
X7347000Y-12651874D01*
X7504569Y-13032280D01*
X7795720Y-13323431D01*
X8176126Y-13481000D01*
X8587874Y-13481000D01*
X8968280Y-13323431D01*
X9259431Y-13032280D01*
X9417000Y-12651874D01*
X9417000Y-12485801D01*
X15025803Y-6877000D01*
X15191874Y-6877000D01*
X15572280Y-6719431D01*
X15863431Y-6428280D01*
X15875921Y-6398126D01*
X22333000Y-6398126D01*
X22333000Y-6809874D01*
X22490569Y-7190280D01*
X22608001Y-7307712D01*
X22608000Y-11355153D01*
X22593112Y-11430000D01*
X22608000Y-11504847D01*
X22608000Y-11504851D01*
X22652096Y-11726536D01*
X22820071Y-11977929D01*
X22883530Y-12020331D01*
X24619000Y-13755802D01*
X24619000Y-13921874D01*
X24776569Y-14302280D01*
X25067720Y-14593431D01*
X25448126Y-14751000D01*
X25859874Y-14751000D01*
X26240280Y-14593431D01*
X26531431Y-14302280D01*
X26689000Y-13921874D01*
X26689000Y-13510126D01*
X26531431Y-13129720D01*
X26240280Y-12838569D01*
X25859874Y-12681000D01*
X25693802Y-12681000D01*
X24128000Y-11115199D01*
X24128000Y-7307711D01*
X24245431Y-7190280D01*
X24403000Y-6809874D01*
X24403000Y-6398126D01*
X24245431Y-6017720D01*
X23954280Y-5726569D01*
X23573874Y-5569000D01*
X23162126Y-5569000D01*
X22781720Y-5726569D01*
X22490569Y-6017720D01*
X22333000Y-6398126D01*
X15875921Y-6398126D01*
X16021000Y-6047874D01*
X16021000Y-5636126D01*
X15863431Y-5255720D01*
X15572280Y-4964569D01*
X15191874Y-4807000D01*
X14780126Y-4807000D01*
X14399720Y-4964569D01*
X14108569Y-5255720D01*
X13951000Y-5636126D01*
X13951000Y-5802197D01*
X8342199Y-11411000D01*
X8176126Y-11411000D01*
X7795720Y-11568569D01*
X7504569Y-11859720D01*
X7347000Y-12240126D01*
X735000Y-12240126D01*
X735000Y-11445001D01*
X1849250Y-11445001D01*
X2008000Y-11286251D01*
X2008000Y-8837001D01*
X2262000Y-8837001D01*
X2262000Y-11286251D01*
X2420750Y-11445001D01*
X3761309Y-11445001D01*
X3994698Y-11348328D01*
X4173327Y-11169700D01*
X4270000Y-10936311D01*
X4270000Y-8995751D01*
X4111250Y-8837001D01*
X2262000Y-8837001D01*
X2008000Y-8837001D01*
X1988000Y-8837001D01*
X1988000Y-8583001D01*
X2008000Y-8583001D01*
X2008000Y-6133751D01*
X2262000Y-6133751D01*
X2262000Y-8583001D01*
X4111250Y-8583001D01*
X4270000Y-8424251D01*
X4270000Y-6483691D01*
X4173327Y-6250302D01*
X3994698Y-6071674D01*
X3761309Y-5975001D01*
X2420750Y-5975001D01*
X2262000Y-6133751D01*
X2008000Y-6133751D01*
X1849250Y-5975001D01*
X735000Y-5975001D01*
X735000Y-3858126D01*
X4299000Y-3858126D01*
X4299000Y-4269874D01*
X4456569Y-4650280D01*
X4747720Y-4941431D01*
X5128126Y-5099000D01*
X5539874Y-5099000D01*
X5920280Y-4941431D01*
X6037711Y-4824000D01*
X8067199Y-4824000D01*
X9887000Y-6643803D01*
X9887000Y-6809874D01*
X10044569Y-7190280D01*
X10335720Y-7481431D01*
X10716126Y-7639000D01*
X11127874Y-7639000D01*
X11508280Y-7481431D01*
X11799431Y-7190280D01*
X11957000Y-6809874D01*
X11957000Y-6398126D01*
X11799431Y-6017720D01*
X11508280Y-5726569D01*
X11127874Y-5569000D01*
X10961803Y-5569000D01*
X8972331Y-3579530D01*
X8929929Y-3516071D01*
X8681576Y-3350126D01*
X17253000Y-3350126D01*
X17253000Y-3761874D01*
X17410569Y-4142280D01*
X17701720Y-4433431D01*
X18034661Y-4571339D01*
X18172569Y-4904280D01*
X18463720Y-5195431D01*
X18844126Y-5353000D01*
X19255874Y-5353000D01*
X19636280Y-5195431D01*
X19753711Y-5078000D01*
X25388208Y-5078000D01*
X26905000Y-6594793D01*
X26905000Y-6760865D01*
X27062569Y-7141271D01*
X27353720Y-7432422D01*
X27734126Y-7589991D01*
X28145874Y-7589991D01*
X28526280Y-7432422D01*
X28817431Y-7141271D01*
X28975000Y-6760865D01*
X28975000Y-6349117D01*
X28817431Y-5968711D01*
X28526280Y-5677560D01*
X28145874Y-5519991D01*
X27979802Y-5519991D01*
X26775810Y-4316000D01*
X27236289Y-4316000D01*
X27353720Y-4433431D01*
X27734126Y-4591000D01*
X28145874Y-4591000D01*
X28526280Y-4433431D01*
X28817431Y-4142280D01*
X28975000Y-3761874D01*
X28975000Y-3350126D01*
X28817431Y-2969720D01*
X28526280Y-2678569D01*
X28145874Y-2521000D01*
X27734126Y-2521000D01*
X27353720Y-2678569D01*
X27236289Y-2796000D01*
X18991711Y-2796000D01*
X18874280Y-2678569D01*
X18493874Y-2521000D01*
X18082126Y-2521000D01*
X17701720Y-2678569D01*
X17410569Y-2969720D01*
X17253000Y-3350126D01*
X8681576Y-3350126D01*
X8678537Y-3348096D01*
X8456852Y-3304000D01*
X8456847Y-3304000D01*
X8382000Y-3289112D01*
X8307153Y-3304000D01*
X6037711Y-3304000D01*
X5920280Y-3186569D01*
X5539874Y-3029000D01*
X5128126Y-3029000D01*
X4747720Y-3186569D01*
X4456569Y-3477720D01*
X4299000Y-3858126D01*
X735000Y-3858126D01*
X735000Y-735000D01*
X19313089Y-735000D01*
X19185000Y-1044234D01*
G04 #@! TD*
M02*
