G04 #@! TF.GenerationSoftware,KiCad,Pcbnew,(5.1.4-0)*
G04 #@! TF.CreationDate,2019-09-04T21:36:44-07:00*
G04 #@! TF.ProjectId,pic_beeper,7069635f-6265-4657-9065-722e6b696361,rev?*
G04 #@! TF.SameCoordinates,Original*
G04 #@! TF.FileFunction,Soldermask,Bot*
G04 #@! TF.FilePolarity,Negative*
%FSLAX46Y46*%
G04 Gerber Fmt 4.6, Leading zero omitted, Abs format (unit mm)*
G04 Created by KiCad (PCBNEW (5.1.4-0)) date 2019-09-04 21:36:44*
%MOMM*%
%LPD*%
G04 APERTURE LIST*
%ADD10C,0.100000*%
G04 APERTURE END LIST*
D10*
G36*
X47256000Y-24396000D02*
G01*
X45454000Y-24396000D01*
X45454000Y-22594000D01*
X47256000Y-22594000D01*
X47256000Y-24396000D01*
X47256000Y-24396000D01*
G37*
G36*
X38221740Y-23384627D02*
G01*
X38270136Y-23394253D01*
X38307902Y-23409896D01*
X38361311Y-23432019D01*
X38361312Y-23432020D01*
X38443369Y-23486848D01*
X38513152Y-23556631D01*
X38513153Y-23556633D01*
X38567981Y-23638689D01*
X38605747Y-23729865D01*
X38625000Y-23826655D01*
X38625000Y-23925345D01*
X38605747Y-24022135D01*
X38567981Y-24113311D01*
X38567980Y-24113312D01*
X38513152Y-24195369D01*
X38443369Y-24265152D01*
X38402062Y-24292752D01*
X38361311Y-24319981D01*
X38307902Y-24342104D01*
X38270136Y-24357747D01*
X38221740Y-24367373D01*
X38173345Y-24377000D01*
X38074655Y-24377000D01*
X38026260Y-24367373D01*
X37977864Y-24357747D01*
X37940098Y-24342104D01*
X37886689Y-24319981D01*
X37845938Y-24292752D01*
X37804631Y-24265152D01*
X37734848Y-24195369D01*
X37680020Y-24113312D01*
X37680019Y-24113311D01*
X37642253Y-24022135D01*
X37623000Y-23925345D01*
X37623000Y-23826655D01*
X37642253Y-23729865D01*
X37680019Y-23638689D01*
X37734847Y-23556633D01*
X37734848Y-23556631D01*
X37804631Y-23486848D01*
X37886688Y-23432020D01*
X37886689Y-23432019D01*
X37940098Y-23409896D01*
X37977864Y-23394253D01*
X38026260Y-23384626D01*
X38074655Y-23375000D01*
X38173345Y-23375000D01*
X38221740Y-23384627D01*
X38221740Y-23384627D01*
G37*
G36*
X41221740Y-23384627D02*
G01*
X41270136Y-23394253D01*
X41307902Y-23409896D01*
X41361311Y-23432019D01*
X41361312Y-23432020D01*
X41443369Y-23486848D01*
X41513152Y-23556631D01*
X41513153Y-23556633D01*
X41567981Y-23638689D01*
X41605747Y-23729865D01*
X41625000Y-23826655D01*
X41625000Y-23925345D01*
X41605747Y-24022135D01*
X41567981Y-24113311D01*
X41567980Y-24113312D01*
X41513152Y-24195369D01*
X41443369Y-24265152D01*
X41402062Y-24292752D01*
X41361311Y-24319981D01*
X41307902Y-24342104D01*
X41270136Y-24357747D01*
X41221740Y-24367373D01*
X41173345Y-24377000D01*
X41074655Y-24377000D01*
X41026260Y-24367373D01*
X40977864Y-24357747D01*
X40940098Y-24342104D01*
X40886689Y-24319981D01*
X40845938Y-24292752D01*
X40804631Y-24265152D01*
X40734848Y-24195369D01*
X40680020Y-24113312D01*
X40680019Y-24113311D01*
X40642253Y-24022135D01*
X40623000Y-23925345D01*
X40623000Y-23826655D01*
X40642253Y-23729865D01*
X40680019Y-23638689D01*
X40734847Y-23556633D01*
X40734848Y-23556631D01*
X40804631Y-23486848D01*
X40886688Y-23432020D01*
X40886689Y-23432019D01*
X40940098Y-23409896D01*
X40977864Y-23394253D01*
X41026260Y-23384626D01*
X41074655Y-23375000D01*
X41173345Y-23375000D01*
X41221740Y-23384627D01*
X41221740Y-23384627D01*
G37*
G36*
X46465442Y-20060518D02*
G01*
X46531627Y-20067037D01*
X46701466Y-20118557D01*
X46857991Y-20202222D01*
X46893729Y-20231552D01*
X46995186Y-20314814D01*
X47078448Y-20416271D01*
X47107778Y-20452009D01*
X47191443Y-20608534D01*
X47242963Y-20778373D01*
X47260359Y-20955000D01*
X47242963Y-21131627D01*
X47191443Y-21301466D01*
X47107778Y-21457991D01*
X47078448Y-21493729D01*
X46995186Y-21595186D01*
X46893729Y-21678448D01*
X46857991Y-21707778D01*
X46701466Y-21791443D01*
X46531627Y-21842963D01*
X46465443Y-21849481D01*
X46399260Y-21856000D01*
X46310740Y-21856000D01*
X46244557Y-21849481D01*
X46178373Y-21842963D01*
X46008534Y-21791443D01*
X45852009Y-21707778D01*
X45816271Y-21678448D01*
X45714814Y-21595186D01*
X45631552Y-21493729D01*
X45602222Y-21457991D01*
X45518557Y-21301466D01*
X45467037Y-21131627D01*
X45449641Y-20955000D01*
X45467037Y-20778373D01*
X45518557Y-20608534D01*
X45602222Y-20452009D01*
X45631552Y-20416271D01*
X45714814Y-20314814D01*
X45816271Y-20231552D01*
X45852009Y-20202222D01*
X46008534Y-20118557D01*
X46178373Y-20067037D01*
X46244558Y-20060518D01*
X46310740Y-20054000D01*
X46399260Y-20054000D01*
X46465442Y-20060518D01*
X46465442Y-20060518D01*
G37*
G36*
X46465442Y-17520518D02*
G01*
X46531627Y-17527037D01*
X46701466Y-17578557D01*
X46857991Y-17662222D01*
X46893729Y-17691552D01*
X46995186Y-17774814D01*
X47078448Y-17876271D01*
X47107778Y-17912009D01*
X47191443Y-18068534D01*
X47242963Y-18238373D01*
X47260359Y-18415000D01*
X47242963Y-18591627D01*
X47191443Y-18761466D01*
X47107778Y-18917991D01*
X47099411Y-18928186D01*
X46995186Y-19055186D01*
X46893729Y-19138448D01*
X46857991Y-19167778D01*
X46701466Y-19251443D01*
X46531627Y-19302963D01*
X46465442Y-19309482D01*
X46399260Y-19316000D01*
X46310740Y-19316000D01*
X46244558Y-19309482D01*
X46178373Y-19302963D01*
X46008534Y-19251443D01*
X45852009Y-19167778D01*
X45816271Y-19138448D01*
X45714814Y-19055186D01*
X45610589Y-18928186D01*
X45602222Y-18917991D01*
X45518557Y-18761466D01*
X45467037Y-18591627D01*
X45449641Y-18415000D01*
X45467037Y-18238373D01*
X45518557Y-18068534D01*
X45602222Y-17912009D01*
X45631552Y-17876271D01*
X45714814Y-17774814D01*
X45816271Y-17691552D01*
X45852009Y-17662222D01*
X46008534Y-17578557D01*
X46178373Y-17527037D01*
X46244558Y-17520518D01*
X46310740Y-17514000D01*
X46399260Y-17514000D01*
X46465442Y-17520518D01*
X46465442Y-17520518D01*
G37*
G36*
X14588442Y-17393518D02*
G01*
X14654627Y-17400037D01*
X14824466Y-17451557D01*
X14980991Y-17535222D01*
X15016729Y-17564552D01*
X15118186Y-17647814D01*
X15201448Y-17749271D01*
X15230778Y-17785009D01*
X15314443Y-17941534D01*
X15365963Y-18111373D01*
X15383359Y-18288000D01*
X15365963Y-18464627D01*
X15314443Y-18634466D01*
X15230778Y-18790991D01*
X15201448Y-18826729D01*
X15118186Y-18928186D01*
X15016729Y-19011448D01*
X14980991Y-19040778D01*
X14824466Y-19124443D01*
X14654627Y-19175963D01*
X14588443Y-19182481D01*
X14522260Y-19189000D01*
X14433740Y-19189000D01*
X14367557Y-19182481D01*
X14301373Y-19175963D01*
X14131534Y-19124443D01*
X13975009Y-19040778D01*
X13939271Y-19011448D01*
X13837814Y-18928186D01*
X13754552Y-18826729D01*
X13725222Y-18790991D01*
X13641557Y-18634466D01*
X13590037Y-18464627D01*
X13572641Y-18288000D01*
X13590037Y-18111373D01*
X13641557Y-17941534D01*
X13725222Y-17785009D01*
X13754552Y-17749271D01*
X13837814Y-17647814D01*
X13939271Y-17564552D01*
X13975009Y-17535222D01*
X14131534Y-17451557D01*
X14301373Y-17400037D01*
X14367558Y-17393518D01*
X14433740Y-17387000D01*
X14522260Y-17387000D01*
X14588442Y-17393518D01*
X14588442Y-17393518D01*
G37*
G36*
X40037618Y-16863420D02*
G01*
X40118400Y-16887925D01*
X40160336Y-16900646D01*
X40273425Y-16961094D01*
X40372554Y-17042446D01*
X40453906Y-17141575D01*
X40514354Y-17254664D01*
X40514355Y-17254668D01*
X40551580Y-17377382D01*
X40561000Y-17473027D01*
X40561000Y-18086973D01*
X40551580Y-18182618D01*
X40534667Y-18238373D01*
X40514354Y-18305336D01*
X40453906Y-18418425D01*
X40372554Y-18517553D01*
X40273424Y-18598906D01*
X40160335Y-18659354D01*
X40128403Y-18669040D01*
X40037617Y-18696580D01*
X39910000Y-18709149D01*
X39782382Y-18696580D01*
X39691596Y-18669040D01*
X39659664Y-18659354D01*
X39546575Y-18598906D01*
X39447447Y-18517554D01*
X39366094Y-18418424D01*
X39305646Y-18305335D01*
X39285334Y-18238375D01*
X39268420Y-18182617D01*
X39259000Y-18086972D01*
X39259000Y-17473027D01*
X39268420Y-17377382D01*
X39305645Y-17254668D01*
X39305645Y-17254667D01*
X39337957Y-17194217D01*
X39366095Y-17141574D01*
X39379493Y-17125249D01*
X39447447Y-17042446D01*
X39546576Y-16961094D01*
X39659665Y-16900646D01*
X39701601Y-16887925D01*
X39782383Y-16863420D01*
X39910000Y-16850851D01*
X40037618Y-16863420D01*
X40037618Y-16863420D01*
G37*
G36*
X42401242Y-16858404D02*
G01*
X42438337Y-16869657D01*
X42472515Y-16887925D01*
X42502481Y-16912519D01*
X42527075Y-16942485D01*
X42545343Y-16976663D01*
X42556596Y-17013758D01*
X42561000Y-17058474D01*
X42561000Y-18501526D01*
X42556596Y-18546242D01*
X42545343Y-18583337D01*
X42527075Y-18617515D01*
X42502481Y-18647481D01*
X42472515Y-18672075D01*
X42438337Y-18690343D01*
X42401242Y-18701596D01*
X42356526Y-18706000D01*
X41463474Y-18706000D01*
X41418758Y-18701596D01*
X41381663Y-18690343D01*
X41347485Y-18672075D01*
X41317519Y-18647481D01*
X41292925Y-18617515D01*
X41274657Y-18583337D01*
X41263404Y-18546242D01*
X41259000Y-18501526D01*
X41259000Y-17058474D01*
X41263404Y-17013758D01*
X41274657Y-16976663D01*
X41292925Y-16942485D01*
X41317519Y-16912519D01*
X41347485Y-16887925D01*
X41381663Y-16869657D01*
X41418758Y-16858404D01*
X41463474Y-16854000D01*
X42356526Y-16854000D01*
X42401242Y-16858404D01*
X42401242Y-16858404D01*
G37*
G36*
X14588442Y-14853518D02*
G01*
X14654627Y-14860037D01*
X14824466Y-14911557D01*
X14980991Y-14995222D01*
X15016729Y-15024552D01*
X15118186Y-15107814D01*
X15201448Y-15209271D01*
X15230778Y-15245009D01*
X15314443Y-15401534D01*
X15365963Y-15571373D01*
X15383359Y-15748000D01*
X15365963Y-15924627D01*
X15314443Y-16094466D01*
X15230778Y-16250991D01*
X15201448Y-16286729D01*
X15118186Y-16388186D01*
X15016729Y-16471448D01*
X14980991Y-16500778D01*
X14824466Y-16584443D01*
X14654627Y-16635963D01*
X14588443Y-16642481D01*
X14522260Y-16649000D01*
X14433740Y-16649000D01*
X14367557Y-16642481D01*
X14301373Y-16635963D01*
X14131534Y-16584443D01*
X13975009Y-16500778D01*
X13939271Y-16471448D01*
X13837814Y-16388186D01*
X13754552Y-16286729D01*
X13725222Y-16250991D01*
X13641557Y-16094466D01*
X13590037Y-15924627D01*
X13572641Y-15748000D01*
X13590037Y-15571373D01*
X13641557Y-15401534D01*
X13725222Y-15245009D01*
X13754552Y-15209271D01*
X13837814Y-15107814D01*
X13939271Y-15024552D01*
X13975009Y-14995222D01*
X14131534Y-14911557D01*
X14301373Y-14860037D01*
X14367558Y-14853518D01*
X14433740Y-14847000D01*
X14522260Y-14847000D01*
X14588442Y-14853518D01*
X14588442Y-14853518D01*
G37*
G36*
X15379000Y-14109000D02*
G01*
X13577000Y-14109000D01*
X13577000Y-12307000D01*
X15379000Y-12307000D01*
X15379000Y-14109000D01*
X15379000Y-14109000D01*
G37*
G36*
X33942721Y-11662174D02*
G01*
X34042995Y-11703709D01*
X34042996Y-11703710D01*
X34133242Y-11764010D01*
X34209990Y-11840758D01*
X34209991Y-11840760D01*
X34270291Y-11931005D01*
X34311826Y-12031279D01*
X34333000Y-12137730D01*
X34333000Y-12246270D01*
X34311826Y-12352721D01*
X34270291Y-12452995D01*
X34270290Y-12452996D01*
X34209990Y-12543242D01*
X34133242Y-12619990D01*
X34087812Y-12650345D01*
X34042995Y-12680291D01*
X33942721Y-12721826D01*
X33836270Y-12743000D01*
X33727730Y-12743000D01*
X33621279Y-12721826D01*
X33521005Y-12680291D01*
X33476188Y-12650345D01*
X33430758Y-12619990D01*
X33354010Y-12543242D01*
X33293710Y-12452996D01*
X33293709Y-12452995D01*
X33253483Y-12355881D01*
X33241932Y-12334270D01*
X33226387Y-12315328D01*
X33207445Y-12299783D01*
X33185834Y-12288232D01*
X33162385Y-12281119D01*
X33137999Y-12278717D01*
X33113613Y-12281119D01*
X33090164Y-12288232D01*
X33068553Y-12299783D01*
X33049611Y-12315328D01*
X33034066Y-12334270D01*
X33022515Y-12355881D01*
X33015402Y-12379330D01*
X33013000Y-12403716D01*
X33013000Y-12693000D01*
X32011000Y-12693000D01*
X32011000Y-11691000D01*
X33013000Y-11691000D01*
X33013000Y-11980284D01*
X33015402Y-12004670D01*
X33022515Y-12028119D01*
X33034066Y-12049730D01*
X33049611Y-12068672D01*
X33068553Y-12084217D01*
X33090164Y-12095768D01*
X33113613Y-12102881D01*
X33137999Y-12105283D01*
X33162385Y-12102881D01*
X33185834Y-12095768D01*
X33207445Y-12084217D01*
X33226387Y-12068672D01*
X33241932Y-12049730D01*
X33253483Y-12028119D01*
X33293709Y-11931005D01*
X33354009Y-11840760D01*
X33354010Y-11840758D01*
X33430758Y-11764010D01*
X33521004Y-11703710D01*
X33521005Y-11703709D01*
X33621279Y-11662174D01*
X33727730Y-11641000D01*
X33836270Y-11641000D01*
X33942721Y-11662174D01*
X33942721Y-11662174D01*
G37*
G36*
X27592721Y-11662174D02*
G01*
X27692995Y-11703709D01*
X27692996Y-11703710D01*
X27783242Y-11764010D01*
X27859990Y-11840758D01*
X27859991Y-11840760D01*
X27920291Y-11931005D01*
X27960517Y-12028119D01*
X27972068Y-12049730D01*
X27987613Y-12068672D01*
X28006555Y-12084217D01*
X28028166Y-12095768D01*
X28051615Y-12102881D01*
X28076001Y-12105283D01*
X28100387Y-12102881D01*
X28123836Y-12095768D01*
X28145447Y-12084217D01*
X28164389Y-12068672D01*
X28179934Y-12049730D01*
X28191485Y-12028119D01*
X28198598Y-12004670D01*
X28201000Y-11980284D01*
X28201000Y-11691000D01*
X29203000Y-11691000D01*
X29203000Y-12693000D01*
X28201000Y-12693000D01*
X28201000Y-12403716D01*
X28198598Y-12379330D01*
X28191485Y-12355881D01*
X28179934Y-12334270D01*
X28164389Y-12315328D01*
X28145447Y-12299783D01*
X28123836Y-12288232D01*
X28100387Y-12281119D01*
X28076001Y-12278717D01*
X28051615Y-12281119D01*
X28028166Y-12288232D01*
X28006555Y-12299783D01*
X27987613Y-12315328D01*
X27972068Y-12334270D01*
X27960517Y-12355881D01*
X27920291Y-12452995D01*
X27920290Y-12452996D01*
X27859990Y-12543242D01*
X27783242Y-12619990D01*
X27737812Y-12650345D01*
X27692995Y-12680291D01*
X27592721Y-12721826D01*
X27486270Y-12743000D01*
X27377730Y-12743000D01*
X27271279Y-12721826D01*
X27171005Y-12680291D01*
X27126188Y-12650345D01*
X27080758Y-12619990D01*
X27004010Y-12543242D01*
X26943710Y-12452996D01*
X26943709Y-12452995D01*
X26902174Y-12352721D01*
X26881000Y-12246270D01*
X26881000Y-12137730D01*
X26902174Y-12031279D01*
X26943709Y-11931005D01*
X27004009Y-11840760D01*
X27004010Y-11840758D01*
X27080758Y-11764010D01*
X27171004Y-11703710D01*
X27171005Y-11703709D01*
X27271279Y-11662174D01*
X27377730Y-11641000D01*
X27486270Y-11641000D01*
X27592721Y-11662174D01*
X27592721Y-11662174D01*
G37*
G36*
X31743000Y-12693000D02*
G01*
X30741000Y-12693000D01*
X30741000Y-11691000D01*
X31743000Y-11691000D01*
X31743000Y-12693000D01*
X31743000Y-12693000D01*
G37*
G36*
X30473000Y-12693000D02*
G01*
X29471000Y-12693000D01*
X29471000Y-11691000D01*
X30473000Y-11691000D01*
X30473000Y-12693000D01*
X30473000Y-12693000D01*
G37*
M02*
