G04 #@! TF.GenerationSoftware,KiCad,Pcbnew,(5.0.2)-1*
G04 #@! TF.CreationDate,2019-05-05T02:29:21-07:00*
G04 #@! TF.ProjectId,pic_beeper,7069635f-6265-4657-9065-722e6b696361,rev?*
G04 #@! TF.SameCoordinates,Original*
G04 #@! TF.FileFunction,Soldermask,Bot*
G04 #@! TF.FilePolarity,Negative*
%FSLAX46Y46*%
G04 Gerber Fmt 4.6, Leading zero omitted, Abs format (unit mm)*
G04 Created by KiCad (PCBNEW (5.0.2)-1) date 5/5/2019 2:29:21 AM*
%MOMM*%
%LPD*%
G01*
G04 APERTURE LIST*
%ADD10C,0.100000*%
G04 APERTURE END LIST*
D10*
G36*
X62630786Y-37860462D02*
X62630788Y-37860463D01*
X62630789Y-37860463D01*
X63277029Y-38128144D01*
X63738323Y-38436371D01*
X63858634Y-38516760D01*
X64353240Y-39011366D01*
X64353242Y-39011369D01*
X64741856Y-39592971D01*
X64909747Y-39998296D01*
X65009538Y-40239214D01*
X65146000Y-40925256D01*
X65146000Y-41624744D01*
X65129307Y-41708668D01*
X65009537Y-42310789D01*
X64741856Y-42957029D01*
X64401551Y-43466332D01*
X64353240Y-43538634D01*
X63858634Y-44033240D01*
X63858631Y-44033242D01*
X63277029Y-44421856D01*
X62630789Y-44689537D01*
X62630788Y-44689537D01*
X62630786Y-44689538D01*
X61944744Y-44826000D01*
X61245256Y-44826000D01*
X60559214Y-44689538D01*
X60559212Y-44689537D01*
X60559211Y-44689537D01*
X59912971Y-44421856D01*
X59331369Y-44033242D01*
X59331366Y-44033240D01*
X58836760Y-43538634D01*
X58788449Y-43466332D01*
X58448144Y-42957029D01*
X58180463Y-42310789D01*
X58060694Y-41708668D01*
X58044000Y-41624744D01*
X58044000Y-40925256D01*
X58180462Y-40239214D01*
X58280253Y-39998296D01*
X58448144Y-39592971D01*
X58836758Y-39011369D01*
X58836760Y-39011366D01*
X59331366Y-38516760D01*
X59451677Y-38436371D01*
X59912971Y-38128144D01*
X60559211Y-37860463D01*
X60559212Y-37860463D01*
X60559214Y-37860462D01*
X61245256Y-37724000D01*
X61944744Y-37724000D01*
X62630786Y-37860462D01*
X62630786Y-37860462D01*
G37*
G36*
X77630721Y-43666174D02*
X77730995Y-43707709D01*
X77821245Y-43768012D01*
X77897988Y-43844755D01*
X77958291Y-43935005D01*
X77999826Y-44035279D01*
X78021000Y-44141730D01*
X78021000Y-44250270D01*
X77999826Y-44356721D01*
X77958291Y-44456995D01*
X77897988Y-44547245D01*
X77821245Y-44623988D01*
X77730995Y-44684291D01*
X77630721Y-44725826D01*
X77524270Y-44747000D01*
X77415730Y-44747000D01*
X77309279Y-44725826D01*
X77209005Y-44684291D01*
X77118755Y-44623988D01*
X77042012Y-44547245D01*
X76981709Y-44456995D01*
X76940174Y-44356721D01*
X76919000Y-44250270D01*
X76919000Y-44141730D01*
X76940174Y-44035279D01*
X76981709Y-43935005D01*
X77042012Y-43844755D01*
X77118755Y-43768012D01*
X77209005Y-43707709D01*
X77309279Y-43666174D01*
X77415730Y-43645000D01*
X77524270Y-43645000D01*
X77630721Y-43666174D01*
X77630721Y-43666174D01*
G37*
G36*
X84671000Y-44031000D02*
X82969000Y-44031000D01*
X82969000Y-42329000D01*
X84671000Y-42329000D01*
X84671000Y-44031000D01*
X84671000Y-44031000D01*
G37*
G36*
X84068228Y-38361703D02*
X84223100Y-38425853D01*
X84362481Y-38518985D01*
X84481015Y-38637519D01*
X84574147Y-38776900D01*
X84638297Y-38931772D01*
X84671000Y-39096184D01*
X84671000Y-39263816D01*
X84638297Y-39428228D01*
X84574147Y-39583100D01*
X84481015Y-39722481D01*
X84362481Y-39841015D01*
X84223100Y-39934147D01*
X84068228Y-39998297D01*
X83903816Y-40031000D01*
X83736184Y-40031000D01*
X83571772Y-39998297D01*
X83416900Y-39934147D01*
X83277519Y-39841015D01*
X83158985Y-39722481D01*
X83065853Y-39583100D01*
X83001703Y-39428228D01*
X82969000Y-39263816D01*
X82969000Y-39096184D01*
X83001703Y-38931772D01*
X83065853Y-38776900D01*
X83158985Y-38637519D01*
X83277519Y-38518985D01*
X83416900Y-38425853D01*
X83571772Y-38361703D01*
X83736184Y-38329000D01*
X83903816Y-38329000D01*
X84068228Y-38361703D01*
X84068228Y-38361703D01*
G37*
G36*
X77630721Y-37316174D02*
X77730995Y-37357709D01*
X77821245Y-37418012D01*
X77897988Y-37494755D01*
X77958291Y-37585005D01*
X77999826Y-37685279D01*
X78021000Y-37791730D01*
X78021000Y-37900270D01*
X77999826Y-38006721D01*
X77958291Y-38106995D01*
X77897988Y-38197245D01*
X77821245Y-38273988D01*
X77730995Y-38334291D01*
X77630721Y-38375826D01*
X77524270Y-38397000D01*
X77415730Y-38397000D01*
X77309279Y-38375826D01*
X77209005Y-38334291D01*
X77118755Y-38273988D01*
X77042012Y-38197245D01*
X76981709Y-38106995D01*
X76940174Y-38006721D01*
X76919000Y-37900270D01*
X76919000Y-37791730D01*
X76940174Y-37685279D01*
X76981709Y-37585005D01*
X77042012Y-37494755D01*
X77118755Y-37418012D01*
X77209005Y-37357709D01*
X77309279Y-37316174D01*
X77415730Y-37295000D01*
X77524270Y-37295000D01*
X77630721Y-37316174D01*
X77630721Y-37316174D01*
G37*
M02*
