G04 #@! TF.GenerationSoftware,KiCad,Pcbnew,(5.0.2)-1*
G04 #@! TF.CreationDate,2019-06-22T00:22:24-07:00*
G04 #@! TF.ProjectId,pic_beeper,7069635f-6265-4657-9065-722e6b696361,rev?*
G04 #@! TF.SameCoordinates,Original*
G04 #@! TF.FileFunction,Legend,Bot*
G04 #@! TF.FilePolarity,Positive*
%FSLAX46Y46*%
G04 Gerber Fmt 4.6, Leading zero omitted, Abs format (unit mm)*
G04 Created by KiCad (PCBNEW (5.0.2)-1) date 6/22/2019 12:22:24 AM*
%MOMM*%
%LPD*%
G01*
G04 APERTURE LIST*
%ADD10C,0.150000*%
%ADD11C,0.120000*%
G04 APERTURE END LIST*
D10*
X31908571Y-15025714D02*
X31670476Y-15692380D01*
X31432380Y-15025714D01*
X31099047Y-14787619D02*
X31051428Y-14740000D01*
X30956190Y-14692380D01*
X30718095Y-14692380D01*
X30622857Y-14740000D01*
X30575238Y-14787619D01*
X30527619Y-14882857D01*
X30527619Y-14978095D01*
X30575238Y-15120952D01*
X31146666Y-15692380D01*
X30527619Y-15692380D01*
X30099047Y-15597142D02*
X30051428Y-15644761D01*
X30099047Y-15692380D01*
X30146666Y-15644761D01*
X30099047Y-15597142D01*
X30099047Y-15692380D01*
X29099047Y-15692380D02*
X29670476Y-15692380D01*
X29384761Y-15692380D02*
X29384761Y-14692380D01*
X29480000Y-14835238D01*
X29575238Y-14930476D01*
X29670476Y-14978095D01*
G04 #@! TO.C,BT1*
X5585000Y-16710001D02*
X5585000Y-710001D01*
X5585000Y-710001D02*
X27685000Y-710001D01*
X5585000Y-16710001D02*
X25475000Y-16710001D01*
X27685000Y-14710001D02*
X27685000Y-710001D01*
X28700000Y-8075001D02*
X28700000Y-6805001D01*
X28065000Y-7440001D02*
X29335000Y-7440001D01*
X4570000Y-6805001D02*
X4570000Y-8075001D01*
X5205000Y-11250001D02*
X3935000Y-11250001D01*
X3300000Y-11250001D02*
X2030000Y-11250001D01*
X2030000Y-11250001D02*
X2030000Y-10615001D01*
X2030000Y-6805001D02*
X2030000Y-6170001D01*
X2030000Y-6170001D02*
X3300000Y-6170001D01*
X3935000Y-6170001D02*
X5205000Y-6170001D01*
X28065000Y-11250001D02*
X29335000Y-11250001D01*
X29970000Y-11250001D02*
X31240000Y-11250001D01*
X31240000Y-11250001D02*
X31240000Y-10615001D01*
X28065000Y-6170001D02*
X29335000Y-6170001D01*
X29970000Y-6170001D02*
X31240000Y-6170001D01*
X31240000Y-6170001D02*
X31240000Y-6805001D01*
X25475000Y-16710001D02*
X27685000Y-14710001D01*
D11*
G04 #@! TO.C,J2*
X575000Y-13910000D02*
X3235000Y-13910000D01*
X575000Y-16510000D02*
X575000Y-13910000D01*
X3235000Y-16510000D02*
X3235000Y-13910000D01*
X575000Y-16510000D02*
X3235000Y-16510000D01*
X575000Y-17780000D02*
X575000Y-19110000D01*
X575000Y-19110000D02*
X1905000Y-19110000D01*
G04 #@! TO.C,BT1*
D10*
X4595714Y-1198571D02*
X4452857Y-1246190D01*
X4405238Y-1293809D01*
X4357619Y-1389047D01*
X4357619Y-1531904D01*
X4405238Y-1627142D01*
X4452857Y-1674761D01*
X4548095Y-1722380D01*
X4929047Y-1722380D01*
X4929047Y-722380D01*
X4595714Y-722380D01*
X4500476Y-770000D01*
X4452857Y-817619D01*
X4405238Y-912857D01*
X4405238Y-1008095D01*
X4452857Y-1103333D01*
X4500476Y-1150952D01*
X4595714Y-1198571D01*
X4929047Y-1198571D01*
X4071904Y-722380D02*
X3500476Y-722380D01*
X3786190Y-1722380D02*
X3786190Y-722380D01*
X2643333Y-1722380D02*
X3214761Y-1722380D01*
X2929047Y-1722380D02*
X2929047Y-722380D01*
X3024285Y-865238D01*
X3119523Y-960476D01*
X3214761Y-1008095D01*
X18730238Y-9067143D02*
X18777857Y-9114762D01*
X18920714Y-9162381D01*
X19015952Y-9162381D01*
X19158809Y-9114762D01*
X19254047Y-9019524D01*
X19301666Y-8924286D01*
X19349285Y-8733810D01*
X19349285Y-8590953D01*
X19301666Y-8400477D01*
X19254047Y-8305239D01*
X19158809Y-8210001D01*
X19015952Y-8162381D01*
X18920714Y-8162381D01*
X18777857Y-8210001D01*
X18730238Y-8257620D01*
X17730238Y-9162381D02*
X18063571Y-8686191D01*
X18301666Y-9162381D02*
X18301666Y-8162381D01*
X17920714Y-8162381D01*
X17825476Y-8210001D01*
X17777857Y-8257620D01*
X17730238Y-8352858D01*
X17730238Y-8495715D01*
X17777857Y-8590953D01*
X17825476Y-8638572D01*
X17920714Y-8686191D01*
X18301666Y-8686191D01*
X17349285Y-8257620D02*
X17301666Y-8210001D01*
X17206428Y-8162381D01*
X16968333Y-8162381D01*
X16873095Y-8210001D01*
X16825476Y-8257620D01*
X16777857Y-8352858D01*
X16777857Y-8448096D01*
X16825476Y-8590953D01*
X17396904Y-9162381D01*
X16777857Y-9162381D01*
X16158809Y-8162381D02*
X16063571Y-8162381D01*
X15968333Y-8210001D01*
X15920714Y-8257620D01*
X15873095Y-8352858D01*
X15825476Y-8543334D01*
X15825476Y-8781429D01*
X15873095Y-8971905D01*
X15920714Y-9067143D01*
X15968333Y-9114762D01*
X16063571Y-9162381D01*
X16158809Y-9162381D01*
X16254047Y-9114762D01*
X16301666Y-9067143D01*
X16349285Y-8971905D01*
X16396904Y-8781429D01*
X16396904Y-8543334D01*
X16349285Y-8352858D01*
X16301666Y-8257620D01*
X16254047Y-8210001D01*
X16158809Y-8162381D01*
X15492142Y-8162381D02*
X14873095Y-8162381D01*
X15206428Y-8543334D01*
X15063571Y-8543334D01*
X14968333Y-8590953D01*
X14920714Y-8638572D01*
X14873095Y-8733810D01*
X14873095Y-8971905D01*
X14920714Y-9067143D01*
X14968333Y-9114762D01*
X15063571Y-9162381D01*
X15349285Y-9162381D01*
X15444523Y-9114762D01*
X15492142Y-9067143D01*
X14492142Y-8257620D02*
X14444523Y-8210001D01*
X14349285Y-8162381D01*
X14111190Y-8162381D01*
X14015952Y-8210001D01*
X13968333Y-8257620D01*
X13920714Y-8352858D01*
X13920714Y-8448096D01*
X13968333Y-8590953D01*
X14539761Y-9162381D01*
X13920714Y-9162381D01*
G04 #@! TO.C,J2*
X4778333Y-17232380D02*
X4778333Y-17946666D01*
X4825952Y-18089523D01*
X4921190Y-18184761D01*
X5064047Y-18232380D01*
X5159285Y-18232380D01*
X4349761Y-17327619D02*
X4302142Y-17280000D01*
X4206904Y-17232380D01*
X3968809Y-17232380D01*
X3873571Y-17280000D01*
X3825952Y-17327619D01*
X3778333Y-17422857D01*
X3778333Y-17518095D01*
X3825952Y-17660952D01*
X4397380Y-18232380D01*
X3778333Y-18232380D01*
G04 #@! TD*
M02*
