G04 #@! TF.GenerationSoftware,KiCad,Pcbnew,(5.0.2)-1*
G04 #@! TF.CreationDate,2019-05-05T02:29:21-07:00*
G04 #@! TF.ProjectId,pic_beeper,7069635f-6265-4657-9065-722e6b696361,rev?*
G04 #@! TF.SameCoordinates,Original*
G04 #@! TF.FileFunction,Paste,Top*
G04 #@! TF.FilePolarity,Positive*
%FSLAX46Y46*%
G04 Gerber Fmt 4.6, Leading zero omitted, Abs format (unit mm)*
G04 Created by KiCad (PCBNEW (5.0.2)-1) date 5/5/2019 2:29:21 AM*
%MOMM*%
%LPD*%
G01*
G04 APERTURE LIST*
%ADD10C,0.100000*%
%ADD11C,0.875000*%
%ADD12R,0.900000X0.900000*%
%ADD13R,1.200000X1.100000*%
%ADD14R,0.800000X1.100000*%
%ADD15R,1.200000X0.900000*%
%ADD16R,3.000000X4.200000*%
%ADD17R,1.000000X0.600000*%
%ADD18R,0.350000X0.650000*%
G04 APERTURE END LIST*
D10*
G04 #@! TO.C,C1*
G36*
X67587691Y-37358553D02*
X67608926Y-37361703D01*
X67629750Y-37366919D01*
X67649962Y-37374151D01*
X67669368Y-37383330D01*
X67687781Y-37394366D01*
X67705024Y-37407154D01*
X67720930Y-37421570D01*
X67735346Y-37437476D01*
X67748134Y-37454719D01*
X67759170Y-37473132D01*
X67768349Y-37492538D01*
X67775581Y-37512750D01*
X67780797Y-37533574D01*
X67783947Y-37554809D01*
X67785000Y-37576250D01*
X67785000Y-38013750D01*
X67783947Y-38035191D01*
X67780797Y-38056426D01*
X67775581Y-38077250D01*
X67768349Y-38097462D01*
X67759170Y-38116868D01*
X67748134Y-38135281D01*
X67735346Y-38152524D01*
X67720930Y-38168430D01*
X67705024Y-38182846D01*
X67687781Y-38195634D01*
X67669368Y-38206670D01*
X67649962Y-38215849D01*
X67629750Y-38223081D01*
X67608926Y-38228297D01*
X67587691Y-38231447D01*
X67566250Y-38232500D01*
X67053750Y-38232500D01*
X67032309Y-38231447D01*
X67011074Y-38228297D01*
X66990250Y-38223081D01*
X66970038Y-38215849D01*
X66950632Y-38206670D01*
X66932219Y-38195634D01*
X66914976Y-38182846D01*
X66899070Y-38168430D01*
X66884654Y-38152524D01*
X66871866Y-38135281D01*
X66860830Y-38116868D01*
X66851651Y-38097462D01*
X66844419Y-38077250D01*
X66839203Y-38056426D01*
X66836053Y-38035191D01*
X66835000Y-38013750D01*
X66835000Y-37576250D01*
X66836053Y-37554809D01*
X66839203Y-37533574D01*
X66844419Y-37512750D01*
X66851651Y-37492538D01*
X66860830Y-37473132D01*
X66871866Y-37454719D01*
X66884654Y-37437476D01*
X66899070Y-37421570D01*
X66914976Y-37407154D01*
X66932219Y-37394366D01*
X66950632Y-37383330D01*
X66970038Y-37374151D01*
X66990250Y-37366919D01*
X67011074Y-37361703D01*
X67032309Y-37358553D01*
X67053750Y-37357500D01*
X67566250Y-37357500D01*
X67587691Y-37358553D01*
X67587691Y-37358553D01*
G37*
D11*
X67310000Y-37795000D03*
D10*
G36*
X67587691Y-38933553D02*
X67608926Y-38936703D01*
X67629750Y-38941919D01*
X67649962Y-38949151D01*
X67669368Y-38958330D01*
X67687781Y-38969366D01*
X67705024Y-38982154D01*
X67720930Y-38996570D01*
X67735346Y-39012476D01*
X67748134Y-39029719D01*
X67759170Y-39048132D01*
X67768349Y-39067538D01*
X67775581Y-39087750D01*
X67780797Y-39108574D01*
X67783947Y-39129809D01*
X67785000Y-39151250D01*
X67785000Y-39588750D01*
X67783947Y-39610191D01*
X67780797Y-39631426D01*
X67775581Y-39652250D01*
X67768349Y-39672462D01*
X67759170Y-39691868D01*
X67748134Y-39710281D01*
X67735346Y-39727524D01*
X67720930Y-39743430D01*
X67705024Y-39757846D01*
X67687781Y-39770634D01*
X67669368Y-39781670D01*
X67649962Y-39790849D01*
X67629750Y-39798081D01*
X67608926Y-39803297D01*
X67587691Y-39806447D01*
X67566250Y-39807500D01*
X67053750Y-39807500D01*
X67032309Y-39806447D01*
X67011074Y-39803297D01*
X66990250Y-39798081D01*
X66970038Y-39790849D01*
X66950632Y-39781670D01*
X66932219Y-39770634D01*
X66914976Y-39757846D01*
X66899070Y-39743430D01*
X66884654Y-39727524D01*
X66871866Y-39710281D01*
X66860830Y-39691868D01*
X66851651Y-39672462D01*
X66844419Y-39652250D01*
X66839203Y-39631426D01*
X66836053Y-39610191D01*
X66835000Y-39588750D01*
X66835000Y-39151250D01*
X66836053Y-39129809D01*
X66839203Y-39108574D01*
X66844419Y-39087750D01*
X66851651Y-39067538D01*
X66860830Y-39048132D01*
X66871866Y-39029719D01*
X66884654Y-39012476D01*
X66899070Y-38996570D01*
X66914976Y-38982154D01*
X66932219Y-38969366D01*
X66950632Y-38958330D01*
X66970038Y-38949151D01*
X66990250Y-38941919D01*
X67011074Y-38936703D01*
X67032309Y-38933553D01*
X67053750Y-38932500D01*
X67566250Y-38932500D01*
X67587691Y-38933553D01*
X67587691Y-38933553D01*
G37*
D11*
X67310000Y-39370000D03*
G04 #@! TD*
D12*
G04 #@! TO.C,J1*
X77470000Y-39116000D03*
X77470000Y-40386000D03*
X77470000Y-41656000D03*
X77470000Y-42926000D03*
G04 #@! TD*
D13*
G04 #@! TO.C,SW1*
X71120000Y-42646000D03*
D14*
X69420000Y-42646000D03*
X72820000Y-42646000D03*
D15*
X75270000Y-44196000D03*
X66970000Y-44196000D03*
G04 #@! TD*
D16*
G04 #@! TO.C,BT1*
X88160000Y-27940000D03*
X59160000Y-27940000D03*
G04 #@! TD*
D17*
G04 #@! TO.C,U1*
X72460000Y-38875000D03*
X72460000Y-38100000D03*
X73660000Y-38100000D03*
X73660000Y-38875000D03*
D18*
X72085000Y-36937500D03*
X72735000Y-36937500D03*
X73385000Y-36937500D03*
X74035000Y-36937500D03*
X74035000Y-40037500D03*
X73385000Y-40037500D03*
X72735000Y-40037500D03*
X72085000Y-40037500D03*
G04 #@! TD*
M02*
