G04 #@! TF.GenerationSoftware,KiCad,Pcbnew,(5.0.2)-1*
G04 #@! TF.CreationDate,2019-05-05T02:29:21-07:00*
G04 #@! TF.ProjectId,pic_beeper,7069635f-6265-4657-9065-722e6b696361,rev?*
G04 #@! TF.SameCoordinates,Original*
G04 #@! TF.FileFunction,Copper,L2,Bot*
G04 #@! TF.FilePolarity,Positive*
%FSLAX46Y46*%
G04 Gerber Fmt 4.6, Leading zero omitted, Abs format (unit mm)*
G04 Created by KiCad (PCBNEW (5.0.2)-1) date 5/5/2019 2:29:21 AM*
%MOMM*%
%LPD*%
G01*
G04 APERTURE LIST*
G04 #@! TA.AperFunction,ComponentPad*
%ADD10C,1.600000*%
G04 #@! TD*
G04 #@! TA.AperFunction,ComponentPad*
%ADD11R,1.600000X1.600000*%
G04 #@! TD*
G04 #@! TA.AperFunction,ComponentPad*
%ADD12C,1.000000*%
G04 #@! TD*
G04 #@! TA.AperFunction,ComponentPad*
%ADD13C,7.000000*%
G04 #@! TD*
G04 #@! TA.AperFunction,ComponentPad*
%ADD14C,0.800000*%
G04 #@! TD*
G04 #@! TA.AperFunction,ViaPad*
%ADD15C,0.800000*%
G04 #@! TD*
G04 #@! TA.AperFunction,Conductor*
%ADD16C,0.200000*%
G04 #@! TD*
G04 #@! TA.AperFunction,Conductor*
%ADD17C,0.254000*%
G04 #@! TD*
G04 APERTURE END LIST*
D10*
G04 #@! TO.P,BZ1,2*
G04 #@! TO.N,-BATT*
X83820000Y-39180000D03*
D11*
G04 #@! TO.P,BZ1,1*
G04 #@! TO.N,/BUZZER*
X83820000Y-43180000D03*
G04 #@! TD*
D12*
G04 #@! TO.P,J1,6*
G04 #@! TO.N,Net-(J1-Pad6)*
X77470000Y-37846000D03*
G04 #@! TO.P,J1,1*
G04 #@! TO.N,/VPP*
X77470000Y-44196000D03*
G04 #@! TD*
D13*
G04 #@! TO.P,H1,1*
G04 #@! TO.N,-BATT*
X61595000Y-41275000D03*
D14*
X64220000Y-41275000D03*
X63451155Y-43131155D03*
X61595000Y-43900000D03*
X59738845Y-43131155D03*
X58970000Y-41275000D03*
X59738845Y-39418845D03*
X61595000Y-38650000D03*
X63451155Y-39418845D03*
G04 #@! TD*
D15*
G04 #@! TO.N,-BATT*
X62230000Y-27940000D03*
X83820000Y-36830000D03*
X69850000Y-36830000D03*
X76200000Y-41910000D03*
G04 #@! TO.N,/ICSPDAT*
X72390000Y-35560000D03*
X75207265Y-40664752D03*
G04 #@! TO.N,/ICSPCLK*
X73660000Y-35560000D03*
X76200000Y-39370000D03*
G04 #@! TD*
D16*
G04 #@! TO.N,/ICSPDAT*
X72390000Y-35560000D02*
X75207265Y-38377265D01*
X75207265Y-38377265D02*
X75207265Y-40664752D01*
G04 #@! TO.N,/ICSPCLK*
X73660000Y-35560000D02*
X76200000Y-38100000D01*
X76200000Y-38100000D02*
X76200000Y-39370000D01*
G04 #@! TD*
D17*
G04 #@! TO.N,-BATT*
G36*
X85863358Y-19831842D02*
X86612277Y-20036723D01*
X87313072Y-20370986D01*
X87943605Y-20824069D01*
X88483934Y-21381645D01*
X88916989Y-22026099D01*
X89229073Y-22737044D01*
X89411640Y-23497493D01*
X89460000Y-24156031D01*
X89460001Y-40608371D01*
X89388158Y-41413359D01*
X89183277Y-42162277D01*
X88849013Y-42863075D01*
X88395931Y-43493605D01*
X87838354Y-44033935D01*
X87193901Y-44466989D01*
X86482956Y-44779073D01*
X85722506Y-44961640D01*
X85063968Y-45010000D01*
X78261133Y-45010000D01*
X78432207Y-44838926D01*
X78605000Y-44421766D01*
X78605000Y-43970234D01*
X78432207Y-43553074D01*
X78112926Y-43233793D01*
X77695766Y-43061000D01*
X77244234Y-43061000D01*
X76827074Y-43233793D01*
X76507793Y-43553074D01*
X76335000Y-43970234D01*
X76335000Y-44421766D01*
X76507793Y-44838926D01*
X76678867Y-45010000D01*
X63389091Y-45010000D01*
X63905145Y-44801750D01*
X63969238Y-44758924D01*
X64372707Y-44232312D01*
X61595000Y-41454605D01*
X61580858Y-41468748D01*
X61401253Y-41289143D01*
X61415395Y-41275000D01*
X61774605Y-41275000D01*
X64552312Y-44052707D01*
X65078924Y-43649238D01*
X65618305Y-42380000D01*
X82372560Y-42380000D01*
X82372560Y-43980000D01*
X82421843Y-44227765D01*
X82562191Y-44437809D01*
X82772235Y-44578157D01*
X83020000Y-44627440D01*
X84620000Y-44627440D01*
X84867765Y-44578157D01*
X85077809Y-44437809D01*
X85218157Y-44227765D01*
X85267440Y-43980000D01*
X85267440Y-42380000D01*
X85218157Y-42132235D01*
X85077809Y-41922191D01*
X84867765Y-41781843D01*
X84620000Y-41732560D01*
X83020000Y-41732560D01*
X82772235Y-41781843D01*
X82562191Y-41922191D01*
X82421843Y-42132235D01*
X82372560Y-42380000D01*
X65618305Y-42380000D01*
X65722307Y-42135270D01*
X65737346Y-40490334D01*
X65121750Y-38964855D01*
X65078924Y-38900762D01*
X64552312Y-38497293D01*
X61774605Y-41275000D01*
X61415395Y-41275000D01*
X58637688Y-38497293D01*
X58111076Y-38900762D01*
X57860000Y-39491578D01*
X57860000Y-38317688D01*
X58817293Y-38317688D01*
X61595000Y-41095395D01*
X64372707Y-38317688D01*
X63969238Y-37791076D01*
X62455270Y-37147693D01*
X60810334Y-37132654D01*
X59284855Y-37748250D01*
X59220762Y-37791076D01*
X58817293Y-38317688D01*
X57860000Y-38317688D01*
X57860000Y-35354126D01*
X71355000Y-35354126D01*
X71355000Y-35765874D01*
X71512569Y-36146280D01*
X71803720Y-36437431D01*
X72184126Y-36595000D01*
X72385554Y-36595000D01*
X74472265Y-38681712D01*
X74472266Y-39936040D01*
X74329834Y-40078472D01*
X74172265Y-40458878D01*
X74172265Y-40870626D01*
X74329834Y-41251032D01*
X74620985Y-41542183D01*
X75001391Y-41699752D01*
X75413139Y-41699752D01*
X75793545Y-41542183D01*
X76084696Y-41251032D01*
X76242265Y-40870626D01*
X76242265Y-40458878D01*
X76219948Y-40405000D01*
X76405874Y-40405000D01*
X76786280Y-40247431D01*
X76845966Y-40187745D01*
X82991861Y-40187745D01*
X83065995Y-40433864D01*
X83603223Y-40626965D01*
X84173454Y-40599778D01*
X84574005Y-40433864D01*
X84648139Y-40187745D01*
X83820000Y-39359605D01*
X82991861Y-40187745D01*
X76845966Y-40187745D01*
X77077431Y-39956280D01*
X77235000Y-39575874D01*
X77235000Y-39164126D01*
X77141525Y-38938457D01*
X77244234Y-38981000D01*
X77695766Y-38981000D01*
X77738683Y-38963223D01*
X82373035Y-38963223D01*
X82400222Y-39533454D01*
X82566136Y-39934005D01*
X82812255Y-40008139D01*
X83640395Y-39180000D01*
X83999605Y-39180000D01*
X84827745Y-40008139D01*
X85073864Y-39934005D01*
X85266965Y-39396777D01*
X85239778Y-38826546D01*
X85073864Y-38425995D01*
X84827745Y-38351861D01*
X83999605Y-39180000D01*
X83640395Y-39180000D01*
X82812255Y-38351861D01*
X82566136Y-38425995D01*
X82373035Y-38963223D01*
X77738683Y-38963223D01*
X78112926Y-38808207D01*
X78432207Y-38488926D01*
X78563376Y-38172255D01*
X82991861Y-38172255D01*
X83820000Y-39000395D01*
X84648139Y-38172255D01*
X84574005Y-37926136D01*
X84036777Y-37733035D01*
X83466546Y-37760222D01*
X83065995Y-37926136D01*
X82991861Y-38172255D01*
X78563376Y-38172255D01*
X78605000Y-38071766D01*
X78605000Y-37620234D01*
X78432207Y-37203074D01*
X78112926Y-36883793D01*
X77695766Y-36711000D01*
X77244234Y-36711000D01*
X76827074Y-36883793D01*
X76507793Y-37203074D01*
X76459386Y-37319939D01*
X74695000Y-35555554D01*
X74695000Y-35354126D01*
X74537431Y-34973720D01*
X74246280Y-34682569D01*
X73865874Y-34525000D01*
X73454126Y-34525000D01*
X73073720Y-34682569D01*
X73025000Y-34731289D01*
X72976280Y-34682569D01*
X72595874Y-34525000D01*
X72184126Y-34525000D01*
X71803720Y-34682569D01*
X71512569Y-34973720D01*
X71355000Y-35354126D01*
X57860000Y-35354126D01*
X57860000Y-24161618D01*
X57931842Y-23356642D01*
X58136723Y-22607723D01*
X58470986Y-21906928D01*
X58924069Y-21276395D01*
X59481645Y-20736066D01*
X60126099Y-20303011D01*
X60837044Y-19990927D01*
X61597493Y-19808360D01*
X62256031Y-19760000D01*
X85058382Y-19760000D01*
X85863358Y-19831842D01*
X85863358Y-19831842D01*
G37*
X85863358Y-19831842D02*
X86612277Y-20036723D01*
X87313072Y-20370986D01*
X87943605Y-20824069D01*
X88483934Y-21381645D01*
X88916989Y-22026099D01*
X89229073Y-22737044D01*
X89411640Y-23497493D01*
X89460000Y-24156031D01*
X89460001Y-40608371D01*
X89388158Y-41413359D01*
X89183277Y-42162277D01*
X88849013Y-42863075D01*
X88395931Y-43493605D01*
X87838354Y-44033935D01*
X87193901Y-44466989D01*
X86482956Y-44779073D01*
X85722506Y-44961640D01*
X85063968Y-45010000D01*
X78261133Y-45010000D01*
X78432207Y-44838926D01*
X78605000Y-44421766D01*
X78605000Y-43970234D01*
X78432207Y-43553074D01*
X78112926Y-43233793D01*
X77695766Y-43061000D01*
X77244234Y-43061000D01*
X76827074Y-43233793D01*
X76507793Y-43553074D01*
X76335000Y-43970234D01*
X76335000Y-44421766D01*
X76507793Y-44838926D01*
X76678867Y-45010000D01*
X63389091Y-45010000D01*
X63905145Y-44801750D01*
X63969238Y-44758924D01*
X64372707Y-44232312D01*
X61595000Y-41454605D01*
X61580858Y-41468748D01*
X61401253Y-41289143D01*
X61415395Y-41275000D01*
X61774605Y-41275000D01*
X64552312Y-44052707D01*
X65078924Y-43649238D01*
X65618305Y-42380000D01*
X82372560Y-42380000D01*
X82372560Y-43980000D01*
X82421843Y-44227765D01*
X82562191Y-44437809D01*
X82772235Y-44578157D01*
X83020000Y-44627440D01*
X84620000Y-44627440D01*
X84867765Y-44578157D01*
X85077809Y-44437809D01*
X85218157Y-44227765D01*
X85267440Y-43980000D01*
X85267440Y-42380000D01*
X85218157Y-42132235D01*
X85077809Y-41922191D01*
X84867765Y-41781843D01*
X84620000Y-41732560D01*
X83020000Y-41732560D01*
X82772235Y-41781843D01*
X82562191Y-41922191D01*
X82421843Y-42132235D01*
X82372560Y-42380000D01*
X65618305Y-42380000D01*
X65722307Y-42135270D01*
X65737346Y-40490334D01*
X65121750Y-38964855D01*
X65078924Y-38900762D01*
X64552312Y-38497293D01*
X61774605Y-41275000D01*
X61415395Y-41275000D01*
X58637688Y-38497293D01*
X58111076Y-38900762D01*
X57860000Y-39491578D01*
X57860000Y-38317688D01*
X58817293Y-38317688D01*
X61595000Y-41095395D01*
X64372707Y-38317688D01*
X63969238Y-37791076D01*
X62455270Y-37147693D01*
X60810334Y-37132654D01*
X59284855Y-37748250D01*
X59220762Y-37791076D01*
X58817293Y-38317688D01*
X57860000Y-38317688D01*
X57860000Y-35354126D01*
X71355000Y-35354126D01*
X71355000Y-35765874D01*
X71512569Y-36146280D01*
X71803720Y-36437431D01*
X72184126Y-36595000D01*
X72385554Y-36595000D01*
X74472265Y-38681712D01*
X74472266Y-39936040D01*
X74329834Y-40078472D01*
X74172265Y-40458878D01*
X74172265Y-40870626D01*
X74329834Y-41251032D01*
X74620985Y-41542183D01*
X75001391Y-41699752D01*
X75413139Y-41699752D01*
X75793545Y-41542183D01*
X76084696Y-41251032D01*
X76242265Y-40870626D01*
X76242265Y-40458878D01*
X76219948Y-40405000D01*
X76405874Y-40405000D01*
X76786280Y-40247431D01*
X76845966Y-40187745D01*
X82991861Y-40187745D01*
X83065995Y-40433864D01*
X83603223Y-40626965D01*
X84173454Y-40599778D01*
X84574005Y-40433864D01*
X84648139Y-40187745D01*
X83820000Y-39359605D01*
X82991861Y-40187745D01*
X76845966Y-40187745D01*
X77077431Y-39956280D01*
X77235000Y-39575874D01*
X77235000Y-39164126D01*
X77141525Y-38938457D01*
X77244234Y-38981000D01*
X77695766Y-38981000D01*
X77738683Y-38963223D01*
X82373035Y-38963223D01*
X82400222Y-39533454D01*
X82566136Y-39934005D01*
X82812255Y-40008139D01*
X83640395Y-39180000D01*
X83999605Y-39180000D01*
X84827745Y-40008139D01*
X85073864Y-39934005D01*
X85266965Y-39396777D01*
X85239778Y-38826546D01*
X85073864Y-38425995D01*
X84827745Y-38351861D01*
X83999605Y-39180000D01*
X83640395Y-39180000D01*
X82812255Y-38351861D01*
X82566136Y-38425995D01*
X82373035Y-38963223D01*
X77738683Y-38963223D01*
X78112926Y-38808207D01*
X78432207Y-38488926D01*
X78563376Y-38172255D01*
X82991861Y-38172255D01*
X83820000Y-39000395D01*
X84648139Y-38172255D01*
X84574005Y-37926136D01*
X84036777Y-37733035D01*
X83466546Y-37760222D01*
X83065995Y-37926136D01*
X82991861Y-38172255D01*
X78563376Y-38172255D01*
X78605000Y-38071766D01*
X78605000Y-37620234D01*
X78432207Y-37203074D01*
X78112926Y-36883793D01*
X77695766Y-36711000D01*
X77244234Y-36711000D01*
X76827074Y-36883793D01*
X76507793Y-37203074D01*
X76459386Y-37319939D01*
X74695000Y-35555554D01*
X74695000Y-35354126D01*
X74537431Y-34973720D01*
X74246280Y-34682569D01*
X73865874Y-34525000D01*
X73454126Y-34525000D01*
X73073720Y-34682569D01*
X73025000Y-34731289D01*
X72976280Y-34682569D01*
X72595874Y-34525000D01*
X72184126Y-34525000D01*
X71803720Y-34682569D01*
X71512569Y-34973720D01*
X71355000Y-35354126D01*
X57860000Y-35354126D01*
X57860000Y-24161618D01*
X57931842Y-23356642D01*
X58136723Y-22607723D01*
X58470986Y-21906928D01*
X58924069Y-21276395D01*
X59481645Y-20736066D01*
X60126099Y-20303011D01*
X60837044Y-19990927D01*
X61597493Y-19808360D01*
X62256031Y-19760000D01*
X85058382Y-19760000D01*
X85863358Y-19831842D01*
G04 #@! TD*
M02*
