G04 #@! TF.GenerationSoftware,KiCad,Pcbnew,(5.0.2)-1*
G04 #@! TF.CreationDate,2019-05-05T23:25:35-07:00*
G04 #@! TF.ProjectId,pic_beeper,7069635f-6265-4657-9065-722e6b696361,rev?*
G04 #@! TF.SameCoordinates,Original*
G04 #@! TF.FileFunction,Legend,Top*
G04 #@! TF.FilePolarity,Positive*
%FSLAX46Y46*%
G04 Gerber Fmt 4.6, Leading zero omitted, Abs format (unit mm)*
G04 Created by KiCad (PCBNEW (5.0.2)-1) date 5/5/2019 11:25:35 PM*
%MOMM*%
%LPD*%
G01*
G04 APERTURE LIST*
%ADD10C,0.120000*%
%ADD11C,0.150000*%
G04 APERTURE END LIST*
D10*
G04 #@! TO.C,C1*
X16829391Y-37801612D02*
X16503833Y-37801612D01*
X16829391Y-36781612D02*
X16503833Y-36781612D01*
D11*
X16499945Y-39078754D02*
X16452326Y-39126373D01*
X16309469Y-39173992D01*
X16214231Y-39173992D01*
X16071373Y-39126373D01*
X15976135Y-39031135D01*
X15928516Y-38935897D01*
X15880897Y-38745421D01*
X15880897Y-38602564D01*
X15928516Y-38412088D01*
X15976135Y-38316850D01*
X16071373Y-38221612D01*
X16214231Y-38173992D01*
X16309469Y-38173992D01*
X16452326Y-38221612D01*
X16499945Y-38269231D01*
X17452326Y-39173992D02*
X16880897Y-39173992D01*
X17166612Y-39173992D02*
X17166612Y-38173992D01*
X17071373Y-38316850D01*
X16976135Y-38412088D01*
X16880897Y-38459707D01*
G04 #@! TO.C,H1*
X4318095Y-1032380D02*
X4318095Y-32380D01*
X4318095Y-508571D02*
X4889523Y-508571D01*
X4889523Y-1032380D02*
X4889523Y-32380D01*
X5889523Y-1032380D02*
X5318095Y-1032380D01*
X5603809Y-1032380D02*
X5603809Y-32380D01*
X5508571Y-175238D01*
X5413333Y-270476D01*
X5318095Y-318095D01*
G04 #@! TD*
M02*
