G04 #@! TF.GenerationSoftware,KiCad,Pcbnew,(5.0.2)-1*
G04 #@! TF.CreationDate,2019-05-05T02:29:21-07:00*
G04 #@! TF.ProjectId,pic_beeper,7069635f-6265-4657-9065-722e6b696361,rev?*
G04 #@! TF.SameCoordinates,Original*
G04 #@! TF.FileFunction,Copper,L1,Top*
G04 #@! TF.FilePolarity,Positive*
%FSLAX46Y46*%
G04 Gerber Fmt 4.6, Leading zero omitted, Abs format (unit mm)*
G04 Created by KiCad (PCBNEW (5.0.2)-1) date 5/5/2019 2:29:21 AM*
%MOMM*%
%LPD*%
G01*
G04 APERTURE LIST*
G04 #@! TA.AperFunction,ComponentPad*
%ADD10C,1.600000*%
G04 #@! TD*
G04 #@! TA.AperFunction,ComponentPad*
%ADD11R,1.600000X1.600000*%
G04 #@! TD*
G04 #@! TA.AperFunction,Conductor*
%ADD12C,0.100000*%
G04 #@! TD*
G04 #@! TA.AperFunction,SMDPad,CuDef*
%ADD13C,0.875000*%
G04 #@! TD*
G04 #@! TA.AperFunction,ComponentPad*
%ADD14C,1.000000*%
G04 #@! TD*
G04 #@! TA.AperFunction,SMDPad,CuDef*
%ADD15R,0.900000X0.900000*%
G04 #@! TD*
G04 #@! TA.AperFunction,SMDPad,CuDef*
%ADD16R,1.200000X1.100000*%
G04 #@! TD*
G04 #@! TA.AperFunction,SMDPad,CuDef*
%ADD17R,0.800000X1.100000*%
G04 #@! TD*
G04 #@! TA.AperFunction,SMDPad,CuDef*
%ADD18R,1.200000X0.900000*%
G04 #@! TD*
G04 #@! TA.AperFunction,SMDPad,CuDef*
%ADD19R,3.000000X4.200000*%
G04 #@! TD*
G04 #@! TA.AperFunction,SMDPad,CuDef*
%ADD20R,2.400000X1.550000*%
G04 #@! TD*
G04 #@! TA.AperFunction,SMDPad,CuDef*
%ADD21R,0.350000X0.650000*%
G04 #@! TD*
G04 #@! TA.AperFunction,ComponentPad*
%ADD22C,7.000000*%
G04 #@! TD*
G04 #@! TA.AperFunction,ComponentPad*
%ADD23C,0.800000*%
G04 #@! TD*
G04 #@! TA.AperFunction,ViaPad*
%ADD24C,0.800000*%
G04 #@! TD*
G04 #@! TA.AperFunction,Conductor*
%ADD25C,0.250000*%
G04 #@! TD*
G04 #@! TA.AperFunction,Conductor*
%ADD26C,0.200000*%
G04 #@! TD*
G04 APERTURE END LIST*
D10*
G04 #@! TO.P,BZ1,2*
G04 #@! TO.N,-BATT*
X83820000Y-39180000D03*
D11*
G04 #@! TO.P,BZ1,1*
G04 #@! TO.N,/BUZZER*
X83820000Y-43180000D03*
G04 #@! TD*
D12*
G04 #@! TO.N,-BATT*
G04 #@! TO.C,C1*
G36*
X67587691Y-37358553D02*
X67608926Y-37361703D01*
X67629750Y-37366919D01*
X67649962Y-37374151D01*
X67669368Y-37383330D01*
X67687781Y-37394366D01*
X67705024Y-37407154D01*
X67720930Y-37421570D01*
X67735346Y-37437476D01*
X67748134Y-37454719D01*
X67759170Y-37473132D01*
X67768349Y-37492538D01*
X67775581Y-37512750D01*
X67780797Y-37533574D01*
X67783947Y-37554809D01*
X67785000Y-37576250D01*
X67785000Y-38013750D01*
X67783947Y-38035191D01*
X67780797Y-38056426D01*
X67775581Y-38077250D01*
X67768349Y-38097462D01*
X67759170Y-38116868D01*
X67748134Y-38135281D01*
X67735346Y-38152524D01*
X67720930Y-38168430D01*
X67705024Y-38182846D01*
X67687781Y-38195634D01*
X67669368Y-38206670D01*
X67649962Y-38215849D01*
X67629750Y-38223081D01*
X67608926Y-38228297D01*
X67587691Y-38231447D01*
X67566250Y-38232500D01*
X67053750Y-38232500D01*
X67032309Y-38231447D01*
X67011074Y-38228297D01*
X66990250Y-38223081D01*
X66970038Y-38215849D01*
X66950632Y-38206670D01*
X66932219Y-38195634D01*
X66914976Y-38182846D01*
X66899070Y-38168430D01*
X66884654Y-38152524D01*
X66871866Y-38135281D01*
X66860830Y-38116868D01*
X66851651Y-38097462D01*
X66844419Y-38077250D01*
X66839203Y-38056426D01*
X66836053Y-38035191D01*
X66835000Y-38013750D01*
X66835000Y-37576250D01*
X66836053Y-37554809D01*
X66839203Y-37533574D01*
X66844419Y-37512750D01*
X66851651Y-37492538D01*
X66860830Y-37473132D01*
X66871866Y-37454719D01*
X66884654Y-37437476D01*
X66899070Y-37421570D01*
X66914976Y-37407154D01*
X66932219Y-37394366D01*
X66950632Y-37383330D01*
X66970038Y-37374151D01*
X66990250Y-37366919D01*
X67011074Y-37361703D01*
X67032309Y-37358553D01*
X67053750Y-37357500D01*
X67566250Y-37357500D01*
X67587691Y-37358553D01*
X67587691Y-37358553D01*
G37*
D13*
G04 #@! TD*
G04 #@! TO.P,C1,2*
G04 #@! TO.N,-BATT*
X67310000Y-37795000D03*
D12*
G04 #@! TO.N,+BATT*
G04 #@! TO.C,C1*
G36*
X67587691Y-38933553D02*
X67608926Y-38936703D01*
X67629750Y-38941919D01*
X67649962Y-38949151D01*
X67669368Y-38958330D01*
X67687781Y-38969366D01*
X67705024Y-38982154D01*
X67720930Y-38996570D01*
X67735346Y-39012476D01*
X67748134Y-39029719D01*
X67759170Y-39048132D01*
X67768349Y-39067538D01*
X67775581Y-39087750D01*
X67780797Y-39108574D01*
X67783947Y-39129809D01*
X67785000Y-39151250D01*
X67785000Y-39588750D01*
X67783947Y-39610191D01*
X67780797Y-39631426D01*
X67775581Y-39652250D01*
X67768349Y-39672462D01*
X67759170Y-39691868D01*
X67748134Y-39710281D01*
X67735346Y-39727524D01*
X67720930Y-39743430D01*
X67705024Y-39757846D01*
X67687781Y-39770634D01*
X67669368Y-39781670D01*
X67649962Y-39790849D01*
X67629750Y-39798081D01*
X67608926Y-39803297D01*
X67587691Y-39806447D01*
X67566250Y-39807500D01*
X67053750Y-39807500D01*
X67032309Y-39806447D01*
X67011074Y-39803297D01*
X66990250Y-39798081D01*
X66970038Y-39790849D01*
X66950632Y-39781670D01*
X66932219Y-39770634D01*
X66914976Y-39757846D01*
X66899070Y-39743430D01*
X66884654Y-39727524D01*
X66871866Y-39710281D01*
X66860830Y-39691868D01*
X66851651Y-39672462D01*
X66844419Y-39652250D01*
X66839203Y-39631426D01*
X66836053Y-39610191D01*
X66835000Y-39588750D01*
X66835000Y-39151250D01*
X66836053Y-39129809D01*
X66839203Y-39108574D01*
X66844419Y-39087750D01*
X66851651Y-39067538D01*
X66860830Y-39048132D01*
X66871866Y-39029719D01*
X66884654Y-39012476D01*
X66899070Y-38996570D01*
X66914976Y-38982154D01*
X66932219Y-38969366D01*
X66950632Y-38958330D01*
X66970038Y-38949151D01*
X66990250Y-38941919D01*
X67011074Y-38936703D01*
X67032309Y-38933553D01*
X67053750Y-38932500D01*
X67566250Y-38932500D01*
X67587691Y-38933553D01*
X67587691Y-38933553D01*
G37*
D13*
G04 #@! TD*
G04 #@! TO.P,C1,1*
G04 #@! TO.N,+BATT*
X67310000Y-39370000D03*
D14*
G04 #@! TO.P,J1,6*
G04 #@! TO.N,Net-(J1-Pad6)*
X77470000Y-37846000D03*
D15*
G04 #@! TO.P,J1,5*
G04 #@! TO.N,/ICSPCLK*
X77470000Y-39116000D03*
G04 #@! TO.P,J1,4*
G04 #@! TO.N,/ICSPDAT*
X77470000Y-40386000D03*
G04 #@! TO.P,J1,3*
G04 #@! TO.N,-BATT*
X77470000Y-41656000D03*
G04 #@! TO.P,J1,2*
G04 #@! TO.N,+BATT*
X77470000Y-42926000D03*
D14*
G04 #@! TO.P,J1,1*
G04 #@! TO.N,/VPP*
X77470000Y-44196000D03*
G04 #@! TD*
D16*
G04 #@! TO.P,SW1,2*
G04 #@! TO.N,Net-(BT1-Pad1)*
X71120000Y-42646000D03*
D17*
G04 #@! TO.P,SW1,1*
G04 #@! TO.N,+BATT*
X69420000Y-42646000D03*
G04 #@! TO.P,SW1,3*
G04 #@! TO.N,Net-(SW1-Pad3)*
X72820000Y-42646000D03*
D18*
G04 #@! TO.P,SW1,*
G04 #@! TO.N,*
X75270000Y-44196000D03*
X66970000Y-44196000D03*
G04 #@! TD*
D19*
G04 #@! TO.P,BT1,1*
G04 #@! TO.N,Net-(BT1-Pad1)*
X88160000Y-27940000D03*
G04 #@! TO.P,BT1,2*
G04 #@! TO.N,-BATT*
X59160000Y-27940000D03*
G04 #@! TD*
D20*
G04 #@! TO.P,U1,9*
G04 #@! TO.N,N/C*
X73060000Y-38487500D03*
D21*
G04 #@! TO.P,U1,8*
G04 #@! TO.N,-BATT*
X72085000Y-36937500D03*
G04 #@! TO.P,U1,7*
G04 #@! TO.N,/ICSPDAT*
X72735000Y-36937500D03*
G04 #@! TO.P,U1,6*
G04 #@! TO.N,/ICSPCLK*
X73385000Y-36937500D03*
G04 #@! TO.P,U1,5*
G04 #@! TO.N,/BUZZER*
X74035000Y-36937500D03*
G04 #@! TO.P,U1,4*
G04 #@! TO.N,Net-(U1-Pad4)*
X74035000Y-40037500D03*
G04 #@! TO.P,U1,3*
G04 #@! TO.N,/VPP*
X73385000Y-40037500D03*
G04 #@! TO.P,U1,2*
G04 #@! TO.N,Net-(U1-Pad2)*
X72735000Y-40037500D03*
G04 #@! TO.P,U1,1*
G04 #@! TO.N,+BATT*
X72085000Y-40037500D03*
G04 #@! TD*
D22*
G04 #@! TO.P,H1,1*
G04 #@! TO.N,-BATT*
X61595000Y-41275000D03*
D23*
X64220000Y-41275000D03*
X63451155Y-43131155D03*
X61595000Y-43900000D03*
X59738845Y-43131155D03*
X58970000Y-41275000D03*
X59738845Y-39418845D03*
X61595000Y-38650000D03*
X63451155Y-39418845D03*
G04 #@! TD*
D24*
G04 #@! TO.N,-BATT*
X62230000Y-27940000D03*
X83820000Y-36830000D03*
X69850000Y-36830000D03*
X76200000Y-41910000D03*
G04 #@! TO.N,/ICSPDAT*
X72390000Y-35560000D03*
X75207265Y-40664752D03*
G04 #@! TO.N,/ICSPCLK*
X73660000Y-35560000D03*
X76200000Y-39370000D03*
G04 #@! TD*
D25*
G04 #@! TO.N,Net-(BT1-Pad1)*
X88160000Y-30290000D02*
X88160000Y-27940000D01*
X88160000Y-41025002D02*
X88160000Y-30290000D01*
X84164001Y-45021001D02*
X88160000Y-41025002D01*
X73545001Y-45021001D02*
X84164001Y-45021001D01*
X71170000Y-42646000D02*
X73545001Y-45021001D01*
X71120000Y-42646000D02*
X71170000Y-42646000D01*
D26*
G04 #@! TO.N,-BATT*
X59160000Y-27940000D02*
X62230000Y-27940000D01*
X83820000Y-39180000D02*
X83820000Y-36830000D01*
X67310000Y-37795000D02*
X68885000Y-37795000D01*
X68885000Y-37795000D02*
X69850000Y-36830000D01*
X69957500Y-36937500D02*
X69850000Y-36830000D01*
X72085000Y-36937500D02*
X69957500Y-36937500D01*
X77470000Y-41656000D02*
X76454000Y-41656000D01*
X76454000Y-41656000D02*
X76200000Y-41910000D01*
D25*
G04 #@! TO.N,/BUZZER*
X78695011Y-38055011D02*
X83820000Y-43180000D01*
X78695011Y-37285955D02*
X78695011Y-38055011D01*
X78030045Y-36620989D02*
X78695011Y-37285955D01*
X76909955Y-36620989D02*
X78030045Y-36620989D01*
X76593444Y-36937500D02*
X76909955Y-36620989D01*
X74035000Y-36937500D02*
X76593444Y-36937500D01*
D26*
G04 #@! TO.N,+BATT*
X68820000Y-42646000D02*
X69420000Y-42646000D01*
X67310000Y-41136000D02*
X68820000Y-42646000D01*
X67310000Y-39370000D02*
X67310000Y-41136000D01*
X69420000Y-42327500D02*
X69420000Y-42646000D01*
X71710000Y-40037500D02*
X69420000Y-42327500D01*
X72085000Y-40037500D02*
X71710000Y-40037500D01*
X76820000Y-42926000D02*
X77470000Y-42926000D01*
X74583498Y-42926000D02*
X76820000Y-42926000D01*
X72085000Y-40427502D02*
X74583498Y-42926000D01*
X72085000Y-40037500D02*
X72085000Y-40427502D01*
G04 #@! TO.N,/VPP*
X74510001Y-39621997D02*
X74510001Y-40602501D01*
X74450001Y-40662501D02*
X73485001Y-40662501D01*
X78177106Y-44196000D02*
X78270001Y-44103105D01*
X77470000Y-44196000D02*
X78177106Y-44196000D01*
X73485001Y-40662501D02*
X73385000Y-40562500D01*
X73385000Y-40562500D02*
X73385000Y-40037500D01*
X74510001Y-40602501D02*
X74450001Y-40662501D01*
X77854001Y-37045999D02*
X77085999Y-37045999D01*
X78270001Y-37461999D02*
X77854001Y-37045999D01*
X78270001Y-44103105D02*
X78270001Y-37461999D01*
X77085999Y-37045999D02*
X74510001Y-39621997D01*
G04 #@! TO.N,/ICSPDAT*
X72735000Y-36937500D02*
X72735000Y-35905000D01*
X72735000Y-35905000D02*
X72390000Y-35560000D01*
X77191248Y-40664752D02*
X77470000Y-40386000D01*
X75207265Y-40664752D02*
X77191248Y-40664752D01*
G04 #@! TO.N,/ICSPCLK*
X73385000Y-36937500D02*
X73385000Y-35835000D01*
X73385000Y-35835000D02*
X73660000Y-35560000D01*
X77216000Y-39370000D02*
X77470000Y-39116000D01*
X76200000Y-39370000D02*
X77216000Y-39370000D01*
G04 #@! TD*
M02*
