G04 #@! TF.GenerationSoftware,KiCad,Pcbnew,(5.0.2)-1*
G04 #@! TF.CreationDate,2019-06-22T00:22:24-07:00*
G04 #@! TF.ProjectId,pic_beeper,7069635f-6265-4657-9065-722e6b696361,rev?*
G04 #@! TF.SameCoordinates,Original*
G04 #@! TF.FileFunction,Soldermask,Top*
G04 #@! TF.FilePolarity,Negative*
%FSLAX46Y46*%
G04 Gerber Fmt 4.6, Leading zero omitted, Abs format (unit mm)*
G04 Created by KiCad (PCBNEW (5.0.2)-1) date 6/22/2019 12:22:24 AM*
%MOMM*%
%LPD*%
G01*
G04 APERTURE LIST*
%ADD10C,0.100000*%
G04 APERTURE END LIST*
D10*
G36*
X32251000Y-19101000D02*
X31349000Y-19101000D01*
X31349000Y-18099000D01*
X32251000Y-18099000D01*
X32251000Y-19101000D01*
X32251000Y-19101000D01*
G37*
G36*
X24651000Y-19101000D02*
X23749000Y-19101000D01*
X23749000Y-18099000D01*
X24651000Y-18099000D01*
X24651000Y-19101000D01*
X24651000Y-19101000D01*
G37*
G36*
X15641000Y-19051000D02*
X13539000Y-19051000D01*
X13539000Y-16949000D01*
X15641000Y-16949000D01*
X15641000Y-19051000D01*
X15641000Y-19051000D01*
G37*
G36*
X13116000Y-19051000D02*
X11014000Y-19051000D01*
X11014000Y-16949000D01*
X13116000Y-16949000D01*
X13116000Y-19051000D01*
X13116000Y-19051000D01*
G37*
G36*
X6116000Y-19051000D02*
X4014000Y-19051000D01*
X4014000Y-16949000D01*
X6116000Y-16949000D01*
X6116000Y-19051000D01*
X6116000Y-19051000D01*
G37*
G36*
X22641000Y-19051000D02*
X20539000Y-19051000D01*
X20539000Y-16949000D01*
X22641000Y-16949000D01*
X22641000Y-19051000D01*
X22641000Y-19051000D01*
G37*
G36*
X2806000Y-18681000D02*
X1004000Y-18681000D01*
X1004000Y-16879000D01*
X2806000Y-16879000D01*
X2806000Y-18681000D01*
X2806000Y-18681000D01*
G37*
G36*
X29646136Y-17018253D02*
X29737312Y-17056019D01*
X29819372Y-17110850D01*
X29889150Y-17180628D01*
X29943981Y-17262688D01*
X29981747Y-17353864D01*
X30001000Y-17450656D01*
X30001000Y-17549344D01*
X29981747Y-17646136D01*
X29943981Y-17737312D01*
X29889150Y-17819372D01*
X29819372Y-17889150D01*
X29737312Y-17943981D01*
X29646136Y-17981747D01*
X29549344Y-18001000D01*
X29450656Y-18001000D01*
X29353864Y-17981747D01*
X29262688Y-17943981D01*
X29180628Y-17889150D01*
X29110850Y-17819372D01*
X29056019Y-17737312D01*
X29018253Y-17646136D01*
X28999000Y-17549344D01*
X28999000Y-17450656D01*
X29018253Y-17353864D01*
X29056019Y-17262688D01*
X29110850Y-17180628D01*
X29180628Y-17110850D01*
X29262688Y-17056019D01*
X29353864Y-17018253D01*
X29450656Y-16999000D01*
X29549344Y-16999000D01*
X29646136Y-17018253D01*
X29646136Y-17018253D01*
G37*
G36*
X26646136Y-17018253D02*
X26737312Y-17056019D01*
X26819372Y-17110850D01*
X26889150Y-17180628D01*
X26943981Y-17262688D01*
X26981747Y-17353864D01*
X27001000Y-17450656D01*
X27001000Y-17549344D01*
X26981747Y-17646136D01*
X26943981Y-17737312D01*
X26889150Y-17819372D01*
X26819372Y-17889150D01*
X26737312Y-17943981D01*
X26646136Y-17981747D01*
X26549344Y-18001000D01*
X26450656Y-18001000D01*
X26353864Y-17981747D01*
X26262688Y-17943981D01*
X26180628Y-17889150D01*
X26110850Y-17819372D01*
X26056019Y-17737312D01*
X26018253Y-17646136D01*
X25999000Y-17549344D01*
X25999000Y-17450656D01*
X26018253Y-17353864D01*
X26056019Y-17262688D01*
X26110850Y-17180628D01*
X26180628Y-17110850D01*
X26262688Y-17056019D01*
X26353864Y-17018253D01*
X26450656Y-16999000D01*
X26549344Y-16999000D01*
X26646136Y-17018253D01*
X26646136Y-17018253D01*
G37*
G36*
X24651000Y-16901000D02*
X23749000Y-16901000D01*
X23749000Y-15899000D01*
X24651000Y-15899000D01*
X24651000Y-16901000D01*
X24651000Y-16901000D01*
G37*
G36*
X32251000Y-16901000D02*
X31349000Y-16901000D01*
X31349000Y-15899000D01*
X32251000Y-15899000D01*
X32251000Y-16901000D01*
X32251000Y-16901000D01*
G37*
G36*
X2015443Y-14345519D02*
X2081627Y-14352037D01*
X2194853Y-14386384D01*
X2251467Y-14403557D01*
X2390087Y-14477652D01*
X2407991Y-14487222D01*
X2443729Y-14516552D01*
X2545186Y-14599814D01*
X2626585Y-14699000D01*
X2657778Y-14737009D01*
X2657779Y-14737011D01*
X2741443Y-14893533D01*
X2741443Y-14893534D01*
X2792963Y-15063373D01*
X2810359Y-15240000D01*
X2792963Y-15416627D01*
X2758616Y-15529853D01*
X2741443Y-15586467D01*
X2667348Y-15725087D01*
X2657778Y-15742991D01*
X2628448Y-15778729D01*
X2545186Y-15880186D01*
X2443729Y-15963448D01*
X2407991Y-15992778D01*
X2407989Y-15992779D01*
X2251467Y-16076443D01*
X2194853Y-16093616D01*
X2081627Y-16127963D01*
X2015443Y-16134481D01*
X1949260Y-16141000D01*
X1860740Y-16141000D01*
X1794557Y-16134481D01*
X1728373Y-16127963D01*
X1615147Y-16093616D01*
X1558533Y-16076443D01*
X1402011Y-15992779D01*
X1402009Y-15992778D01*
X1366271Y-15963448D01*
X1264814Y-15880186D01*
X1181552Y-15778729D01*
X1152222Y-15742991D01*
X1142652Y-15725087D01*
X1068557Y-15586467D01*
X1051384Y-15529853D01*
X1017037Y-15416627D01*
X999641Y-15240000D01*
X1017037Y-15063373D01*
X1068557Y-14893534D01*
X1068557Y-14893533D01*
X1152221Y-14737011D01*
X1152222Y-14737009D01*
X1183415Y-14699000D01*
X1264814Y-14599814D01*
X1366271Y-14516552D01*
X1402009Y-14487222D01*
X1419913Y-14477652D01*
X1558533Y-14403557D01*
X1615147Y-14386384D01*
X1728373Y-14352037D01*
X1794557Y-14345519D01*
X1860740Y-14339000D01*
X1949260Y-14339000D01*
X2015443Y-14345519D01*
X2015443Y-14345519D01*
G37*
G36*
X29251000Y-16051000D02*
X28249000Y-16051000D01*
X28249000Y-14699000D01*
X29251000Y-14699000D01*
X29251000Y-16051000D01*
X29251000Y-16051000D01*
G37*
G36*
X30751000Y-16051000D02*
X29749000Y-16051000D01*
X29749000Y-14699000D01*
X30751000Y-14699000D01*
X30751000Y-16051000D01*
X30751000Y-16051000D01*
G37*
G36*
X26251000Y-16051000D02*
X25249000Y-16051000D01*
X25249000Y-14699000D01*
X26251000Y-14699000D01*
X26251000Y-16051000D01*
X26251000Y-16051000D01*
G37*
G36*
X15641000Y-12051000D02*
X13539000Y-12051000D01*
X13539000Y-9949000D01*
X15641000Y-9949000D01*
X15641000Y-12051000D01*
X15641000Y-12051000D01*
G37*
G36*
X22641000Y-12051000D02*
X20539000Y-12051000D01*
X20539000Y-9949000D01*
X22641000Y-9949000D01*
X22641000Y-12051000D01*
X22641000Y-12051000D01*
G37*
G36*
X13116000Y-12051000D02*
X11014000Y-12051000D01*
X11014000Y-9949000D01*
X13116000Y-9949000D01*
X13116000Y-12051000D01*
X13116000Y-12051000D01*
G37*
G36*
X6116000Y-12051000D02*
X4014000Y-12051000D01*
X4014000Y-9949000D01*
X6116000Y-9949000D01*
X6116000Y-12051000D01*
X6116000Y-12051000D01*
G37*
G36*
X27647091Y-9638085D02*
X27681069Y-9648393D01*
X27712387Y-9665133D01*
X27739839Y-9687661D01*
X27762367Y-9715113D01*
X27779107Y-9746431D01*
X27789415Y-9780409D01*
X27793500Y-9821890D01*
X27793500Y-10498110D01*
X27789415Y-10539591D01*
X27779107Y-10573569D01*
X27762367Y-10604887D01*
X27739839Y-10632339D01*
X27712387Y-10654867D01*
X27681069Y-10671607D01*
X27647091Y-10681915D01*
X27605610Y-10686000D01*
X27004390Y-10686000D01*
X26962909Y-10681915D01*
X26928931Y-10671607D01*
X26897613Y-10654867D01*
X26870161Y-10632339D01*
X26847633Y-10604887D01*
X26830893Y-10573569D01*
X26820585Y-10539591D01*
X26816500Y-10498110D01*
X26816500Y-9821890D01*
X26820585Y-9780409D01*
X26830893Y-9746431D01*
X26847633Y-9715113D01*
X26870161Y-9687661D01*
X26897613Y-9665133D01*
X26928931Y-9648393D01*
X26962909Y-9638085D01*
X27004390Y-9634000D01*
X27605610Y-9634000D01*
X27647091Y-9638085D01*
X27647091Y-9638085D01*
G37*
G36*
X26072091Y-9638085D02*
X26106069Y-9648393D01*
X26137387Y-9665133D01*
X26164839Y-9687661D01*
X26187367Y-9715113D01*
X26204107Y-9746431D01*
X26214415Y-9780409D01*
X26218500Y-9821890D01*
X26218500Y-10498110D01*
X26214415Y-10539591D01*
X26204107Y-10573569D01*
X26187367Y-10604887D01*
X26164839Y-10632339D01*
X26137387Y-10654867D01*
X26106069Y-10671607D01*
X26072091Y-10681915D01*
X26030610Y-10686000D01*
X25429390Y-10686000D01*
X25387909Y-10681915D01*
X25353931Y-10671607D01*
X25322613Y-10654867D01*
X25295161Y-10632339D01*
X25272633Y-10604887D01*
X25255893Y-10573569D01*
X25245585Y-10539591D01*
X25241500Y-10498110D01*
X25241500Y-9821890D01*
X25245585Y-9780409D01*
X25255893Y-9746431D01*
X25272633Y-9715113D01*
X25295161Y-9687661D01*
X25322613Y-9665133D01*
X25353931Y-9648393D01*
X25387909Y-9638085D01*
X25429390Y-9634000D01*
X26030610Y-9634000D01*
X26072091Y-9638085D01*
X26072091Y-9638085D01*
G37*
G36*
X30859591Y-9675585D02*
X30893569Y-9685893D01*
X30924887Y-9702633D01*
X30952339Y-9725161D01*
X30974867Y-9752613D01*
X30991607Y-9783931D01*
X31001915Y-9817909D01*
X31006000Y-9859390D01*
X31006000Y-10460610D01*
X31001915Y-10502091D01*
X30991607Y-10536069D01*
X30974867Y-10567387D01*
X30952339Y-10594839D01*
X30924887Y-10617367D01*
X30893569Y-10634107D01*
X30859591Y-10644415D01*
X30818110Y-10648500D01*
X30141890Y-10648500D01*
X30100409Y-10644415D01*
X30066431Y-10634107D01*
X30035113Y-10617367D01*
X30007661Y-10594839D01*
X29985133Y-10567387D01*
X29968393Y-10536069D01*
X29958085Y-10502091D01*
X29954000Y-10460610D01*
X29954000Y-9859390D01*
X29958085Y-9817909D01*
X29968393Y-9783931D01*
X29985133Y-9752613D01*
X30007661Y-9725161D01*
X30035113Y-9702633D01*
X30066431Y-9685893D01*
X30100409Y-9675585D01*
X30141890Y-9671500D01*
X30818110Y-9671500D01*
X30859591Y-9675585D01*
X30859591Y-9675585D01*
G37*
G36*
X2551000Y-9551000D02*
X449000Y-9551000D01*
X449000Y-7449000D01*
X2551000Y-7449000D01*
X2551000Y-9551000D01*
X2551000Y-9551000D01*
G37*
G36*
X12051000Y-9551000D02*
X9949000Y-9551000D01*
X9949000Y-7449000D01*
X12051000Y-7449000D01*
X12051000Y-9551000D01*
X12051000Y-9551000D01*
G37*
G36*
X19051000Y-9551000D02*
X16949000Y-9551000D01*
X16949000Y-7449000D01*
X19051000Y-7449000D01*
X19051000Y-9551000D01*
X19051000Y-9551000D01*
G37*
G36*
X9551000Y-9551000D02*
X7449000Y-9551000D01*
X7449000Y-7449000D01*
X9551000Y-7449000D01*
X9551000Y-9551000D01*
X9551000Y-9551000D01*
G37*
G36*
X30859591Y-8100585D02*
X30893569Y-8110893D01*
X30924887Y-8127633D01*
X30952339Y-8150161D01*
X30974867Y-8177613D01*
X30991607Y-8208931D01*
X31001915Y-8242909D01*
X31006000Y-8284390D01*
X31006000Y-8885610D01*
X31001915Y-8927091D01*
X30991607Y-8961069D01*
X30974867Y-8992387D01*
X30952339Y-9019839D01*
X30924887Y-9042367D01*
X30893569Y-9059107D01*
X30859591Y-9069415D01*
X30818110Y-9073500D01*
X30141890Y-9073500D01*
X30100409Y-9069415D01*
X30066431Y-9059107D01*
X30035113Y-9042367D01*
X30007661Y-9019839D01*
X29985133Y-8992387D01*
X29968393Y-8961069D01*
X29958085Y-8927091D01*
X29954000Y-8885610D01*
X29954000Y-8284390D01*
X29958085Y-8242909D01*
X29968393Y-8208931D01*
X29985133Y-8177613D01*
X30007661Y-8150161D01*
X30035113Y-8127633D01*
X30066431Y-8110893D01*
X30100409Y-8100585D01*
X30141890Y-8096500D01*
X30818110Y-8096500D01*
X30859591Y-8100585D01*
X30859591Y-8100585D01*
G37*
G36*
X27236000Y-7006000D02*
X24834000Y-7006000D01*
X24834000Y-6254000D01*
X27236000Y-6254000D01*
X27236000Y-7006000D01*
X27236000Y-7006000D01*
G37*
G36*
X21969591Y-5535585D02*
X22003569Y-5545893D01*
X22034887Y-5562633D01*
X22062339Y-5585161D01*
X22084867Y-5612613D01*
X22101607Y-5643931D01*
X22111915Y-5677909D01*
X22116000Y-5719390D01*
X22116000Y-6320610D01*
X22111915Y-6362091D01*
X22101607Y-6396069D01*
X22084867Y-6427387D01*
X22062339Y-6454839D01*
X22034887Y-6477367D01*
X22003569Y-6494107D01*
X21969591Y-6504415D01*
X21928110Y-6508500D01*
X21251890Y-6508500D01*
X21210409Y-6504415D01*
X21176431Y-6494107D01*
X21145113Y-6477367D01*
X21117661Y-6454839D01*
X21095133Y-6427387D01*
X21078393Y-6396069D01*
X21068085Y-6362091D01*
X21064000Y-6320610D01*
X21064000Y-5719390D01*
X21068085Y-5677909D01*
X21078393Y-5643931D01*
X21095133Y-5612613D01*
X21117661Y-5585161D01*
X21145113Y-5562633D01*
X21176431Y-5545893D01*
X21210409Y-5535585D01*
X21251890Y-5531500D01*
X21928110Y-5531500D01*
X21969591Y-5535585D01*
X21969591Y-5535585D01*
G37*
G36*
X27286000Y-5906000D02*
X24784000Y-5906000D01*
X24784000Y-4254000D01*
X27286000Y-4254000D01*
X27286000Y-5906000D01*
X27286000Y-5906000D01*
G37*
G36*
X31225442Y-3550518D02*
X31291627Y-3557037D01*
X31404853Y-3591384D01*
X31461467Y-3608557D01*
X31600087Y-3682652D01*
X31617991Y-3692222D01*
X31653729Y-3721552D01*
X31755186Y-3804814D01*
X31838226Y-3906000D01*
X31867778Y-3942009D01*
X31867779Y-3942011D01*
X31951443Y-4098533D01*
X31951443Y-4098534D01*
X32002963Y-4268373D01*
X32020359Y-4445000D01*
X32002963Y-4621627D01*
X31982450Y-4689250D01*
X31951443Y-4791467D01*
X31892165Y-4902367D01*
X31867778Y-4947991D01*
X31838448Y-4983729D01*
X31755186Y-5085186D01*
X31653729Y-5168448D01*
X31617991Y-5197778D01*
X31617989Y-5197779D01*
X31461467Y-5281443D01*
X31404853Y-5298616D01*
X31291627Y-5332963D01*
X31225443Y-5339481D01*
X31159260Y-5346000D01*
X31070740Y-5346000D01*
X31004557Y-5339481D01*
X30938373Y-5332963D01*
X30825147Y-5298616D01*
X30768533Y-5281443D01*
X30612011Y-5197779D01*
X30612009Y-5197778D01*
X30576271Y-5168448D01*
X30474814Y-5085186D01*
X30391552Y-4983729D01*
X30362222Y-4947991D01*
X30337835Y-4902367D01*
X30278557Y-4791467D01*
X30247550Y-4689250D01*
X30227037Y-4621627D01*
X30209641Y-4445000D01*
X30227037Y-4268373D01*
X30278557Y-4098534D01*
X30278557Y-4098533D01*
X30362221Y-3942011D01*
X30362222Y-3942009D01*
X30391774Y-3906000D01*
X30474814Y-3804814D01*
X30576271Y-3721552D01*
X30612009Y-3692222D01*
X30629913Y-3682652D01*
X30768533Y-3608557D01*
X30825147Y-3591384D01*
X30938373Y-3557037D01*
X31004558Y-3550518D01*
X31070740Y-3544000D01*
X31159260Y-3544000D01*
X31225442Y-3550518D01*
X31225442Y-3550518D01*
G37*
G36*
X21969591Y-3960585D02*
X22003569Y-3970893D01*
X22034887Y-3987633D01*
X22062339Y-4010161D01*
X22084867Y-4037613D01*
X22101607Y-4068931D01*
X22111915Y-4102909D01*
X22116000Y-4144390D01*
X22116000Y-4745610D01*
X22111915Y-4787091D01*
X22101607Y-4821069D01*
X22084867Y-4852387D01*
X22062339Y-4879839D01*
X22034887Y-4902367D01*
X22003569Y-4919107D01*
X21969591Y-4929415D01*
X21928110Y-4933500D01*
X21251890Y-4933500D01*
X21210409Y-4929415D01*
X21176431Y-4919107D01*
X21145113Y-4902367D01*
X21117661Y-4879839D01*
X21095133Y-4852387D01*
X21078393Y-4821069D01*
X21068085Y-4787091D01*
X21064000Y-4745610D01*
X21064000Y-4144390D01*
X21068085Y-4102909D01*
X21078393Y-4068931D01*
X21095133Y-4037613D01*
X21117661Y-4010161D01*
X21145113Y-3987633D01*
X21176431Y-3970893D01*
X21210409Y-3960585D01*
X21251890Y-3956500D01*
X21928110Y-3956500D01*
X21969591Y-3960585D01*
X21969591Y-3960585D01*
G37*
G36*
X27236000Y-3906000D02*
X24834000Y-3906000D01*
X24834000Y-3154000D01*
X27236000Y-3154000D01*
X27236000Y-3906000D01*
X27236000Y-3906000D01*
G37*
G36*
X32016000Y-2806000D02*
X30214000Y-2806000D01*
X30214000Y-1004000D01*
X32016000Y-1004000D01*
X32016000Y-2806000D01*
X32016000Y-2806000D01*
G37*
G36*
X19051000Y-2551000D02*
X16949000Y-2551000D01*
X16949000Y-449000D01*
X19051000Y-449000D01*
X19051000Y-2551000D01*
X19051000Y-2551000D01*
G37*
G36*
X9551000Y-2551000D02*
X7449000Y-2551000D01*
X7449000Y-449000D01*
X9551000Y-449000D01*
X9551000Y-2551000D01*
X9551000Y-2551000D01*
G37*
G36*
X12051000Y-2551000D02*
X9949000Y-2551000D01*
X9949000Y-449000D01*
X12051000Y-449000D01*
X12051000Y-2551000D01*
X12051000Y-2551000D01*
G37*
G36*
X2551000Y-2551000D02*
X449000Y-2551000D01*
X449000Y-449000D01*
X2551000Y-449000D01*
X2551000Y-2551000D01*
X2551000Y-2551000D01*
G37*
G36*
X26830721Y-740174D02*
X26930995Y-781709D01*
X27021245Y-842012D01*
X27097988Y-918755D01*
X27158291Y-1009005D01*
X27199826Y-1109279D01*
X27221000Y-1215730D01*
X27221000Y-1324270D01*
X27199826Y-1430721D01*
X27158291Y-1530995D01*
X27097988Y-1621245D01*
X27021245Y-1697988D01*
X26930995Y-1758291D01*
X26830721Y-1799826D01*
X26724270Y-1821000D01*
X26615730Y-1821000D01*
X26509279Y-1799826D01*
X26409005Y-1758291D01*
X26318755Y-1697988D01*
X26242012Y-1621245D01*
X26181709Y-1530996D01*
X26141485Y-1433885D01*
X26129934Y-1412274D01*
X26114389Y-1393332D01*
X26095447Y-1377787D01*
X26073836Y-1366235D01*
X26050387Y-1359122D01*
X26026000Y-1356720D01*
X26001614Y-1359122D01*
X25978165Y-1366235D01*
X25956554Y-1377786D01*
X25937612Y-1393331D01*
X25922067Y-1412273D01*
X25910515Y-1433884D01*
X25903402Y-1457333D01*
X25901000Y-1481720D01*
X25901000Y-1771000D01*
X24899000Y-1771000D01*
X24899000Y-769000D01*
X25901000Y-769000D01*
X25901000Y-1058280D01*
X25903402Y-1082666D01*
X25910515Y-1106115D01*
X25922066Y-1127726D01*
X25937612Y-1146668D01*
X25956554Y-1162214D01*
X25978165Y-1173765D01*
X26001614Y-1180878D01*
X26026000Y-1183280D01*
X26050386Y-1180878D01*
X26073835Y-1173765D01*
X26095446Y-1162214D01*
X26114388Y-1146668D01*
X26129934Y-1127726D01*
X26141485Y-1106115D01*
X26181709Y-1009004D01*
X26242012Y-918755D01*
X26318755Y-842012D01*
X26409005Y-781709D01*
X26509279Y-740174D01*
X26615730Y-719000D01*
X26724270Y-719000D01*
X26830721Y-740174D01*
X26830721Y-740174D01*
G37*
G36*
X20480721Y-740174D02*
X20580995Y-781709D01*
X20671245Y-842012D01*
X20747988Y-918755D01*
X20808291Y-1009004D01*
X20848515Y-1106115D01*
X20860066Y-1127726D01*
X20875611Y-1146668D01*
X20894553Y-1162213D01*
X20916164Y-1173765D01*
X20939613Y-1180878D01*
X20964000Y-1183280D01*
X20988386Y-1180878D01*
X21011835Y-1173765D01*
X21033446Y-1162214D01*
X21052388Y-1146669D01*
X21067933Y-1127727D01*
X21079485Y-1106116D01*
X21086598Y-1082667D01*
X21089000Y-1058280D01*
X21089000Y-769000D01*
X22091000Y-769000D01*
X22091000Y-1771000D01*
X21089000Y-1771000D01*
X21089000Y-1481720D01*
X21086598Y-1457334D01*
X21079485Y-1433885D01*
X21067934Y-1412274D01*
X21052388Y-1393332D01*
X21033446Y-1377786D01*
X21011835Y-1366235D01*
X20988386Y-1359122D01*
X20964000Y-1356720D01*
X20939614Y-1359122D01*
X20916165Y-1366235D01*
X20894554Y-1377786D01*
X20875612Y-1393332D01*
X20860066Y-1412274D01*
X20848515Y-1433885D01*
X20808291Y-1530996D01*
X20747988Y-1621245D01*
X20671245Y-1697988D01*
X20580995Y-1758291D01*
X20480721Y-1799826D01*
X20374270Y-1821000D01*
X20265730Y-1821000D01*
X20159279Y-1799826D01*
X20059005Y-1758291D01*
X19968755Y-1697988D01*
X19892012Y-1621245D01*
X19831709Y-1530995D01*
X19790174Y-1430721D01*
X19769000Y-1324270D01*
X19769000Y-1215730D01*
X19790174Y-1109279D01*
X19831709Y-1009005D01*
X19892012Y-918755D01*
X19968755Y-842012D01*
X20059005Y-781709D01*
X20159279Y-740174D01*
X20265730Y-719000D01*
X20374270Y-719000D01*
X20480721Y-740174D01*
X20480721Y-740174D01*
G37*
G36*
X23361000Y-1771000D02*
X22359000Y-1771000D01*
X22359000Y-769000D01*
X23361000Y-769000D01*
X23361000Y-1771000D01*
X23361000Y-1771000D01*
G37*
G36*
X24631000Y-1771000D02*
X23629000Y-1771000D01*
X23629000Y-769000D01*
X24631000Y-769000D01*
X24631000Y-1771000D01*
X24631000Y-1771000D01*
G37*
M02*
