M48
;DRILL file {KiCad (5.0.2)-1} date 5/5/2019 2:29:24 AM
;FORMAT={-:-/ absolute / metric / decimal}
FMAT,2
METRIC,TZ
T1C0.400
T2C0.500
T3C0.900
T4C3.500
%
G90
G05
T1
X62.23Y-27.94
X69.85Y-36.83
X72.39Y-35.56
X73.66Y-35.56
X75.207Y-40.665
X76.2Y-39.37
X76.2Y-41.91
X83.82Y-36.83
X77.47Y-37.846
X77.47Y-44.196
T2
X58.97Y-41.275
X59.739Y-39.419
X59.739Y-43.131
X61.595Y-38.65
X61.595Y-43.9
X63.451Y-39.419
X63.451Y-43.131
X64.22Y-41.275
T3
X83.82Y-39.18
X83.82Y-43.18
T4
X61.595Y-41.275
T0
M30
