M48
;DRILL file {KiCad (5.0.2)-1} date 5/5/2019 11:25:37 PM
;FORMAT={-:-/ absolute / metric / decimal}
FMAT,2
METRIC,TZ
T1C0.762
T2C0.800
T3C1.000
T4C3.500
%
G90
G05
T1
X4.605Y-13.335
X24.605Y-13.335
X5.08Y-36.83
X7.62Y-36.83
X10.16Y-36.83
T2
X16.51Y-27.305
X16.51Y-29.845
X16.51Y-32.385
X16.51Y-34.925
X24.13Y-27.305
X24.13Y-29.845
X24.13Y-32.385
X24.13Y-34.925
T3
X6.35Y-22.88
X6.35Y-30.48
X29.21Y-24.765
X29.21Y-27.305
X29.21Y-29.845
X29.21Y-32.385
X29.21Y-34.925
X29.21Y-37.465
T4
X5.08Y-5.08
T0
M30
