M48
; DRILL file {KiCad (5.1.4-0)} date Tuesday, September 03, 2019 at 05:00:00 PM
; FORMAT={-:-/ absolute / inch / decimal}
; #@! TF.CreationDate,2019-09-03T17:00:00-05:00
; #@! TF.GenerationSoftware,Kicad,Pcbnew,(5.1.4-0)
; #@! TF.FileFunction,Plated,1,2,PTH
FMAT,2
INCH
T1C0.0118
T2C0.0157
T3C0.0295
T4C0.0394
%
G90
G05
T1
X0.83Y-0.62
X1.0376Y-0.7176
X1.04Y-0.77
X1.066Y-0.564
X1.08Y-0.71
X1.1252Y-0.8136
X1.1315Y-0.73
X1.17Y-0.73
X1.19Y-0.77
X1.22Y-0.69
X1.28Y-0.7
X1.31Y-0.81
X1.3301Y-0.53
X1.4Y-0.73
X1.59Y-0.53
X1.82Y-0.61
T2
X0.625Y-0.7
X1.125Y-0.9
X1.28Y-0.54
X1.35Y-0.95
X1.55Y-0.85
X1.08Y-0.48
X1.33Y-0.48
T3
X1.5713Y-0.7
X1.65Y-0.7
T4
X1.825Y-0.725
X1.825Y-0.825
X1.825Y-0.925
X0.57Y-0.52
X0.57Y-0.62
X0.57Y-0.72
T0
M30
