G04 #@! TF.GenerationSoftware,KiCad,Pcbnew,(5.1.4-0)*
G04 #@! TF.CreationDate,2019-09-03T16:59:57-05:00*
G04 #@! TF.ProjectId,pic_beeper,7069635f-6265-4657-9065-722e6b696361,rev?*
G04 #@! TF.SameCoordinates,Original*
G04 #@! TF.FileFunction,Legend,Top*
G04 #@! TF.FilePolarity,Positive*
%FSLAX46Y46*%
G04 Gerber Fmt 4.6, Leading zero omitted, Abs format (unit mm)*
G04 Created by KiCad (PCBNEW (5.1.4-0)) date 2019-09-03 16:59:57*
%MOMM*%
%LPD*%
G04 APERTURE LIST*
%ADD10C,0.120000*%
%ADD11C,0.150000*%
G04 APERTURE END LIST*
D10*
X23285001Y-11855001D02*
X19285001Y-11855001D01*
X25635001Y-18205001D02*
X25635001Y-14205001D01*
X19285001Y-20555001D02*
X23285001Y-20555001D01*
X16935001Y-14205001D02*
X16935001Y-18205001D01*
X28259721Y-19175000D02*
X28585279Y-19175000D01*
X28259721Y-20195000D02*
X28585279Y-20195000D01*
X17015000Y-21210000D02*
X17015000Y-24510000D01*
X17015000Y-24510000D02*
X22415000Y-24510000D01*
X17015000Y-21210000D02*
X22415000Y-21210000D01*
X29197500Y-12800000D02*
X31482500Y-12800000D01*
X31482500Y-12800000D02*
X31482500Y-11330000D01*
X31482500Y-11330000D02*
X29197500Y-11330000D01*
X42770000Y-17640000D02*
X43050000Y-17640000D01*
X43050000Y-17640000D02*
X43050000Y-19240000D01*
X43050000Y-19240000D02*
X43970000Y-19240000D01*
X43970000Y-19240000D02*
X43970000Y-11420000D01*
X43970000Y-11420000D02*
X37850000Y-11420000D01*
X37850000Y-11420000D02*
X37850000Y-19240000D01*
X37850000Y-19240000D02*
X38770000Y-19240000D01*
X38770000Y-19240000D02*
X38770000Y-17640000D01*
X38770000Y-17640000D02*
X39050000Y-17640000D01*
X41410000Y-11420000D02*
X41410000Y-15780000D01*
X41410000Y-15780000D02*
X40410000Y-15780000D01*
X40410000Y-15780000D02*
X40410000Y-11420000D01*
X43970000Y-17640000D02*
X43050000Y-17640000D01*
X37850000Y-17640000D02*
X38770000Y-17640000D01*
X43210000Y-15280000D02*
X43210000Y-13680000D01*
X43210000Y-13680000D02*
X42210000Y-13680000D01*
X42210000Y-13680000D02*
X42210000Y-15280000D01*
X42210000Y-15280000D02*
X43210000Y-15280000D01*
X38610000Y-15280000D02*
X38610000Y-13680000D01*
X38610000Y-13680000D02*
X39610000Y-13680000D01*
X39610000Y-13680000D02*
X39610000Y-15280000D01*
X39610000Y-15280000D02*
X38610000Y-15280000D01*
X42210000Y-13680000D02*
X42210000Y-11420000D01*
X42710000Y-13680000D02*
X42710000Y-11420000D01*
X42770000Y-17640000D02*
X42770000Y-18855000D01*
X13148000Y-19618000D02*
X15808000Y-19618000D01*
X13148000Y-14478000D02*
X13148000Y-19618000D01*
X15808000Y-14478000D02*
X15808000Y-19618000D01*
X13148000Y-14478000D02*
X15808000Y-14478000D01*
X13148000Y-13208000D02*
X13148000Y-11878000D01*
X13148000Y-11878000D02*
X14478000Y-11878000D01*
X30604000Y-24876000D02*
X30604000Y-22876000D01*
X33404000Y-24876000D02*
X30604000Y-24876000D01*
X33404000Y-22876000D02*
X33404000Y-24876000D01*
X30604000Y-22876000D02*
X33404000Y-22876000D01*
X27615000Y-22100000D02*
X26685000Y-22100000D01*
X24455000Y-22100000D02*
X25385000Y-22100000D01*
X24455000Y-22100000D02*
X24455000Y-24260000D01*
X27615000Y-22100000D02*
X27615000Y-23560000D01*
X32895000Y-15712221D02*
X32895000Y-16037779D01*
X31875000Y-15712221D02*
X31875000Y-16037779D01*
X35050000Y-13324721D02*
X35050000Y-13650279D01*
X36070000Y-13324721D02*
X36070000Y-13650279D01*
X36070000Y-16499721D02*
X36070000Y-16825279D01*
X35050000Y-16499721D02*
X35050000Y-16825279D01*
D11*
X42799000Y-25146000D02*
X42799000Y-22606000D01*
X42799000Y-22606000D02*
X36449000Y-22606000D01*
X36449000Y-22606000D02*
X36449000Y-25146000D01*
X36449000Y-25146000D02*
X42799000Y-25146000D01*
D10*
X30620000Y-14315000D02*
X30620000Y-14055000D01*
X27650000Y-17435000D02*
X27800000Y-17435000D01*
X27650000Y-14315000D02*
X27650000Y-17435000D01*
X30770000Y-14315000D02*
X30770000Y-17435000D01*
X27650000Y-14315000D02*
X27800000Y-14315000D01*
X30770000Y-14315000D02*
X30620000Y-14315000D01*
X30770000Y-17435000D02*
X30620000Y-17435000D01*
D11*
X20883571Y-16885953D02*
X20931190Y-16743096D01*
X20978809Y-16695477D01*
X21074047Y-16647858D01*
X21216904Y-16647858D01*
X21312142Y-16695477D01*
X21359761Y-16743096D01*
X21407380Y-16838334D01*
X21407380Y-17219286D01*
X20407380Y-17219286D01*
X20407380Y-16885953D01*
X20455000Y-16790715D01*
X20502619Y-16743096D01*
X20597857Y-16695477D01*
X20693095Y-16695477D01*
X20788333Y-16743096D01*
X20835952Y-16790715D01*
X20883571Y-16885953D01*
X20883571Y-17219286D01*
X20407380Y-16314524D02*
X20407380Y-15647858D01*
X21407380Y-16314524D01*
X21407380Y-15647858D01*
X21407380Y-14743096D02*
X21407380Y-15314524D01*
X21407380Y-15028810D02*
X20407380Y-15028810D01*
X20550238Y-15124048D01*
X20645476Y-15219286D01*
X20693095Y-15314524D01*
X17654048Y-17776429D02*
X18415953Y-17776429D01*
X18035001Y-18157381D02*
X18035001Y-17395477D01*
X30948333Y-20042142D02*
X30900714Y-20089761D01*
X30757857Y-20137380D01*
X30662619Y-20137380D01*
X30519761Y-20089761D01*
X30424523Y-19994523D01*
X30376904Y-19899285D01*
X30329285Y-19708809D01*
X30329285Y-19565952D01*
X30376904Y-19375476D01*
X30424523Y-19280238D01*
X30519761Y-19185000D01*
X30662619Y-19137380D01*
X30757857Y-19137380D01*
X30900714Y-19185000D01*
X30948333Y-19232619D01*
X31900714Y-20137380D02*
X31329285Y-20137380D01*
X31615000Y-20137380D02*
X31615000Y-19137380D01*
X31519761Y-19280238D01*
X31424523Y-19375476D01*
X31329285Y-19423095D01*
X15136904Y-23312380D02*
X15136904Y-22312380D01*
X15375000Y-22312380D01*
X15517857Y-22360000D01*
X15613095Y-22455238D01*
X15660714Y-22550476D01*
X15708333Y-22740952D01*
X15708333Y-22883809D01*
X15660714Y-23074285D01*
X15613095Y-23169523D01*
X15517857Y-23264761D01*
X15375000Y-23312380D01*
X15136904Y-23312380D01*
X16660714Y-23312380D02*
X16089285Y-23312380D01*
X16375000Y-23312380D02*
X16375000Y-22312380D01*
X16279761Y-22455238D01*
X16184523Y-22550476D01*
X16089285Y-22598095D01*
X32837380Y-12803095D02*
X31837380Y-12803095D01*
X31837380Y-12565000D01*
X31885000Y-12422142D01*
X31980238Y-12326904D01*
X32075476Y-12279285D01*
X32265952Y-12231666D01*
X32408809Y-12231666D01*
X32599285Y-12279285D01*
X32694523Y-12326904D01*
X32789761Y-12422142D01*
X32837380Y-12565000D01*
X32837380Y-12803095D01*
X31932619Y-11850714D02*
X31885000Y-11803095D01*
X31837380Y-11707857D01*
X31837380Y-11469761D01*
X31885000Y-11374523D01*
X31932619Y-11326904D01*
X32027857Y-11279285D01*
X32123095Y-11279285D01*
X32265952Y-11326904D01*
X32837380Y-11898333D01*
X32837380Y-11279285D01*
X45132666Y-11898380D02*
X45132666Y-12612666D01*
X45085047Y-12755523D01*
X44989809Y-12850761D01*
X44846952Y-12898380D01*
X44751714Y-12898380D01*
X45561238Y-11993619D02*
X45608857Y-11946000D01*
X45704095Y-11898380D01*
X45942190Y-11898380D01*
X46037428Y-11946000D01*
X46085047Y-11993619D01*
X46132666Y-12088857D01*
X46132666Y-12184095D01*
X46085047Y-12326952D01*
X45513619Y-12898380D01*
X46132666Y-12898380D01*
X14271666Y-20407380D02*
X14271666Y-21121666D01*
X14224047Y-21264523D01*
X14128809Y-21359761D01*
X13985952Y-21407380D01*
X13890714Y-21407380D01*
X14652619Y-20407380D02*
X15271666Y-20407380D01*
X14938333Y-20788333D01*
X15081190Y-20788333D01*
X15176428Y-20835952D01*
X15224047Y-20883571D01*
X15271666Y-20978809D01*
X15271666Y-21216904D01*
X15224047Y-21312142D01*
X15176428Y-21359761D01*
X15081190Y-21407380D01*
X14795476Y-21407380D01*
X14700238Y-21359761D01*
X14652619Y-21312142D01*
X30916666Y-21296380D02*
X30916666Y-22010666D01*
X30869047Y-22153523D01*
X30773809Y-22248761D01*
X30630952Y-22296380D01*
X30535714Y-22296380D01*
X31392857Y-22296380D02*
X31392857Y-21296380D01*
X31773809Y-21296380D01*
X31869047Y-21344000D01*
X31916666Y-21391619D01*
X31964285Y-21486857D01*
X31964285Y-21629714D01*
X31916666Y-21724952D01*
X31869047Y-21772571D01*
X31773809Y-21820190D01*
X31392857Y-21820190D01*
X32916666Y-22296380D02*
X32345238Y-22296380D01*
X32630952Y-22296380D02*
X32630952Y-21296380D01*
X32535714Y-21439238D01*
X32440476Y-21534476D01*
X32345238Y-21582095D01*
X28860761Y-23407619D02*
X28765523Y-23360000D01*
X28670285Y-23264761D01*
X28527428Y-23121904D01*
X28432190Y-23074285D01*
X28336952Y-23074285D01*
X28384571Y-23312380D02*
X28289333Y-23264761D01*
X28194095Y-23169523D01*
X28146476Y-22979047D01*
X28146476Y-22645714D01*
X28194095Y-22455238D01*
X28289333Y-22360000D01*
X28384571Y-22312380D01*
X28575047Y-22312380D01*
X28670285Y-22360000D01*
X28765523Y-22455238D01*
X28813142Y-22645714D01*
X28813142Y-22979047D01*
X28765523Y-23169523D01*
X28670285Y-23264761D01*
X28575047Y-23312380D01*
X28384571Y-23312380D01*
X29765523Y-23312380D02*
X29194095Y-23312380D01*
X29479809Y-23312380D02*
X29479809Y-22312380D01*
X29384571Y-22455238D01*
X29289333Y-22550476D01*
X29194095Y-22598095D01*
X34234380Y-16041666D02*
X33758190Y-16375000D01*
X34234380Y-16613095D02*
X33234380Y-16613095D01*
X33234380Y-16232142D01*
X33282000Y-16136904D01*
X33329619Y-16089285D01*
X33424857Y-16041666D01*
X33567714Y-16041666D01*
X33662952Y-16089285D01*
X33710571Y-16136904D01*
X33758190Y-16232142D01*
X33758190Y-16613095D01*
X34234380Y-15089285D02*
X34234380Y-15660714D01*
X34234380Y-15375000D02*
X33234380Y-15375000D01*
X33377238Y-15470238D01*
X33472476Y-15565476D01*
X33520095Y-15660714D01*
X37442380Y-13654166D02*
X36966190Y-13987500D01*
X37442380Y-14225595D02*
X36442380Y-14225595D01*
X36442380Y-13844642D01*
X36490000Y-13749404D01*
X36537619Y-13701785D01*
X36632857Y-13654166D01*
X36775714Y-13654166D01*
X36870952Y-13701785D01*
X36918571Y-13749404D01*
X36966190Y-13844642D01*
X36966190Y-14225595D01*
X36537619Y-13273214D02*
X36490000Y-13225595D01*
X36442380Y-13130357D01*
X36442380Y-12892261D01*
X36490000Y-12797023D01*
X36537619Y-12749404D01*
X36632857Y-12701785D01*
X36728095Y-12701785D01*
X36870952Y-12749404D01*
X37442380Y-13320833D01*
X37442380Y-12701785D01*
X37442380Y-16829166D02*
X36966190Y-17162500D01*
X37442380Y-17400595D02*
X36442380Y-17400595D01*
X36442380Y-17019642D01*
X36490000Y-16924404D01*
X36537619Y-16876785D01*
X36632857Y-16829166D01*
X36775714Y-16829166D01*
X36870952Y-16876785D01*
X36918571Y-16924404D01*
X36966190Y-17019642D01*
X36966190Y-17400595D01*
X36442380Y-16495833D02*
X36442380Y-15876785D01*
X36823333Y-16210119D01*
X36823333Y-16067261D01*
X36870952Y-15972023D01*
X36918571Y-15924404D01*
X37013809Y-15876785D01*
X37251904Y-15876785D01*
X37347142Y-15924404D01*
X37394761Y-15972023D01*
X37442380Y-16067261D01*
X37442380Y-16352976D01*
X37394761Y-16448214D01*
X37347142Y-16495833D01*
X33972666Y-21740761D02*
X34115523Y-21788380D01*
X34353619Y-21788380D01*
X34448857Y-21740761D01*
X34496476Y-21693142D01*
X34544095Y-21597904D01*
X34544095Y-21502666D01*
X34496476Y-21407428D01*
X34448857Y-21359809D01*
X34353619Y-21312190D01*
X34163142Y-21264571D01*
X34067904Y-21216952D01*
X34020285Y-21169333D01*
X33972666Y-21074095D01*
X33972666Y-20978857D01*
X34020285Y-20883619D01*
X34067904Y-20836000D01*
X34163142Y-20788380D01*
X34401238Y-20788380D01*
X34544095Y-20836000D01*
X34877428Y-20788380D02*
X35115523Y-21788380D01*
X35306000Y-21074095D01*
X35496476Y-21788380D01*
X35734571Y-20788380D01*
X36639333Y-21788380D02*
X36067904Y-21788380D01*
X36353619Y-21788380D02*
X36353619Y-20788380D01*
X36258380Y-20931238D01*
X36163142Y-21026476D01*
X36067904Y-21074095D01*
X26376380Y-16636904D02*
X27185904Y-16636904D01*
X27281142Y-16589285D01*
X27328761Y-16541666D01*
X27376380Y-16446428D01*
X27376380Y-16255952D01*
X27328761Y-16160714D01*
X27281142Y-16113095D01*
X27185904Y-16065476D01*
X26376380Y-16065476D01*
X27376380Y-15065476D02*
X27376380Y-15636904D01*
X27376380Y-15351190D02*
X26376380Y-15351190D01*
X26519238Y-15446428D01*
X26614476Y-15541666D01*
X26662095Y-15636904D01*
M02*
