M48
;DRILL file {KiCad (5.0.2)-1} date 6/22/2019 12:22:26 AM
;FORMAT={-:-/ absolute / metric / decimal}
FMAT,2
METRIC,TZ
T1C0.400
T2C1.000
%
G90
G05
T1
X5.334Y-4.064
X6.858Y-18.034
X8.382Y-12.446
X10.922Y-6.604
X12.446Y-14.732
X14.478Y-16.256
X14.986Y-5.842
X18.288Y-3.556
X19.05Y-4.318
X22.86Y-2.286
X23.368Y-6.604
X25.654Y-13.716
X27.94Y-3.556
X27.94Y-6.555
X28.448Y-8.128
X28.702Y-13.716
X20.32Y-1.27
X26.67Y-1.27
T2
X1.905Y-15.24
X1.905Y-17.78
X31.115Y-1.905
X31.115Y-4.445
T0
M30
